<?xml version="1.0" standalone="no"?>
<!DOCTYPE svg PUBLIC "-//W3C//DTD SVG 1.1//EN" "http://www.w3.org/Graphics/SVG/1.1/DTD/svg11.dtd" >
<svg xmlns="http://www.w3.org/2000/svg">
<metadata></metadata>
<defs>
<font id="agaramond_regularscregular" horiz-adv-x="1024" >
<font-face units-per-em="2048" ascent="1638" descent="-410" />
<missing-glyph horiz-adv-x="512" />
<glyph unicode=" "  horiz-adv-x="512" />
<glyph unicode="&#x09;" horiz-adv-x="512" />
<glyph unicode="&#xa0;" horiz-adv-x="512" />
<glyph unicode="!" horiz-adv-x="451" d="M225 -29q54 2 84 33q31 31 31 80q0 51 -31 86q-30 35 -84 35q-49 0 -82 -33q-32 -35 -32 -88q0 -51 36 -80q33 -31 78 -33zM225 1323q-49 0 -73 -10q-27 -11 -27 -49q0 -33 14 -183l60 -661q10 -8 26 -8q17 0 27 8l59 661q15 150 15 183q0 63 -101 59z" />
<glyph unicode="&#x22;" horiz-adv-x="827" d="M250 1433q-43 0 -64 -6q-24 -10 -24 -43q0 -18 10 -80l53 -329q25 -25 49 0l54 329q10 62 10 80q0 33 -21 43q-24 6 -67 6zM577 1433q-43 0 -63 -6q-25 -10 -25 -43q0 -18 11 -80l53 -329q24 -25 49 0l53 329q11 62 11 80q0 33 -21 43q-25 6 -68 6z" />
<glyph unicode="#" d="M684 825l-88 -331h-242l90 331h240zM979 825l26 103h-206l94 350h-90l-92 -350h-238l94 350h-88l-92 -350h-223l-33 -103h229l-88 -331h-223l-31 -103h228l-103 -385h78l105 385h243l-102 -385h80l104 385h201l31 103h-203l90 331h209z" />
<glyph unicode="$" horiz-adv-x="840" d="M463 352q98 -35 133 -78q29 -47 29 -90q-5 -143 -205 -147zM416 514q-56 14 -101 51q-51 33 -51 94q-2 54 43 99q41 43 150 47zM465 864q-328 -14 -332 -250q0 -168 262 -241l-45 -328q-102 29 -158 92q-57 62 -71 121q-6 12 -21 12q-16 -2 -26 -16q0 -62 14 -123 q12 -61 35 -92q24 -10 80 -31q53 -20 139 -28l-20 -140q12 -12 34 -12q23 0 37 12l19 135q161 5 256 70q94 66 96 178q0 199 -281 277l41 297q78 -17 117 -66q39 -47 55 -96q8 -8 25 -8q12 0 22 12q-2 72 -12 121q-12 47 -24 67q-87 23 -175 31l17 115q-10 12 -35 12 q-23 0 -35 -12z" />
<glyph unicode="%" horiz-adv-x="1728" d="M1636 369q0 133 -71 262q-76 131 -242 135q-164 -4 -238 -135q-75 -129 -75 -262q0 -129 75 -258q37 -60 97 -99q59 -39 141 -41q84 2 145 41q60 39 97 99q71 129 71 258zM1489 369q2 -90 -27 -209q-14 -54 -49 -90q-33 -41 -88 -41q-51 0 -86 39q-33 36 -51 90 q-17 57 -23 112q-8 58 -8 99q-2 94 31 213q18 55 51 90q35 35 86 37q55 -2 88 -37q35 -35 49 -92q19 -54 23 -111q4 -59 4 -100zM719 913q0 133 -72 262q-76 132 -242 136q-163 -4 -237 -136q-76 -129 -76 -262q0 -129 76 -258q37 -59 96 -98q60 -41 141 -41q84 0 146 41 q59 39 96 98q72 129 72 258zM571 913q2 -90 -26 -209q-15 -53 -49 -90q-33 -41 -88 -41q-52 0 -86 39q-33 37 -52 90q-16 58 -22 113q-8 57 -8 98q-2 95 30 213q19 56 52 90q34 35 86 37q55 -2 88 -37q34 -34 49 -92q18 -53 22 -110q4 -60 4 -101zM1302 1300q-32 37 -67 35 l-827 -1372q2 -43 61 -45z" />
<glyph unicode="&#x26;" horiz-adv-x="1237" d="M461 917q-86 0 -152 -57q-69 -57 -71 -160q0 -57 32 -98q29 -43 56 -65q16 -13 0 -21q-80 -27 -150 -96q-72 -70 -74 -189q-2 -88 74 -170q37 -36 96 -63q58 -25 140 -27q57 2 106 15q47 12 84 30q74 39 105 76q24 21 34 -2q17 -29 68 -78q49 -39 170 -41q63 0 131 23 q68 22 119 80q8 22 -17 30q-75 -53 -147 -53q-29 -2 -82 19q-57 22 -123 98q-24 33 -29 49q-2 16 13 39q92 143 157 246q45 71 78 96q31 25 88 35l60 12q12 8 12 25q-2 16 -14 20q-107 -6 -281 -6h-72q-12 -6 -12 -20q0 -17 10 -25l54 -6q55 -4 12 -86q-55 -115 -131 -248 q-15 -29 -37 8q-90 146 -219 221q-35 21 -6 33q53 23 92 66t41 98q0 78 -56 135q-55 55 -159 57zM408 477q163 -104 274 -278q14 -15 14 -27q0 -14 -14 -29q-90 -84 -193 -84q-100 0 -172 62q-71 57 -73 160q0 75 41 124q39 50 84 74q18 12 39 -2zM453 864q49 0 77 -39 q29 -39 29 -92q-2 -86 -57 -137q-19 -25 -43 -8q-107 59 -107 155q0 64 35 95q31 26 66 26z" />
<glyph unicode="'" horiz-adv-x="481" d="M242 1433q-43 0 -64 -6q-24 -10 -24 -43q0 -18 10 -80l53 -329q25 -25 49 0l53 329q11 62 11 80q0 33 -21 43q-24 6 -67 6z" />
<glyph unicode="(" horiz-adv-x="655" d="M299 553q2 545 315 856q0 29 -28 31q-412 -281 -422 -887q10 -606 422 -887q28 2 28 31q-313 311 -315 856z" />
<glyph unicode=")" horiz-adv-x="655" d="M356 553q-4 -545 -315 -856q0 -29 29 -31q409 281 421 887q-12 606 -421 887q-29 -2 -29 -31q311 -311 315 -856z" />
<glyph unicode="*" horiz-adv-x="807" d="M451 1118l-21 266q-27 17 -49 0l-23 -266l-256 129q-12 0 -20 -14q-6 -12 -4 -29l235 -164l-233 -161q-2 -13 4 -27q8 -14 20 -19l254 134l23 -267q10 -6 27 -6q12 0 22 6l21 267l253 -134q17 5 25 19q6 14 0 27l-233 161l235 164q6 17 -2 29q-6 14 -22 14z" />
<glyph unicode="+" d="M573 0v371h334v100h-334v336h-120v-336h-334v-100h334v-371h120z" />
<glyph unicode="," horiz-adv-x="512" d="M231 250q-49 0 -73 -27q-27 -28 -27 -65q-2 -37 35 -60q20 -4 65 -28q48 -27 52 -90q-2 -78 -58 -121q-57 -43 -110 -58q-9 -8 -4 -24q4 -17 16 -25q111 33 188 107q76 71 78 190q-2 103 -53 152q-49 49 -109 49z" />
<glyph unicode="-" horiz-adv-x="655" d="M82 461q-16 -19 -16 -51q-3 -35 30 -66l477 45q17 21 17 51q0 43 -31 66z" />
<glyph unicode="." horiz-adv-x="512" d="M256 -29q53 2 84 33t31 80q0 51 -31 86t-84 35q-49 0 -82 -33q-33 -35 -33 -88q0 -51 37 -80q33 -31 78 -33z" />
<glyph unicode="/" horiz-adv-x="670" d="M608 1405h-119l-428 -1438h119z" />
<glyph unicode="0" horiz-adv-x="1046" d="M532 893q-188 -2 -317 -129q-131 -127 -133 -334q2 -203 133 -328q129 -129 317 -131q191 2 318 131q131 125 133 328q-2 207 -133 334q-127 127 -318 129zM532 66q-143 2 -225 106q-88 102 -88 258q0 164 88 264q82 103 225 105q144 -2 230 -105q82 -100 84 -264 q-2 -156 -84 -258q-86 -104 -230 -106z" />
<glyph unicode="1" horiz-adv-x="672" d="M412 641q-2 104 18 133q21 31 107 41l34 6q13 12 13 29q-2 16 -19 20q-84 -6 -231 -6q-150 0 -228 6q-12 -4 -12 -20q-2 -17 6 -29l35 -6q86 -10 109 -41q18 -29 16 -133v-418q2 -100 -16 -133q-21 -33 -109 -41l-55 -6q-8 -8 -6 -25q0 -20 12 -24q88 6 248 6 q157 0 252 -6q16 4 18 24q0 17 -12 25l-66 6q-80 6 -98 39q-18 35 -16 135v418z" />
<glyph unicode="2" horiz-adv-x="901" d="M377 119q-25 0 -31 10q-8 6 -8 18l160 175q92 98 139 172q45 73 45 161q0 107 -70 172q-71 64 -194 66q-121 -2 -205 -76q-86 -72 -123 -153q0 -15 14 -25q11 -8 27 -6q78 137 209 141q176 -4 180 -199q-2 -94 -63 -184q-62 -92 -148 -178q-121 -123 -207 -184 q-4 -9 2 -19q5 -12 11 -16q73 6 182 6h203q88 0 155 -2q68 0 123 -4q39 90 96 209q-18 30 -49 16q-35 -70 -78 -86q-47 -16 -127 -14h-243z" />
<glyph unicode="3" horiz-adv-x="778" d="M393 893q-102 -2 -180 -57q-78 -58 -115 -129q0 -31 35 -31q88 117 184 114q78 0 117 -40q37 -41 37 -111q0 -57 -29 -107q-32 -49 -80 -88q-47 -36 -100 -67q-55 -31 -102 -55q-6 -25 4 -41q10 -17 26 -21q27 29 58 43q28 16 59 16q105 -2 152 -75q45 -74 45 -170 q-2 -172 -88 -260q-88 -90 -201 -90q-72 8 -104 10q-13 2 -23 -4q-14 -8 -14 -31q0 -20 16 -51q19 -31 66 -33q51 2 147 49q94 45 186 125q170 137 177 363q-5 204 -213 266q-35 10 32 57q43 31 70 62q29 28 43 53q27 49 27 88q-2 119 -76 170q-72 45 -156 45z" />
<glyph unicode="4" horiz-adv-x="962" d="M573 -367q11 -8 33 -10q21 -4 37 -4q21 0 47 4q25 2 33 10v371q-2 33 6 43q6 6 35 6h176q14 19 14 51q0 31 -14 48h-176q-27 0 -33 10q-8 8 -8 45v676q-4 10 -14 12q-13 4 -23 -2q-235 -307 -561 -703l-90 -102q0 -22 16 -35h481q29 0 37 -8q4 -10 4 -41v-371zM238 152 q-54 2 -23 40q176 226 354 449h4v-434q0 -37 -4 -45q-8 -10 -37 -10h-294z" />
<glyph unicode="5" horiz-adv-x="758" d="M612 111q-2 122 -61 213q-64 92 -166 157q-43 31 -96 66q-41 30 -53 51q-15 20 -5 47q7 25 23 39q14 12 57 18l260 37q25 4 47 21q19 14 33 33q29 40 37 77q4 21 -22 27q-13 -8 -35 -14q-23 -9 -78 -17l-143 -20q-97 -15 -134 -25q-20 -6 -43 -45q-24 -37 -47 -88 q-45 -102 -45 -164q0 -51 49 -90q46 -39 113 -86q70 -45 117 -117q47 -69 49 -168q0 -81 -33 -153q-35 -70 -86 -123q-110 -106 -207 -135q-12 -10 -6 -29q4 -18 23 -28q59 18 135 61t147 109q74 67 121 155q47 86 49 191z" />
<glyph unicode="6" horiz-adv-x="1001" d="M612 692q-104 0 -211 -82q-10 -26 15 -37q59 23 106 23q119 -2 176 -90q54 -88 54 -201q-2 -121 -62 -192q-59 -76 -160 -76q-125 2 -186 110q-63 101 -63 236q4 385 301 645q106 96 208 150q103 53 189 83q12 11 10 23q-4 14 -16 18q-66 -6 -232 -67q-80 -31 -168 -82 q-88 -55 -172 -131q-151 -143 -221 -307q-69 -164 -67 -318q2 -192 104 -307q100 -117 270 -119q183 2 299 119q117 115 119 289q0 129 -74 219q-77 92 -219 94z" />
<glyph unicode="7" horiz-adv-x="967" d="M704 737q41 2 46 -18q4 -23 -39 -99l-533 -987q4 -18 21 -28q16 -10 32 -10q17 0 21 2l420 792q168 318 260 461q0 16 -19 20q-71 -8 -258 -6h-319q-131 0 -201 6q-22 -120 -72 -225q15 -25 48 -14q30 67 77 90q48 16 123 16h393z" />
<glyph unicode="8" horiz-adv-x="881" d="M465 1272q-143 -2 -244 -86q-106 -88 -108 -246q2 -111 75 -197q70 -86 162 -147q-96 -59 -170 -141q-78 -82 -80 -201q2 -141 105 -211q96 -72 227 -72q145 2 240 84q94 82 96 219q0 74 -16 127q-19 56 -54 99q-65 84 -170 153q43 29 90 60q43 30 78 67q78 76 80 197 q-2 147 -94 221q-90 74 -217 74zM397 559q86 -49 158 -133q76 -84 78 -193q0 -88 -49 -141q-50 -59 -144 -59q-94 2 -147 71q-55 68 -55 162q0 92 47 166q45 74 112 127zM451 1210q92 -2 139 -69q47 -68 47 -158q-4 -199 -158 -293q-37 25 -74 55q-38 31 -73 66 q-33 37 -56 80q-22 43 -22 96q0 90 55 156q51 65 142 67z" />
<glyph unicode="9" horiz-adv-x="967" d="M559 -172q305 309 301 637q0 192 -88 309q-92 117 -276 119q-164 -2 -281 -109q-119 -106 -121 -288q0 -129 78 -213q74 -88 193 -91q120 3 198 72q8 25 -12 37q-41 -20 -98 -18q-50 0 -88 30q-39 29 -68 72q-57 92 -57 195q0 108 57 178q55 65 151 67q76 0 125 -35 q47 -34 74 -88q29 -53 37 -112q8 -60 8 -115q0 -67 -8 -129q-8 -63 -25 -119q-34 -112 -88 -198q-53 -86 -106 -144q-57 -59 -98 -90q-119 -92 -293 -155q-8 -11 -4 -23q4 -16 14 -22q242 38 475 233z" />
<glyph unicode=":" horiz-adv-x="512" d="M256 573q53 0 84 33q31 31 31 80q0 51 -31 86t-84 35q-49 0 -82 -33q-33 -35 -33 -88q0 -51 37 -80q33 -33 78 -33zM256 -29q53 2 84 33t31 80q0 51 -31 86t-84 35q-49 0 -82 -33q-33 -35 -33 -88q0 -51 37 -80q33 -31 78 -33z" />
<glyph unicode=";" horiz-adv-x="512" d="M231 250q-49 0 -73 -27q-27 -28 -27 -65q-2 -37 35 -60q20 -4 65 -28q48 -27 52 -90q-2 -78 -58 -121q-57 -43 -110 -58q-9 -8 -4 -24q4 -17 16 -25q111 33 188 107q76 71 78 190q-2 103 -53 152q-49 49 -109 49zM256 573q53 0 84 33q31 31 31 80q0 51 -31 86t-84 35 q-49 0 -82 -33q-33 -35 -33 -88q0 -51 37 -80q33 -33 78 -33z" />
<glyph unicode="&#x3c;" d="M911 846l-796 -379v-92l796 -377v117l-649 305v4l649 303v119z" />
<glyph unicode="=" d="M907 625h-788v-101h788v101zM907 317h-788v-100h788v100z" />
<glyph unicode="&#x3e;" d="M113 846v-119l649 -303v-4l-649 -305v-117l796 377v92z" />
<glyph unicode="?" horiz-adv-x="657" d="M213 1323q-41 0 -59 -23q-23 -22 -23 -55q0 -39 29 -61q24 -25 39 -25q80 0 137 -10q57 -14 100 -55q25 -25 37 -58q8 -33 8 -67q2 -82 -112 -150l-101 -53q-47 -23 -78 -53q-32 -31 -32 -95q0 -49 26 -106q25 -57 47 -96q11 -6 25 -4q12 2 18 14q-20 65 -20 119 q0 55 72 90l161 86q27 12 54 57q22 45 24 127q-4 168 -114 291q-109 125 -238 127zM258 -29q53 2 84 33t31 80q0 51 -31 86t-84 35q-49 0 -82 -33q-33 -35 -33 -88q0 -51 37 -80q33 -31 78 -33z" />
<glyph unicode="@" horiz-adv-x="1567" d="M926 952q69 -4 88 -59q-21 -53 -92 -156q-72 -104 -152 -178q-74 -63 -113 -84q-43 -22 -51 -22q-24 0 -24 26q2 90 65 213q62 123 150 199q39 31 69 47q31 14 60 14zM1061 979q-8 22 -31 35q-22 10 -45 10q-123 -2 -229 -82q-105 -78 -181 -176q-88 -113 -120 -199 q-35 -86 -35 -116q0 -35 22 -62q19 -31 62 -31q69 2 180 74q111 68 207 166l4 -2l-51 -129q-19 -51 -17 -64q-2 -10 25 -26q24 -19 123 -19q252 4 391 150q137 141 139 344q-2 213 -153 371q-154 157 -451 161q-326 -2 -561 -211q-242 -206 -248 -573q6 -321 219 -477 q209 -156 471 -156q90 0 197 25q104 22 199 80q8 26 -17 39q-49 -23 -127 -45q-39 -11 -86 -17q-49 -10 -104 -10q-174 0 -291 55q-119 53 -188 137q-70 86 -101 183q-31 98 -31 188q0 293 175 498q167 211 475 215q231 -2 381 -125q151 -125 153 -346q-2 -195 -117 -301 q-114 -109 -282 -117q-78 -4 -47 65q125 304 239 568q-14 16 -43 26q-28 7 -55 -2z" />
<glyph unicode="A" horiz-adv-x="1276" d="M924 197q26 -74 26 -109q-2 -31 -71 -37l-60 -6q-8 -8 -8 -25q0 -18 12 -26q88 6 236 6q131 0 248 -6q10 8 10 26q2 17 -10 25l-56 6q-61 6 -96 47q-35 43 -78 170l-280 824q-23 67 -45 139q-25 67 -45 135q-9 18 -31 18q-17 -20 -41 -43q-29 -22 -66 -34q8 -41 -35 -146 l-208 -553q-127 -329 -181 -456q-22 -54 -53 -74q-31 -25 -69 -27l-68 -6q-8 -8 -6 -25q0 -18 10 -26q90 6 197 6q139 -2 213 -6q14 8 16 26q0 17 -12 25l-68 6q-35 2 -47 15q-12 8 -12 26q0 33 45 170l71 215q11 33 27 43q14 6 51 6h310q45 0 61 -6q14 -12 22 -45z M557 1014q18 47 33 82q12 32 16 39h4q10 -19 23 -54q12 -37 24 -76l111 -333q16 -39 8 -52q-8 -14 -53 -12h-252q-41 0 -47 8q-8 9 4 41z" />
<glyph unicode="B" horiz-adv-x="1239" d="M262 307q2 -153 -14 -201q-19 -49 -99 -55l-36 -6q-9 -10 -7 -27q0 -16 11 -24q106 6 235 6q144 -2 246 -6q547 10 545 397q0 84 -27 146q-27 61 -67 100q-41 43 -89 67q-49 23 -92 29q-39 4 -39 31q95 43 152 108q57 64 57 172q-2 99 -43 162q-43 64 -112 94 q-68 37 -156 47q-90 11 -188 11q-281 0 -441 -17q-12 -6 -12 -22q0 -17 10 -29l66 -6q67 -4 86 -45q14 -43 14 -154v-778zM430 641q-2 31 18 43q21 10 101 10q123 0 203 -30q79 -31 124 -82q46 -50 64 -113q16 -61 16 -125q-2 -152 -92 -219q-88 -70 -229 -68q-47 0 -88 13 q-43 12 -74 45q-27 37 -35 102q-8 64 -8 121v303zM430 1229q0 26 8 39q6 12 21 14q26 12 94 12q123 0 213 -61q90 -66 92 -215q0 -142 -80 -199q-84 -59 -241 -63q-74 -4 -91 6q-18 10 -16 51v416z" />
<glyph unicode="C" horiz-adv-x="1425" d="M90 668q2 -197 86 -336q80 -142 205 -228q229 -139 510 -137q102 2 194 19q93 16 129 28q35 15 72 21q27 35 57 117q31 79 41 163q-6 13 -22 15q-17 4 -31 -6q-16 -43 -47 -95q-33 -53 -84 -96q-49 -43 -123 -72q-74 -30 -174 -30q-258 0 -428 174q-176 170 -180 493 q4 320 174 471q164 152 405 152q113 0 189 -25q78 -28 123 -71q49 -43 75 -97q25 -53 33 -106q15 -8 31 -6q16 0 25 10q-25 209 -29 301q-25 -2 -57 8q-170 47 -363 49q-324 0 -553 -174q-252 -190 -258 -542z" />
<glyph unicode="D" horiz-adv-x="1597" d="M262 307q2 -153 -16 -201q-21 -49 -107 -55l-47 -6q-8 -10 -6 -27q0 -16 10 -24q135 6 256 6q56 0 146 -8q88 -6 188 -8q248 -2 459 98q356 205 358 610q0 207 -102 367q-105 159 -314 237q-196 64 -450 62q-256 0 -514 -17q-14 -8 -14 -24q0 -17 12 -27l45 -6 q63 -6 82 -49q14 -43 14 -150v-778zM430 1110q-2 137 21 156q12 10 63 20q25 4 61 6q35 2 78 2q203 -2 330 -61q125 -62 195 -156q69 -94 96 -198q24 -103 24 -191q0 -289 -137 -463q-141 -176 -438 -178q-189 -4 -252 84q-45 68 -41 223v756z" />
<glyph unicode="E" horiz-adv-x="1196" d="M262 307q2 -155 -18 -203q-23 -49 -109 -53l-67 -6q-9 -10 -7 -27q0 -16 11 -24q164 6 278 6h184q138 0 275 -2q135 0 274 -4q25 49 54 137q26 90 38 148q-6 14 -22 20q-16 4 -29 -6q-84 -164 -145 -199q-31 -16 -86 -22q-60 -9 -176 -9q-131 0 -180 17q-52 12 -68 31 q-41 51 -39 213v288q-2 39 12 49q11 7 56 7h118q117 0 158 -11q31 -6 45 -26q14 -23 19 -51l18 -80q12 -9 29 -9q16 0 24 11q-6 78 -8 196q4 125 8 207q-8 12 -24 12q-17 0 -29 -10l-16 -84q-7 -37 -19 -51t-31 -20q-40 -13 -174 -13h-118q-45 -2 -56 8q-14 9 -12 50v409 q-2 55 8 72q10 10 53 10h148q135 0 199 -12q77 -19 108 -70q29 -49 47 -125q10 -8 27 -6q16 0 24 10q-6 74 -14 158q-8 86 -18 115q-21 -4 -97 -4q-79 -2 -180 -2h-385q-61 0 -119 2q-57 0 -122 4q-11 -4 -11 -23q-2 -20 6 -28l33 -5q88 -4 109 -53q18 -49 16 -205v-737z " />
<glyph unicode="F" horiz-adv-x="1102" d="M430 1206q-2 55 8 72q10 10 53 10h125q131 0 199 -12q76 -23 104 -72q29 -51 39 -123q13 -8 29 -4q16 0 21 10q-7 123 -7 271q-59 -8 -276 -6h-377q-59 0 -117 2q-57 0 -120 4q-11 -4 -11 -23q-2 -20 6 -28l33 -5q86 -4 107 -51q18 -49 16 -207v-737q2 -153 -16 -201 q-21 -49 -107 -55l-51 -6q-8 -10 -6 -27q0 -16 10 -24q133 6 256 6q107 0 272 -6q11 8 13 26q0 17 -8 25l-70 6q-86 4 -107 53q-20 48 -18 203v285q-2 39 12 49q11 6 56 6h139q117 0 158 -10q55 -21 65 -78l21 -80q14 -8 30 -8q17 0 23 8q-6 80 -8 199q4 123 8 207 q-8 10 -25 10q-16 0 -28 -10l-19 -82q-8 -37 -20 -51q-13 -15 -31 -21q-43 -12 -174 -12h-139q-45 -2 -56 8q-14 8 -12 47v432z" />
<glyph unicode="G" horiz-adv-x="1530" d="M1327 324q-2 79 14 122q13 43 74 50l33 4q12 12 12 28q-2 17 -14 23q-99 -6 -217 -6q-193 0 -293 6q-10 -4 -10 -23q0 -20 10 -28l90 -11q92 -4 117 -38q18 -35 16 -160v-82q0 -49 -4 -76q-6 -29 -16 -41q-35 -59 -226 -61q-307 4 -460 205q-154 196 -154 497 q0 238 139 412q137 174 432 178q160 2 269 -62q108 -65 151 -229q10 -8 31 -6q20 0 24 12q-30 191 -30 297q-21 -2 -56 6q-38 6 -71 13q-68 26 -260 30q-230 0 -387 -63q-80 -31 -144 -76q-67 -45 -118 -100q-187 -213 -185 -486q0 -274 189 -464q120 -119 282 -172 q160 -56 342 -56q185 4 367 53q61 17 100 19q12 12 2 24q-51 23 -49 146v115z" />
<glyph unicode="H" horiz-adv-x="1651" d="M1118 661q72 0 90 -8q15 -12 13 -57v-289q2 -153 -17 -201q-16 -49 -108 -55l-39 -6q-8 -10 -6 -27q0 -16 10 -24q129 6 248 6q110 0 247 -6q11 8 13 26q0 17 -9 25l-49 6q-86 6 -104 55q-21 48 -19 201v737q-2 158 19 207q18 47 104 51l43 5q9 8 9 28q-3 19 -13 23 q-129 -6 -241 -6q-117 0 -248 6q-10 -4 -10 -23q-2 -20 6 -28l39 -5q88 -4 108 -51q19 -49 17 -207v-235q2 -45 -13 -55q-18 -11 -90 -11h-586q-69 0 -86 11q-18 10 -16 55v235q-2 158 18 207q19 47 105 51l39 5q8 8 8 28q-2 19 -12 23q-125 -6 -238 -6q-119 0 -258 6 q-10 -4 -10 -23q-2 -20 6 -28l53 -5q78 -2 103 -49q20 -51 18 -209v-737q2 -153 -14 -201q-21 -45 -105 -55l-34 -6q-9 -10 -7 -27q0 -16 11 -24q112 6 237 6q107 0 260 -6q10 8 13 26q0 17 -9 25l-59 6q-82 4 -104 53q-23 48 -21 203v289q-2 45 16 57q17 8 86 8h586z" />
<glyph unicode="I" horiz-adv-x="692" d="M262 311q2 -157 -16 -205q-21 -49 -109 -55l-51 -6q-8 -10 -6 -27q0 -16 10 -24q141 6 258 6q113 0 254 -6q10 8 12 26q0 17 -8 25l-51 6q-86 6 -107 55q-20 48 -18 205v729q-2 158 18 211q21 51 107 51l51 5q8 8 8 28q-2 19 -12 23q-141 -6 -254 -6q-117 0 -258 6 q-10 -4 -10 -23q-2 -20 6 -28l51 -5q88 0 109 -51q18 -53 16 -211v-729z" />
<glyph unicode="J" horiz-adv-x="707" d="M293 266q0 -96 -6 -262q-4 -78 -17 -143q-12 -70 -30 -109q-19 -49 -82 -53q-43 2 -86 14q-39 13 -76 13q-31 0 -51 -33q-23 -31 -23 -62q2 -28 37 -34q31 -9 51 -9q146 2 250 86q102 84 154 209q49 148 47 398v759q-2 158 18 207q21 49 107 55l30 5q9 8 9 28 q-2 19 -13 23q-116 -6 -233 -6q-113 0 -275 6q-10 -4 -10 -23q-2 -20 6 -28l52 -5q90 0 116 -47q27 -49 25 -215v-774z" />
<glyph unicode="K" horiz-adv-x="1382" d="M262 307q2 -153 -14 -201q-19 -49 -99 -55l-40 -6q-9 -10 -7 -27q0 -16 11 -24q118 6 237 6q111 0 250 -6q10 8 12 26q0 17 -8 25l-55 6q-82 4 -101 53q-20 48 -18 203v264q0 56 8 78q6 21 27 21q33 0 76 -37q41 -39 123 -135l163 -185q115 -125 170 -192q13 -12 23 -25 q6 -12 6 -22q-2 -15 -49 -21l-47 -8q-8 -10 -4 -27q4 -20 12 -24q133 6 250 6q147 0 229 -6q12 8 14 26q2 17 -10 25l-55 6q-96 12 -164 84q-229 246 -512 576q-39 45 -39 63q0 23 47 64l185 174q186 176 286 237q99 51 191 58q10 10 10 26q-2 17 -14 25q-95 -6 -203 -6 q-113 0 -225 6q-13 -6 -13 -23q0 -16 9 -28l55 -13q35 -8 35 -20q0 -13 -15 -33q-18 -27 -71 -80q-54 -57 -88 -90l-222 -219q-45 -47 -104 -98q-25 -21 -57 -23q-15 0 -21 27q-6 22 -6 51v235q-2 158 18 207q19 47 105 51l39 5q8 8 8 28q-2 19 -12 23q-125 -6 -238 -6 q-123 0 -258 6q-10 -4 -10 -23q-2 -20 6 -28l51 -5q86 0 107 -51q18 -49 16 -207v-737z" />
<glyph unicode="L" horiz-adv-x="1132" d="M262 307q2 -155 -16 -203q-21 -49 -107 -53l-61 -6q-8 -10 -6 -27q0 -16 10 -24q156 6 266 6h189q161 0 294 -2q136 0 215 -4q25 53 56 158q12 47 22 86q8 34 8 43q-2 12 -18 16q-20 4 -33 -4q-67 -162 -135 -203q-20 -12 -70 -18q-51 -9 -180 -9q-57 0 -98 7 q-39 4 -64 10q-45 14 -61 31q-27 28 -35 77q-8 52 -8 144v712q-2 158 18 207q21 51 107 51l49 5q8 8 8 28q-2 19 -12 23q-143 -6 -252 -6q-108 0 -266 6q-10 -4 -10 -23q-2 -20 6 -28l51 -5q94 0 117 -51q18 -49 16 -207v-737z" />
<glyph unicode="M" horiz-adv-x="1868" d="M563 1020q-22 49 -41 98q-20 49 -37 92q-32 88 -28 148q-101 -8 -170 -6q-74 0 -162 6q-12 -6 -12 -23q-2 -16 4 -28l32 -5q93 -12 119 -45q25 -36 19 -131q-6 -184 -23 -456q-16 -277 -35 -451q-8 -102 -34 -133q-29 -29 -93 -35l-45 -6q-8 -8 -6 -25q0 -16 10 -26 q109 6 209 6q121 0 228 -6q12 8 14 24q0 17 -12 27l-78 6q-57 4 -74 43q-20 37 -18 148q0 278 14 481q8 176 21 364h4q67 -147 131 -294l184 -396q100 -198 180 -409q10 -8 19 -8q14 0 20 8q70 170 221 467l183 358q34 70 77 156q43 88 56 110h4l6 -854q2 -96 -12 -131 q-15 -37 -88 -43l-60 -6q-8 -10 -6 -25q0 -16 10 -26q133 6 248 6q113 0 242 -6q12 8 14 24q0 17 -10 27l-66 6q-67 10 -82 49q-14 41 -18 117q-21 504 -23 891q-2 104 25 147q27 41 119 47l43 5q8 8 8 26q0 17 -10 25q-101 -6 -183 -6q-55 -2 -153 6q-10 -127 -156 -393 l-192 -392q-76 -159 -158 -307h-4q-72 135 -141 281z" />
<glyph unicode="N" horiz-adv-x="1603" d="M1364 838q0 81 4 219q2 65 8 121q6 53 19 81q14 27 114 43l29 5q10 10 10 26q-2 17 -14 25q-92 -6 -211 -6q-109 0 -242 6q-12 -4 -12 -23q0 -16 8 -28l35 -5q61 -6 90 -16q29 -8 37 -25q16 -22 25 -77q10 -54 12 -121q4 -139 4 -225v-439v-53q-2 -24 -8 -33h-4 q-138 140 -338 371l-199 223q-59 70 -182 215q-58 70 -103 133q-22 31 -38 60q-19 24 -27 43q-43 -6 -94 -6q-78 -2 -232 6q-12 -6 -12 -23q0 -16 8 -28l35 -5q80 -8 127 -49q33 -32 41 -67q4 -37 4 -80v-592v-219q-2 -64 -8 -117q-6 -57 -19 -86q-16 -35 -90 -41l-55 -6 q-8 -10 -6 -25q0 -16 10 -26q96 6 213 6q109 0 240 -6q22 20 4 51l-64 6q-80 6 -104 39q-12 27 -19 80q-6 55 -10 121q-8 141 -8 223v446q0 95 10 134h4q111 -125 238 -277l475 -541q133 -147 190 -215q56 -69 72 -94q33 2 39 23q-4 53 -4 178q-2 123 -2 180v490z" />
<glyph unicode="O" horiz-adv-x="1628" d="M823 -33q305 4 506 203q201 197 205 512q0 280 -176 487q-178 211 -535 215q-321 -4 -522 -206q-205 -201 -207 -517q2 -284 195 -483q190 -207 534 -211zM850 31q-297 6 -426 235q-127 219 -125 461q0 168 49 285q45 116 117 182q76 70 160 100q43 15 84 21t79 6 q293 -6 418 -223q125 -211 123 -480q-4 -301 -145 -444q-142 -143 -334 -143z" />
<glyph unicode="P" horiz-adv-x="1124" d="M430 1221q-2 47 16 61q19 12 95 12q327 -8 329 -327q0 -134 -65 -222q-72 -90 -236 -122q-8 -5 -8 -19t10 -22q138 -2 283 61q35 18 72 45q34 27 65 66q66 75 68 215q-6 215 -164 307q-141 84 -393 82q-248 0 -406 -17q-12 -6 -12 -22q0 -17 8 -29l74 -8q67 -2 84 -45 q14 -45 12 -174v-756q2 -153 -16 -201q-21 -49 -107 -55l-43 -6q-8 -10 -6 -27q0 -16 10 -24q129 6 250 6q107 0 266 -6q11 8 13 26q0 17 -9 25l-55 6q-94 6 -114 55q-23 48 -21 201v914z" />
<glyph unicode="Q" horiz-adv-x="1628" d="M823 1384q-321 -4 -522 -206q-205 -201 -207 -517q6 -460 438 -638q117 -39 201 -50q41 -4 70 -18q24 -12 67 -57q60 -58 156 -133q49 -37 106 -72q56 -35 117 -66q92 -39 178 -57q84 -18 154 -18q29 0 59 4q29 4 60 10q59 12 110 39q6 10 2 20q-2 10 -12 10 q-55 -18 -98 -18q-74 -2 -191 29q-127 45 -250 143q-122 98 -206 178q-21 17 -17 31q219 68 357 250q137 178 139 434q0 280 -176 487q-178 211 -535 215zM850 31q-297 6 -426 235q-127 219 -125 461q0 168 49 285q45 116 117 182q76 70 160 100q43 15 84 21t79 6 q293 -6 418 -223q125 -211 123 -480q-4 -301 -145 -444q-142 -143 -334 -143z" />
<glyph unicode="R" horiz-adv-x="1321" d="M262 307q2 -153 -16 -201q-21 -49 -107 -55l-51 -6q-8 -10 -6 -27q0 -16 10 -24q135 6 256 6q115 0 244 -6q10 8 12 26q0 17 -8 25l-43 6q-86 6 -105 55q-20 48 -18 201v258q-2 33 14 41q17 4 82 4q60 0 92 -14q33 -19 54 -51q108 -166 200 -309q109 -150 203 -205 q96 -54 221 -54q62 0 90 11q15 18 -2 28q-86 9 -141 58q-186 162 -412 544q-6 15 -10 27q-6 12 0 23q41 14 86 45q45 26 82 69q84 84 88 228q0 106 -47 180q-47 69 -123 106q-71 39 -157 51q-89 11 -185 11q-293 0 -456 -17q-13 -8 -13 -24q0 -17 10 -27l66 -8q61 -2 78 -49 q14 -47 12 -191v-735zM430 1229q-2 41 21 55q20 10 112 10q172 -2 250 -94q78 -94 78 -221q0 -103 -29 -162t-74 -92t-98 -43q-55 -10 -113 -10q-143 0 -141 10q-8 12 -6 68v479z" />
<glyph unicode="S" horiz-adv-x="1001" d="M895 346q-2 145 -78 242q-76 94 -178 151l-164 103q-59 37 -115 102q-57 61 -59 150q-2 75 49 149q27 35 76 57q45 21 119 21q73 0 125 -21q49 -22 80 -57q30 -33 49 -74q16 -41 24 -80q10 -8 27 -4q16 0 24 11q-2 153 -36 249q-29 0 -72 13q-88 26 -191 26 q-200 -2 -307 -102q-110 -98 -110 -250q2 -125 73 -211q66 -88 148 -141l194 -127q111 -72 142 -143q18 -37 22 -72q4 -37 4 -72q0 -94 -61 -162q-66 -71 -195 -73q-88 0 -149 35q-62 32 -103 79q-38 50 -63 103q-25 51 -37 88q-6 8 -22 8q-17 -2 -27 -14q4 -76 20 -160 q11 -41 19 -74q6 -35 16 -53q31 -18 111 -45q80 -29 209 -31q202 2 319 107q115 100 117 272z" />
<glyph unicode="T" horiz-adv-x="1352" d="M754 1218q-2 52 8 62q8 8 51 8h145q168 0 238 -51q25 -19 37 -62q12 -45 14 -88q12 -8 29 -8q16 0 24 13q-2 51 7 149q10 94 24 162q-14 12 -37 6q-18 -39 -49 -47q-31 -10 -110 -10h-830q-69 -2 -117 8q-47 10 -57 55q-4 6 -18 6q-13 -2 -21 -6q-24 -145 -78 -305 q9 -12 25 -16q16 -7 29 2q16 41 36 73q21 35 56 68q43 35 114 45q70 6 138 6h112q45 0 56 -8q6 -10 6 -57v-916q2 -155 -19 -203q-22 -49 -108 -53l-74 -6q-10 -8 -10 -25q0 -18 10 -26q180 6 285 6q108 0 268 -6q10 8 12 26q0 17 -8 25l-66 6q-86 4 -104 53q-20 48 -18 203 v911z" />
<glyph unicode="U" horiz-adv-x="1528" d="M1239 602q2 -237 -92 -387q-96 -156 -318 -158q-231 2 -323 152q-94 145 -92 395v442q-2 156 18 207q19 51 105 51l49 5q8 8 8 26q-2 19 -12 23q-138 -6 -252 -6q-111 0 -254 6q-10 -4 -10 -23q-3 -18 6 -26l51 -5q86 0 106 -51q19 -51 17 -207v-483q-2 -356 159 -483 q41 -31 86 -51q43 -23 93 -35q100 -27 204 -27q244 2 392 150q84 94 116 225q27 129 27 264v232q0 96 4 227q4 31 6 61q0 29 4 54q2 26 8 45q5 18 7 30q10 23 36 35q29 12 66 14l49 5q10 10 10 26q-2 17 -14 23q-98 -6 -215 -6q-119 0 -233 6q-11 -6 -11 -21q-2 -16 6 -28 l52 -5q80 -6 102 -43q27 -55 35 -186q4 -133 4 -237v-236z" />
<glyph unicode="V" horiz-adv-x="1384" d="M565 246q58 -135 94 -273q17 -6 31 -6q12 0 23 6q71 207 213 535l110 252q72 157 129 278q58 121 101 193q36 65 106 71l61 5q9 10 9 26q0 17 -13 25q-98 -6 -198 -6q-121 0 -213 6q-10 -6 -10 -23q-3 -16 6 -28l37 -5q53 -6 73 -16q19 -10 19 -22q2 -19 -19 -80 q-75 -191 -190 -459q-35 -86 -90 -215q-56 -131 -107 -240q-151 350 -291 707q-47 119 -71 194q-27 76 -31 93q2 12 21 22q20 10 75 16l31 5q12 12 10 28q-2 17 -14 23q-121 -6 -248 -6t-213 6q-12 -8 -12 -25q0 -16 8 -26l37 -5q65 -4 100 -43q35 -38 66 -124z" />
<glyph unicode="W" horiz-adv-x="1966" d="M43 1304q63 -6 94 -43q29 -38 55 -104q197 -426 392 -854q65 -145 141 -330q16 -6 31 -6q16 0 24 6q117 308 256 582q123 -262 248 -582q12 -6 29 -6q16 0 24 6q125 322 256 629l150 346q88 209 131 283q43 71 112 73l39 5q13 14 13 30q-4 15 -17 19q-76 -6 -190 -6 q-88 0 -197 6q-24 -17 -2 -49l60 -5q65 -4 67 -47q-2 -20 -18 -73q-21 -56 -43 -113q-64 -158 -164 -407q-90 -218 -184 -433q-103 232 -209 467q-15 37 -15 49q0 17 19 50q71 159 159 325q33 68 70 123q35 53 98 59l60 5q10 14 10 30q-2 15 -14 19q-82 -6 -197 -6 q-110 0 -192 6q-11 -4 -11 -17q-2 -16 7 -32l61 -5q25 0 41 -6q14 -8 14 -28q2 -39 -53 -166q-66 -158 -121 -268q-90 198 -158 356q-30 67 -22 90q8 22 65 22l54 5q10 14 10 30q-2 15 -14 19q-72 -6 -226 -6q-127 0 -219 6q-12 -6 -12 -21q0 -16 8 -28l49 -5q52 -4 82 -32 q29 -31 49 -80q117 -246 226 -492q16 -36 16 -53q-2 -20 -33 -84q-84 -174 -157 -332q-181 379 -355 764q-47 113 -75 185q-13 36 -21 59q-10 22 -10 31q0 28 67 34l47 5q11 12 11 28q0 17 -15 21q-127 -6 -233 -6q-111 0 -211 6q-12 -6 -12 -23q-2 -16 6 -26z" />
<glyph unicode="X" horiz-adv-x="1317" d="M1292 51q-88 0 -186 135l-346 488q-29 47 -27 53q0 10 21 39q147 207 266 362q127 162 219 174l49 5q10 10 10 26q-2 17 -14 25q-88 -6 -197 -6q-114 0 -217 6q-12 -6 -12 -23q0 -16 8 -28l53 -7q29 -4 50 -10q18 -6 18 -16q-2 -25 -29 -68q-36 -59 -131 -207 q-94 -147 -143 -211q-133 183 -262 375q-27 47 -43 74q-19 27 -19 39q2 20 62 26l57 5q10 14 10 30q-2 17 -14 21q-100 -6 -231 -6q-103 0 -238 6q-8 -4 -8 -23q-2 -16 4 -28l66 -15q53 -8 92 -45q39 -35 86 -108l307 -441q24 -34 24 -47q0 -10 -18 -41q-205 -286 -278 -377 q-45 -63 -103 -114q-57 -56 -141 -68l-51 -6q-9 -10 -6 -27q0 -16 12 -24q102 6 211 6q108 0 221 -6q10 10 12 26q2 15 -10 25l-55 6q-60 8 -60 27q0 22 27 65q164 275 289 437q147 -199 292 -412q48 -78 46 -90q0 -21 -70 -27l-59 -6q-7 -8 -5 -25q0 -16 9 -26q118 6 264 6 q121 0 258 -6q12 10 14 26q0 15 -12 25z" />
<glyph unicode="Y" horiz-adv-x="1175" d="M688 418q-2 110 14 170q17 57 82 162l129 223q74 135 136 223q59 86 135 100l57 11q12 10 12 26q-4 17 -16 25q-100 -6 -191 -6q-90 0 -196 6q-12 -6 -12 -23q0 -16 8 -28l37 -5q39 -2 63 -12q23 -10 23 -20q-2 -23 -43 -105q-43 -82 -90 -166q-95 -180 -193 -346 q-119 219 -231 455q-11 22 -35 80q-8 28 -19 49q-10 22 -10 29q-2 12 19 20q16 8 67 16l27 5q10 12 10 28q-2 19 -16 23q-78 -6 -219 -6q-144 0 -238 6q-10 -6 -10 -23q-2 -16 6 -28l57 -11q45 -2 80 -28q33 -29 82 -127l242 -471q45 -80 57 -127q8 -47 8 -127v-105 q2 -157 -16 -207q-21 -49 -107 -53l-63 -6q-8 -10 -6 -27q0 -16 10 -24q151 6 268 6q107 0 279 -6q10 8 12 24q0 17 -8 27l-78 6q-80 2 -102 51q-23 52 -21 209v107z" />
<glyph unicode="Z" horiz-adv-x="1313" d="M279 297q-127 -178 -224 -279q0 -16 11 -24q69 6 229 6h526q107 0 199 -2q92 0 174 -4q24 45 53 131q12 41 25 84q8 41 14 76q-4 16 -18 18q-17 2 -33 -4q-25 -59 -62 -111q-36 -51 -81 -77q-62 -31 -168 -39q-109 -9 -211 -9q-219 0 -303 5q-58 2 -58 28q0 15 31 62 q27 45 63 98q82 119 109 158l338 487q86 125 188 260q49 66 90 115q39 47 58 63q0 15 -13 19q-24 -6 -235 -6h-541q-118 0 -159 8q-39 8 -43 43q-19 10 -35 0q-41 -185 -84 -307q6 -13 22 -15q17 -6 29 0q25 62 90 140q68 69 305 67h305q76 0 74 -16q-2 -21 -25 -56 q-45 -77 -198 -290z" />
<glyph unicode="[" horiz-adv-x="655" d="M240 -307h141q113 2 225 6q12 6 12 23q0 12 -10 22l-182 21q-37 2 -51 20q-15 23 -21 113t-6 206v889q0 119 6 211q4 43 11 74q4 29 10 35q14 18 51 20l182 21q10 14 10 26q0 13 -12 19q-112 4 -225 6h-141v-1712z" />
<glyph unicode="\" horiz-adv-x="633" d="M180 1405h-119l392 -1438h118z" />
<glyph unicode="]" horiz-adv-x="655" d="M416 1405h-142q-112 -2 -225 -6q-10 -6 -10 -19q0 -12 8 -26l182 -21q37 -2 52 -20q18 -19 22 -109q4 -92 4 -211v-889q0 -116 -4 -206q-2 -43 -6 -72q-6 -31 -16 -41q-15 -18 -52 -20l-182 -21q-8 -10 -8 -22q0 -17 10 -23q113 -4 225 -6h142v1712z" />
<glyph unicode="^" d="M922 500l-361 782h-98l-363 -782h129l283 637l283 -637h127z" />
<glyph unicode="_" d="M1024 -154h-1024v-102h1024v102z" />
<glyph unicode="`" horiz-adv-x="737" d="M299 1315q-10 22 -20 35q-13 14 -25 14q-27 4 -64 -27q-36 -30 -36 -55q0 -23 34 -61l265 -277q26 -2 32 25z" />
<glyph unicode="a" horiz-adv-x="936" d="M528 317q35 0 49 -6q11 -8 21 -43l49 -133q21 -45 19 -61q-7 -17 -46 -23l-40 -6q-13 -8 -11 -25q0 -18 15 -26q75 6 184 6q98 0 170 -6q16 4 18 24q4 19 -12 27l-33 6q-53 10 -75 37q-23 25 -41 72l-185 489q-35 96 -57 166q-25 70 -31 86q-6 18 -33 10q-22 -47 -86 -78 q-4 -51 -53 -172l-196 -471q-29 -71 -54 -96q-26 -28 -73 -39l-47 -10q-11 -8 -9 -25q0 -18 13 -26q57 6 143 6t162 -6q16 4 18 24q0 19 -12 27l-55 10q-27 4 -33 21q-6 14 10 61l47 131q10 35 25 43q14 6 45 6h194zM354 383q-32 0 -37 10q-6 10 11 49l73 183q27 61 33 69h4 q8 -8 31 -74l63 -174q19 -41 13 -53q-8 -10 -49 -10h-142z" />
<glyph unicode="b" horiz-adv-x="985" d="M215 215q0 -100 -14 -127q-17 -29 -82 -37l-39 -6q-8 -8 -8 -25q0 -18 12 -26q119 6 215 6q57 0 104 -2q48 -4 78 -4q76 0 148 12q71 8 131 35q63 31 100 82q35 49 35 131q0 55 -16 94q-17 39 -46 66q-59 51 -120 63q-66 10 -52 27q162 51 164 180q0 74 -35 117 q-36 43 -94 63q-110 33 -260 31q-182 0 -342 -12q-12 -4 -12 -23q-2 -20 10 -29l64 -8q43 -4 53 -39q6 -37 6 -135v-434zM371 412q-2 20 14 28q16 6 82 6q104 0 178 -43q76 -47 78 -167q-2 -101 -59 -142q-60 -41 -140 -41q-92 0 -123 35q-32 35 -30 125v199zM371 780 q-2 29 14 43q14 13 76 13q82 0 139 -37q55 -41 57 -133q0 -93 -57 -127q-59 -35 -160 -33q-47 0 -57 6q-14 6 -12 29v239z" />
<glyph unicode="c" horiz-adv-x="1026" d="M649 917q-241 0 -399 -118q-168 -119 -172 -369q0 -123 57 -213q53 -92 137 -151q41 -25 84 -41q43 -19 88 -31q93 -23 189 -23q55 0 98 6q41 7 74 13q63 16 104 24q45 72 68 222q-8 16 -25 16q-18 0 -28 -14q-7 -19 -25 -54q-20 -35 -57 -69q-33 -35 -86 -58 q-54 -26 -127 -26q-150 0 -256 112q-111 111 -113 318q2 209 111 305q102 92 239 92q135 -2 201 -59q65 -62 84 -150q14 -12 31 -8q16 0 22 12q-18 142 -18 226q-17 0 -97 20q-79 16 -184 18z" />
<glyph unicode="d" horiz-adv-x="1173" d="M215 215q0 -100 -14 -127q-17 -29 -82 -37l-39 -6q-8 -8 -8 -25q0 -18 12 -26q115 6 209 6q47 0 110 -4q66 -6 136 -6q161 -2 309 63q248 139 248 395q-2 295 -283 402q-141 45 -311 45q-236 0 -396 -12q-12 -4 -12 -23q-2 -20 10 -29l62 -8q35 -2 43 -37q6 -36 6 -137 v-434zM371 733q-2 68 12 80q22 23 123 23q178 0 293 -97q112 -96 114 -286q0 -398 -366 -404q-58 0 -90 12q-37 13 -56 37q-32 49 -30 148v487z" />
<glyph unicode="e" horiz-adv-x="917" d="M215 215q0 -100 -14 -129q-17 -29 -82 -35l-56 -6q-8 -8 -8 -25q0 -18 13 -26q139 6 227 6h180q82 0 168 -2q86 0 180 -4q41 78 62 227q-4 17 -23 19q-16 2 -31 -11q-20 -61 -45 -94q-26 -33 -59 -51q-63 -27 -162 -25q-84 0 -121 9q-36 6 -51 20q-12 21 -16 61 q-6 39 -6 87v147q-2 31 6 41q6 6 33 6h96q80 0 104 -14q23 -19 31 -64l10 -39q10 -8 27 -8q16 0 24 12q-4 80 -4 148q0 63 4 143q-8 12 -24 17q-17 0 -27 -13l-10 -39q-8 -45 -31 -61q-24 -16 -104 -16h-96q-27 0 -33 8q-8 6 -6 33v227q-2 47 12 57q10 8 61 8h90q41 0 95 -6 q53 -8 80 -43q18 -22 36 -98q13 -8 29 -8t25 12q-17 152 -23 209q-41 -6 -190 -6h-291q-49 0 -98 2q-45 0 -93 4q-12 -8 -12 -25q0 -18 8 -26l29 -6q31 -5 49 -11q17 -8 25 -22q12 -29 12 -131v-459z" />
<glyph unicode="f" horiz-adv-x="840" d="M215 215q0 -100 -14 -127q-17 -29 -82 -37l-39 -6q-8 -8 -8 -25q0 -18 12 -26q115 6 209 6q88 0 233 -6q13 8 17 26q0 17 -13 25l-63 6q-64 2 -80 33q-18 31 -16 131v152q-2 30 6 41q6 6 33 6h110q80 0 105 -15q22 -18 30 -63l11 -39q10 -8 26 -8q17 0 25 12 q-4 80 -4 147q0 64 4 144q-8 12 -25 16q-16 0 -26 -12l-11 -39q-8 -45 -30 -61q-25 -17 -105 -17h-110q-27 0 -33 8q-8 7 -6 33v238q-2 53 12 63q14 8 57 8h80q39 0 94 -4q54 -6 80 -45q19 -22 37 -98q12 -12 29 -10q16 0 24 14q-8 152 -10 209q-51 -6 -197 -6h-284 q-49 0 -96 2q-45 0 -88 4q-13 -4 -13 -23q0 -16 8 -28l25 -6q57 -9 74 -35q12 -27 12 -129v-459z" />
<glyph unicode="g" horiz-adv-x="1083" d="M786 133q2 -59 -18 -80q-25 -22 -104 -22q-187 0 -293 118q-111 113 -111 304q0 184 96 294q90 109 252 111q113 0 182 -45q70 -49 109 -170q12 -12 29 -10q16 0 24 12q-16 166 -18 231q-45 11 -117 27q-72 14 -158 14q-161 -2 -272 -43q-111 -43 -180 -118 q-131 -142 -129 -322q0 -80 33 -162q30 -84 94 -149q166 -154 440 -152q119 2 205 25q45 10 76 16q30 6 47 6q14 13 2 29q-35 21 -33 94v58q-2 65 12 86q11 20 49 26l37 8q11 11 11 27q-5 16 -17 25q-80 -6 -174 -6q-98 0 -231 6q-13 -11 -13 -25q0 -16 11 -27l65 -12 q68 -8 84 -31q10 -24 10 -92v-51z" />
<glyph unicode="h" horiz-adv-x="1249" d="M444 496q-47 -2 -61 8q-14 8 -12 45v125q0 53 6 86q4 30 12 45q16 26 78 33l31 6q12 12 12 28q-4 19 -16 23q-105 -6 -201 -6q-92 0 -217 6q-13 -4 -13 -23q0 -16 9 -28l47 -6q65 -5 82 -31q14 -29 14 -133v-459q0 -98 -14 -125q-19 -24 -82 -39l-23 -6q-8 -8 -8 -25 q0 -18 12 -26q95 6 193 6q90 0 225 -6q12 8 16 26q0 17 -12 25l-55 6q-64 6 -80 35q-18 29 -16 129v162q-2 39 12 47q10 6 61 6h361q51 0 63 -6q11 -8 11 -47v-162q0 -100 -15 -127q-16 -29 -82 -37l-39 -6q-8 -8 -8 -25q0 -18 12 -26q115 6 209 6q93 0 217 -6q13 8 17 26 q0 17 -12 25l-48 6q-63 6 -79 35q-19 29 -17 129v459q-2 102 17 131q16 26 79 33l39 6q13 12 13 28q-4 19 -17 23q-114 -6 -209 -6q-94 0 -209 6q-12 -4 -12 -23q0 -16 8 -28l39 -6q66 -7 82 -33q15 -29 15 -131v-125q0 -37 -13 -45q-14 -10 -61 -8h-361z" />
<glyph unicode="i" horiz-adv-x="586" d="M215 215q0 -100 -14 -127q-17 -29 -82 -37l-39 -6q-8 -8 -8 -25q0 -18 12 -26q115 6 209 6t209 -6q12 8 16 26q0 17 -12 25l-39 6q-64 8 -80 37q-18 27 -16 127v459q-2 102 16 131q16 26 80 33l39 6q12 12 12 28q-4 19 -16 23q-115 -6 -209 -6t-209 6q-12 -4 -12 -23 q0 -16 8 -28l39 -6q65 -7 82 -33q14 -29 14 -131v-459z" />
<glyph unicode="j" horiz-adv-x="623" d="M252 145q0 -53 -8 -196q-6 -64 -23 -111q-16 -49 -47 -51q-16 0 -53 23q-41 26 -66 26q-26 0 -43 -31q-18 -28 -20 -59q2 -27 28 -33q25 -8 41 -8q107 2 191 55q82 52 117 131q39 103 39 263v520q0 53 6 86q4 30 12 45q16 26 78 33l30 6q13 12 13 28q-4 19 -17 23 q-104 -6 -200 -6q-90 0 -221 6q-13 -4 -13 -23q0 -16 8 -28l52 -6q65 -2 82 -31q14 -29 14 -133v-529z" />
<glyph unicode="k" horiz-adv-x="1042" d="M215 215q0 -98 -14 -125q-19 -29 -82 -39l-25 -6q-8 -8 -8 -25q0 -18 12 -26q99 6 195 6q94 0 209 -6q12 8 16 26q0 17 -12 25l-39 6q-64 8 -80 37q-18 27 -16 127v143q-2 43 6 62q6 16 28 16q33 -2 68 -45q33 -43 47 -63l184 -224q48 -51 -24 -55l-29 -4q-8 -10 -6 -27 q0 -16 14 -24q101 6 201 6q121 0 201 -6q12 8 16 24q0 17 -12 27l-29 2q-63 8 -102 33q-39 26 -92 90l-256 307q-23 27 -21 43q0 12 29 41l94 90q66 68 111 103q45 32 80 51q32 16 71 24q39 9 68 15q14 12 14 28q-2 19 -18 23q-95 -6 -172 -6q-97 0 -183 6q-14 -4 -14 -23 q-2 -20 10 -28l45 -11q47 -10 -16 -83q-18 -21 -102 -111q-84 -92 -146 -139q-10 -6 -26 -11q-19 -6 -29 -2q-12 11 -10 72v115q-2 104 14 133q16 26 74 31l41 6q14 12 14 28q0 19 -16 23q-111 -6 -205 -6q-96 0 -201 6q-12 -4 -12 -23q0 -16 8 -28l31 -6q65 -7 82 -33 q14 -29 14 -131v-459z" />
<glyph unicode="l" horiz-adv-x="864" d="M215 215q0 -100 -14 -127q-17 -29 -82 -37l-39 -6q-8 -8 -8 -25q0 -18 12 -26q115 6 209 6h168q80 0 162 -2q86 0 180 -4q41 78 61 227q-4 17 -22 19q-17 2 -31 -11q-21 -61 -45 -94q-27 -33 -57 -51q-64 -27 -158 -25q-78 0 -111 11q-35 10 -47 22q-12 17 -16 55 q-6 39 -6 86v441q-2 102 18 129q16 24 78 35l27 6q12 12 12 28q-4 19 -17 23q-100 -6 -196 -6q-94 0 -209 6q-12 -4 -12 -23q0 -16 8 -28l39 -6q65 -7 82 -33q14 -29 14 -131v-459z" />
<glyph unicode="m" horiz-adv-x="1382" d="M494 604q-54 98 -78 164q-29 61 -29 127q-92 -8 -149 -6q-78 0 -158 6q-12 -8 -12 -25q0 -16 8 -26l49 -6q53 -5 74 -29q18 -27 18 -76q0 -117 -6 -299q-10 -184 -23 -280q-4 -52 -18 -72q-16 -23 -66 -31l-43 -6q-10 -8 -10 -25q0 -18 10 -26q99 6 170 6q86 0 168 -6 q13 8 15 26q0 17 -13 25l-67 6q-66 4 -60 156q0 147 5 268q4 49 6 121q0 72 6 84q14 -8 41 -64q24 -57 41 -96l133 -258q28 -53 67 -133q37 -80 54 -139q20 -13 39 0q24 59 75 168q52 108 70 141l125 235q24 46 53 99q31 55 35 57q6 -14 6 -59v-473q0 -60 -8 -80 q-10 -23 -57 -27l-46 -6q-8 -8 -8 -25q0 -16 11 -26q88 6 180 6q86 0 205 -6q12 8 14 26q0 17 -12 25l-60 6q-45 8 -55 37t-12 64q-13 186 -11 514q-2 90 15 129q16 34 84 43l45 6q12 12 12 28q-2 19 -18 23q-93 -6 -168 -6q-49 0 -119 6q-21 -64 -45 -123q-25 -61 -96 -197 l-103 -196q-28 -57 -51 -96q-25 -41 -33 -47q-8 10 -33 57q-26 45 -41 67z" />
<glyph unicode="n" horiz-adv-x="1186" d="M919 336q3 -74 -12 -82q-20 18 -84 86q-63 65 -102 104l-193 199q-133 133 -200 252q-37 -6 -82 -6q-62 -2 -176 6q-13 -6 -13 -23q-2 -16 9 -28l30 -6q41 -9 76 -29q31 -21 39 -47q4 -29 4 -80v-367q0 -147 -14 -202q-15 -58 -56 -62l-61 -6q-10 -8 -10 -25 q0 -18 12 -26q94 6 170 6q80 0 182 -6q13 10 17 26q0 15 -13 25l-65 6q-53 2 -72 60q-16 55 -16 204v271q-2 88 8 86q41 -35 158 -158l311 -332q174 -186 190 -209q31 -2 43 19v47v35q-4 16 -4 35q-2 81 -2 120v344q0 152 17 209q14 56 53 56l61 6q13 10 13 26q-2 17 -15 25 q-90 -6 -170 -6q-78 0 -182 6q-12 -8 -12 -25q0 -16 8 -26l65 -6q58 -2 74 -58q14 -55 14 -207v-237z" />
<glyph unicode="o" horiz-adv-x="1159" d="M584 917q-226 -2 -363 -137q-141 -133 -143 -344q0 -196 135 -327q131 -134 371 -138q223 2 358 138q137 131 139 339q0 195 -123 330q-125 137 -374 139zM569 858q170 -4 252 -137q78 -129 78 -303q-2 -207 -92 -297q-90 -92 -213 -90q-176 4 -254 141q-82 133 -80 297 q2 215 100 305q48 45 101 66q53 18 108 18z" />
<glyph unicode="p" horiz-adv-x="913" d="M215 215q0 -100 -14 -127q-17 -27 -82 -37l-31 -6q-8 -8 -8 -25q0 -18 12 -26q105 6 201 6q92 0 217 -6q12 8 16 26q0 17 -12 25l-47 6q-64 6 -80 35q-18 29 -16 129v551q-2 43 12 57q12 13 72 13q219 -3 223 -209q0 -195 -191 -234q-12 -16 2 -37q70 -6 187 31 q61 21 114 76q54 55 56 157q0 56 -17 99q-16 41 -41 67q-24 31 -53 50q-26 16 -55 24q-80 33 -246 35q-160 0 -328 -12q-12 -4 -12 -23q-2 -20 10 -29l62 -10q35 -2 43 -37q6 -37 6 -135v-434z" />
<glyph unicode="q" horiz-adv-x="1159" d="M584 917q-226 -2 -363 -137q-141 -133 -143 -344q2 -192 123 -315q114 -123 295 -144q45 -4 75 -36q47 -52 117 -107q70 -57 141 -96q131 -62 248 -62q49 3 101 15q51 12 81 35q13 16 -8 26q-24 -14 -88 -16q-33 0 -117 22q-79 33 -159 99q-82 65 -135 116q-15 15 -11 25 q154 43 246 162t94 288q0 195 -123 330q-125 137 -374 139zM569 858q170 -4 252 -137q78 -129 78 -303q-2 -207 -92 -297q-90 -92 -213 -90q-176 4 -254 141q-82 133 -80 297q2 215 100 305q48 45 101 66q53 18 108 18z" />
<glyph unicode="r" horiz-adv-x="995" d="M215 215q0 -100 -14 -127q-17 -27 -82 -37l-31 -6q-12 -8 -10 -25q0 -18 14 -26q105 6 201 6q92 0 217 -6q12 8 16 26q0 17 -12 25l-47 6q-64 6 -80 35q-18 29 -16 129v145q0 21 10 29q8 4 47 4q25 0 47 -6q23 -8 35 -27q70 -110 149 -221q119 -157 287 -153q59 0 86 10 q12 14 0 33q-51 0 -108 43q-50 43 -115 120q-68 80 -145 207q-11 17 0 31q65 21 122 72q58 51 60 147q0 82 -33 131q-35 49 -92 74q-55 27 -127 35q-72 6 -146 6q-169 0 -339 -12q-15 -7 -13 -25q0 -20 13 -27l57 -8q35 -2 43 -37q6 -36 6 -137v-434zM371 778q-2 39 18 49 q19 9 72 9q108 -3 164 -58q51 -55 51 -135q-2 -199 -203 -195q-70 -2 -86 9q-18 8 -16 43v278z" />
<glyph unicode="s" horiz-adv-x="766" d="M401 371q88 -43 117 -92q27 -50 27 -101q0 -72 -45 -108q-47 -39 -127 -39q-49 0 -92 26q-43 23 -74 58q-66 73 -78 135q-10 14 -27 14q-18 -2 -26 -18q0 -80 16 -133q14 -56 27 -78q22 -17 84 -37q59 -25 151 -27q156 2 244 72q88 68 90 188q-2 105 -53 168 q-53 66 -113 92l-127 66q-61 33 -98 72q-39 37 -39 90q0 55 39 96t127 43q90 -2 135 -59q25 -25 37 -58q12 -30 18 -59q11 -8 31 -8q19 0 23 12q0 141 -29 201q-51 10 -92 20q-45 10 -99 10q-319 -8 -321 -253q2 -84 55 -146q51 -61 127 -100z" />
<glyph unicode="t" horiz-adv-x="958" d="M405 215q0 -100 -14 -129q-16 -29 -82 -35l-55 -6q-8 -8 -8 -25q0 -18 12 -26q129 6 225 6q99 0 226 -6q12 8 16 26q0 17 -12 25l-56 6q-63 6 -80 35q-18 29 -16 129v561q0 39 10 47q9 6 35 6h70q92 2 137 -24q45 -27 53 -125q8 -10 27 -10q16 0 24 12q-2 61 5 131 q4 68 16 109q-12 16 -37 6q-10 -27 -29 -31q-22 -8 -77 -8h-570q-59 -2 -84 6q-26 4 -28 33q-7 6 -17 6q-12 0 -20 -6q-19 -92 -56 -242q17 -27 52 -10q34 104 86 131q51 24 141 22h63q31 0 39 -6q4 -8 4 -47v-561z" />
<glyph unicode="u" horiz-adv-x="1126" d="M197 346q-2 -199 88 -289q94 -86 290 -86q383 2 381 400v202q0 152 17 209q14 56 53 56l61 6q13 10 13 26q-2 17 -15 25q-90 -6 -170 -6q-82 0 -172 6q-12 -8 -12 -25q0 -16 8 -26l43 -6q66 -5 84 -60q17 -55 17 -205v-190q0 -154 -62 -246q-63 -96 -203 -96 q-145 0 -204 96q-64 92 -62 248v289q-2 102 17 131q16 26 79 33l39 6q13 12 13 28q-4 19 -17 23q-114 -6 -209 -6q-96 0 -198 6q-13 -4 -13 -23q0 -16 9 -28l28 -6q64 -9 82 -35q15 -27 15 -129v-328z" />
<glyph unicode="v" horiz-adv-x="991" d="M405 156q41 -90 68 -176q12 -9 25 -9q16 0 24 9q45 126 146 348l155 333q47 103 72 136q16 18 31 26q16 6 36 8l58 13q12 10 8 26q-2 17 -18 25q-23 -2 -60 -2q-37 -4 -86 -4q-80 0 -168 6q-12 -8 -12 -25q-4 -16 8 -26l33 -6q45 -9 55 -23q8 -14 -6 -47 q-43 -121 -121 -295q-55 -129 -114 -258q-43 94 -117 260l-100 227q-33 76 -31 105q0 26 39 31l43 6q14 10 14 26q0 17 -14 25q-92 -6 -199 -6q-100 0 -184 6q-10 -8 -10 -25q0 -16 8 -26l67 -17q35 -4 56 -30q20 -29 63 -127z" />
<glyph unicode="w" horiz-adv-x="1450" d="M416 195q18 -33 51 -101q33 -69 47 -114q12 -9 25 -9q16 0 24 9q23 49 78 161q55 111 106 215q31 -47 95 -182q61 -135 84 -194q12 -9 24 -9q17 0 25 9q57 129 117 262l194 419q45 101 70 134q24 30 67 36l58 13q12 8 12 26q0 17 -14 25q-82 -6 -154 -6q-76 0 -154 6 q-10 -10 -10 -23q0 -16 10 -28l41 -6q43 -2 41 -25q-4 -23 -41 -109l-145 -339q-66 -152 -82 -185q-25 53 -88 176l-55 113q-13 29 -13 43t13 33q49 90 106 190q21 37 45 66q25 28 72 37l35 6q12 8 12 26q-2 17 -14 25q-60 -6 -142 -6q-90 0 -139 6q-12 -8 -12 -25 q-2 -18 10 -26l37 -6q35 -5 43 -15q6 -10 -10 -47l-35 -76q-29 -61 -62 -120q-24 49 -73 153l-19 39q-14 35 -12 49q4 12 31 17l24 6q13 8 13 26q-2 17 -15 25q-63 -6 -155 -6q-91 0 -158 6q-12 -8 -12 -25q0 -18 8 -26l37 -6q34 -5 55 -17q18 -12 33 -43l149 -305 q13 -22 13 -35q0 -14 -13 -35l-35 -73q-55 -111 -75 -150q-25 47 -76 148l-191 381q-18 38 -28 63q-13 25 -15 37q-4 22 35 29l27 6q10 10 12 26q0 17 -14 25q-94 -6 -180 -6q-78 0 -154 6q-12 -8 -12 -25q0 -16 8 -26l43 -13q39 -8 61 -26q21 -21 35 -55z" />
<glyph unicode="x" horiz-adv-x="983" d="M211 154q-27 -37 -64 -66q-38 -29 -94 -37l-63 -6q-13 -8 -8 -25q0 -18 12 -26q90 6 168 6q80 0 182 -6q16 8 16 26q0 17 -12 25l-31 6q-69 8 -34 58l102 147q31 43 47 68q19 24 33 41q24 -25 82 -109l100 -139q29 -35 25 -47q-4 -11 -47 -19l-35 -6q-13 -8 -8 -25 q2 -18 14 -26q100 6 199 6q90 0 206 -6q13 8 15 26q0 17 -13 25l-73 10q-60 4 -133 99l-222 299q-18 24 -16 41q0 14 23 38l168 207q26 37 59 62q31 26 74 32l63 11q12 10 12 26q0 17 -14 25q-90 -6 -154 -6q-65 0 -167 6q-15 -8 -15 -25q0 -18 15 -26l32 -6q62 -11 27 -54 l-100 -141q-45 -66 -74 -100q-29 34 -76 100l-94 127q-21 31 -19 47q5 14 31 21l31 6q14 12 14 28q-2 19 -18 23q-64 -6 -180 -6q-80 0 -187 6q-12 -8 -12 -25q-2 -18 8 -26l49 -11q49 -8 74 -24q23 -16 53 -62l211 -280q21 -23 21 -37t-23 -43z" />
<glyph unicode="y" horiz-adv-x="897" d="M373 195q0 -86 -15 -111q-16 -27 -82 -33l-51 -6q-8 -8 -8 -25q0 -18 12 -26q131 6 222 6q90 0 221 -6q12 8 16 26q0 17 -12 25l-51 6q-64 6 -80 33q-19 25 -17 111v110q-2 43 13 78q12 37 65 119l127 205q45 73 70 98q24 22 67 28l49 11q13 12 13 28q-4 19 -17 23 q-82 -6 -145 -6q-68 0 -156 6q-14 -8 -14 -25q-2 -16 10 -26l43 -6q68 -2 15 -82l-82 -150q-52 -92 -99 -170q-45 80 -92 170l-76 146q-24 47 -18 63q4 18 37 23l29 6q14 10 14 26q-4 17 -16 25q-91 -6 -175 -6q-98 0 -188 6q-12 -4 -12 -23q-2 -16 6 -28l53 -11 q39 -4 64 -26q24 -23 53 -84l149 -277q39 -65 50 -96q8 -33 8 -78v-77z" />
<glyph unicode="z" horiz-adv-x="965" d="M205 195q-33 -46 -76 -95q-41 -51 -66 -73q-10 -19 7 -33q43 6 155 6h359q106 0 180 -2q76 0 119 -4q10 14 18 39q10 24 16 55q17 64 27 143q-4 11 -20 19q-19 4 -33 -8q-19 -62 -43 -99q-29 -37 -60 -51q-63 -35 -235 -33q-162 0 -207 7q-47 4 -45 18q0 8 21 37 q18 26 43 57q53 70 71 94l236 322q157 207 227 270q6 10 2 21q-6 6 -16 10q-39 -6 -150 -6h-416q-55 -2 -90 6q-37 6 -37 35q-4 10 -14 10q-12 0 -20 -12q-17 -109 -60 -254q8 -13 27 -17q16 -2 27 7q36 106 94 139q55 28 168 26h186q45 0 53 -8q6 -10 -12 -35 q-64 -88 -129 -176z" />
<glyph unicode="{" horiz-adv-x="655" d="M442 768q-2 106 -18 211q-21 106 -21 205q-2 63 31 120q31 56 141 76q17 21 0 41q-81 2 -180 -37q-47 -24 -78 -75q-32 -54 -32 -146q2 -106 16 -217q12 -110 14 -205q0 -24 -2 -51q-4 -29 -22 -53q-15 -25 -51 -41q-39 -19 -103 -25q-14 -22 0 -45q64 -4 103 -20 q36 -17 51 -41q18 -25 22 -53q2 -27 2 -56q0 -94 -14 -202q-16 -111 -16 -220q0 -88 32 -139q31 -51 78 -78q47 -24 96 -32q48 -9 84 -9q9 11 9 23t-9 18q-55 11 -88 33q-34 19 -53 47q-33 56 -31 117q2 100 21 205q16 106 18 211q2 176 -153 215v8q155 41 153 215z" />
<glyph unicode="|" horiz-adv-x="489" d="M305 1536h-121v-2048h121v2048z" />
<glyph unicode="}" horiz-adv-x="655" d="M213 768q-2 -174 154 -215v-8q-156 -39 -154 -215q2 -105 18 -211q19 -105 21 -205q2 -61 -29 -117q-33 -57 -143 -80q-6 -6 -6 -18t6 -23q86 -2 184 41q47 27 78 78q29 51 29 139q-2 109 -17 220q-14 108 -14 202q0 29 6 56q2 28 21 53q30 49 151 61q16 23 0 45 q-61 6 -98 25q-35 16 -53 41q-19 24 -21 53q-6 27 -6 51q0 95 14 205q15 111 17 217q0 92 -29 146q-31 51 -78 75q-43 25 -94 33q-25 4 -45 4h-45q-6 -8 -6 -18q0 -13 6 -23q59 -10 92 -28q33 -19 51 -48q31 -57 29 -120q-2 -99 -21 -205q-18 -105 -18 -211z" />
<glyph unicode="~" d="M659 369q66 -2 115 39q35 34 59 90q25 53 35 77q-6 25 -26 31q-19 6 -41 -2q-33 -76 -70 -104q-37 -29 -113 -29h-253q-64 2 -117 -43q-29 -35 -56 -84q-26 -51 -36 -80q6 -22 28 -28q21 -7 39 0q21 40 39 67q14 25 33 39q35 27 110 27h254z" />
<glyph unicode="&#xa1;" horiz-adv-x="451" d="M225 -545q51 0 76 13q25 12 25 47q0 32 -15 182l-59 661q-8 11 -25 11q-16 0 -28 -11l-60 -661q-14 -150 -14 -182q0 -64 100 -60zM225 573q54 0 84 33q31 31 31 80q0 51 -31 86q-30 35 -84 35q-49 0 -82 -33q-32 -35 -32 -88q0 -51 36 -80q33 -33 78 -33z" />
<glyph unicode="&#xa2;" horiz-adv-x="836" d="M418 147q-88 39 -135 117q-50 80 -50 174q3 158 78 238q74 80 183 84zM563 756q90 -19 144 -76q16 -21 32 -21q25 2 27 72q-2 49 -35 78q-78 16 -160 16l17 131q-8 15 -33 15t-37 -15l-16 -135q-170 -14 -293 -123q-125 -108 -127 -303q6 -303 321 -356l-22 -172 q12 -12 39 -12q24 0 33 12l20 166q96 -2 182 37q84 36 148 120q2 33 -31 35q-72 -100 -229 -102q-31 0 -58 6z" />
<glyph unicode="&#xa3;" d="M612 641q-24 0 -30 6q-9 6 -11 25q-24 182 -18 364q8 105 53 154q43 47 92 47q62 0 103 -21q39 -20 75 -67q19 -21 29 -19q23 0 41 29q16 23 19 43q0 47 -25 72q-33 33 -162 37q-168 -2 -272 -123q-107 -121 -107 -316q0 -92 4 -137q5 -47 5 -63q4 -21 -3 -25 q-6 -6 -26 -6h-187q-12 -10 -12 -31q0 -22 12 -35h189q24 0 29 -4q4 -6 4 -24q0 -53 -4 -109q-7 -59 -25 -114q-18 -56 -51 -99q-35 -45 -90 -73q-111 -35 -152 -70q-43 -37 -41 -72q0 -18 17 -28q12 -11 30 -11q23 2 64 19q20 10 33 18q12 10 12 19q0 22 22 43q19 16 50 18 q67 -4 180 -65q57 -25 118 -46q62 -22 127 -22q127 2 218 70q43 30 67 67q23 39 23 76q0 39 -19 65q-20 27 -55 27q-55 0 -49 -72q12 -49 -2 -96q-13 -49 -82 -51q-76 2 -185 53q-49 23 -96 41q-49 19 -84 23q-53 4 -94 -2v8q221 131 225 383q-2 30 43 28h248q14 13 14 35 q0 21 -14 31h-250z" />
<glyph unicode="&#xa4;" d="M514 1010q133 -2 227 -99q97 -98 99 -245q-2 -148 -99 -244q-94 -98 -227 -100q-131 2 -225 98q-99 96 -101 246q2 147 99 245q94 97 227 99zM514 1104q-145 0 -256 -82l-84 104q-35 -10 -63 -37q-29 -26 -37 -61l92 -92q-94 -113 -94 -270q0 -158 94 -271l-92 -92 q8 -31 37 -57q28 -29 63 -41l84 104q111 -82 256 -82t256 82l84 -104q39 12 68 41q28 26 32 57l-92 92q92 113 94 271q-2 157 -94 270l92 92q-4 35 -32 61q-29 27 -68 37l-84 -104q-111 82 -256 82z" />
<glyph unicode="&#xa5;" d="M919 428q13 12 13 35q0 20 -13 31h-305q-2 79 6 112l15 53h284q13 13 13 35q0 21 -13 31h-253l161 311q39 80 82 137q41 56 86 66l49 10q9 10 9 25q0 12 -13 18q-75 -6 -153 -6q-99 0 -193 6q-12 -4 -12 -18q-2 -15 6 -25l78 -14q47 -6 47 -37q-2 -14 -31 -84 q-32 -72 -71 -147l-93 -185q-41 -94 -53 -94q-16 6 -67 125l-113 242q-10 26 -35 82q-26 53 -28 67q-3 23 40 31l78 14q8 10 8 25q0 14 -12 18q-67 -6 -194 -6q-138 0 -222 6q-12 -6 -12 -20q0 -13 6 -23l43 -10q58 -10 88 -43q31 -35 70 -121l180 -350h-243 q-11 -10 -11 -31q0 -22 11 -35h274l18 -41q15 -38 15 -124h-307q-11 -11 -11 -31q0 -23 11 -35h311v-176v-94q-2 -37 -10 -60q-17 -43 -78 -49l-76 -8q-8 -8 -6 -23q0 -16 10 -24q123 6 229 6q117 0 238 -6q12 8 14 24q0 15 -10 23l-76 8q-59 4 -73 47q-17 41 -15 156v176 h309z" />
<glyph unicode="&#xa6;" horiz-adv-x="489" d="M305 1382h-121v-716h121v716zM305 358h-121v-716h121v716z" />
<glyph unicode="&#xa7;" horiz-adv-x="1036" d="M379 -254q248 6 399 193q154 178 156 378q0 256 -252 478q-160 147 -225 229q-68 82 -66 154q0 59 37 92q35 30 84 30q70 0 168 -59q20 -16 57 -16q31 0 49 22q19 21 19 43q0 31 -35 62q-37 30 -123 32q-223 -6 -381 -174q-162 -168 -164 -362q2 -158 80 -273 q76 -116 187 -223q94 -88 186 -192q43 -54 72 -103q26 -51 26 -98q-2 -61 -45 -92q-47 -35 -96 -35q-37 0 -76 14q-43 15 -98 58q-19 18 -51 18q-33 0 -51 -22q-21 -23 -21 -52q0 -43 47 -71q45 -29 117 -31zM461 459q-176 184 -219 299q-25 59 -31 104q-8 43 -8 76 q0 76 28 127q29 51 78 92q-2 -119 58 -215q57 -98 217 -250q120 -110 186 -219q63 -106 63 -246q0 -61 -18 -121q-20 -61 -80 -116q0 121 -59 221q-64 100 -215 248z" />
<glyph unicode="&#xa8;" horiz-adv-x="737" d="M178 1014q90 2 94 100q0 37 -24 66q-25 26 -70 26q-43 0 -69 -26q-29 -29 -27 -72q2 -94 96 -94zM563 1014q90 2 92 100q0 37 -24 66q-25 26 -68 26t-69 -26q-29 -29 -29 -72q4 -94 98 -94z" />
<glyph unicode="&#xa9;" horiz-adv-x="1618" d="M573 684q0 145 74 244q74 98 219 100q187 0 242 -174q10 -6 22 -4q15 0 21 10q-12 107 -25 191q-22 4 -90 18q-69 14 -157 14q-199 -2 -326 -112q-131 -111 -133 -299q0 -154 110 -275q111 -125 336 -127q76 0 150 21q69 16 100 26q21 37 37 97q16 57 18 100 q-16 23 -41 6q-36 -88 -98 -139q-63 -55 -153 -55q-138 0 -220 100q-86 96 -86 258zM809 -33q317 4 514 209q199 201 203 500q-4 303 -203 504q-197 200 -514 204q-313 -4 -510 -204q-205 -201 -207 -504q2 -299 207 -500q197 -205 510 -209zM209 678q2 270 174 446 q166 176 426 180q262 -4 430 -180t170 -446q-2 -270 -170 -447q-168 -182 -430 -184q-260 2 -426 184q-172 177 -174 447z" />
<glyph unicode="&#xaa;" horiz-adv-x="680" d="M412 876q0 -16 -7 -28q-8 -10 -38 -23q-72 -22 -220 -78q-32 -12 -55 -40q-24 -31 -24 -72q0 -58 38 -98q37 -46 117 -46q39 0 84 21q43 16 60 27q20 12 32 12q15 0 31 -19q49 -43 94 -41q76 0 148 66q6 10 2 20q-6 9 -19 9q-28 -21 -59 -21q-43 0 -57 33q-15 33 -13 82 l11 250q6 80 -29 127q-37 47 -139 49q-66 -2 -129 -29q-64 -28 -107 -63q-33 -27 -47 -52q-14 -24 -14 -43q0 -26 28 -26q43 2 92 35q13 10 17 26q2 17 2 27q6 35 35 49q26 14 57 14q72 -2 92 -43q17 -43 17 -100v-25zM401 647q0 -31 -16 -51q-6 -8 -29 -19q-24 -14 -61 -14 q-51 0 -72 33q-20 29 -20 55q2 58 47 82q41 23 84 33q41 16 59 16q17 -2 12 -28z" />
<glyph unicode="&#xab;" horiz-adv-x="774" d="M385 733q-10 25 -35 27q-117 -154 -244 -307q-28 -31 0 -64q127 -153 244 -309q27 6 35 26l-143 291q-11 23 0 49zM682 733q-10 25 -35 27q-117 -154 -244 -307q-28 -31 0 -64q127 -153 244 -309q27 6 35 26l-143 291q-11 23 0 49z" />
<glyph unicode="&#xac;" d="M836 102h120v523h-888v-101h768v-422z" />
<glyph unicode="&#xad;" horiz-adv-x="655" d="M82 461q-16 -19 -16 -51q-3 -35 30 -66l477 45q17 21 17 51q0 43 -31 66z" />
<glyph unicode="&#xae;" horiz-adv-x="1618" d="M580 483q0 -92 -9 -123q-10 -32 -63 -38l-31 -5q-6 -8 -4 -18q0 -12 8 -20q74 4 164 4q88 0 162 -4q12 8 12 20q0 10 -10 18l-41 5q-43 4 -57 34q-15 31 -13 127v115q0 18 11 22q8 5 41 5q45 0 63 -23q31 -43 61 -94q29 -55 52 -88q59 -82 110 -115q49 -35 127 -35 q43 0 62 6q10 13 0 25q-13 0 -31 6q-19 6 -41 23q-94 90 -223 313q-13 16 -8 31q51 18 100 67q47 49 49 127q0 68 -25 111q-26 41 -67 61q-41 23 -90 31q-25 4 -49 4h-50q-159 0 -309 -8q-10 -6 -10 -16q0 -11 6 -21l31 -4q53 -2 63 -33q9 -31 9 -123v-387zM698 973 q-2 26 11 39q10 8 63 8q84 -2 127 -51q43 -50 43 -115q0 -78 -39 -125q-39 -49 -125 -49q-51 0 -65 8q-17 6 -15 35v250zM809 -33q317 4 514 209q199 201 203 500q-4 303 -203 504q-197 200 -514 204q-313 -4 -510 -204q-205 -201 -207 -504q2 -299 207 -500 q197 -205 510 -209zM209 678q2 270 174 446q166 176 426 180q262 -4 430 -180t170 -446q-2 -270 -170 -447q-168 -182 -430 -184q-260 2 -426 184q-172 177 -174 447z" />
<glyph unicode="&#xaf;" horiz-adv-x="737" d="M614 1073q17 23 17 55q0 29 -17 50h-491q-14 -21 -14 -50q0 -32 14 -55h491z" />
<glyph unicode="&#xb0;" horiz-adv-x="713" d="M356 1311q-112 0 -190 -70q-82 -72 -84 -195q2 -127 84 -194q78 -70 190 -70q117 0 195 70q78 67 80 194q-2 123 -80 195q-78 70 -195 70zM356 1239q70 0 115 -51t45 -142q0 -86 -45 -137q-45 -55 -115 -55q-67 0 -112 55q-47 51 -47 137q0 91 47 142q45 51 112 51z" />
<glyph unicode="&#xb1;" d="M907 100h-788v-100h788v100zM573 172v317h334v101h-334v303h-120v-303h-334v-101h334v-317h120z" />
<glyph unicode="&#xb2;" horiz-adv-x="737" d="M303 604q-27 0 -29 16q-2 13 70 82l115 115q88 88 123 154q32 65 32 129q0 94 -63 153q-64 58 -178 58q-197 -2 -285 -195q0 -12 14 -18q13 -6 25 0q72 127 184 129q150 -4 154 -172q-2 -97 -62 -185q-59 -90 -127 -155q-131 -133 -213 -181q-4 -8 -4 -18q0 -8 11 -14 q41 4 153 4h148q125 0 231 -4q21 20 39 63q18 45 41 99q-14 24 -39 14q-33 -47 -78 -62q-45 -14 -117 -12h-145z" />
<glyph unicode="&#xb3;" horiz-adv-x="737" d="M520 735q-4 -123 -84 -188q-80 -66 -149 -66q-45 0 -66 37q-8 21 -24 37q-19 16 -43 16q-66 -2 -68 -65q2 -45 49 -62q43 -18 96 -18q56 0 134 27q38 12 81 34q41 19 80 47q142 109 142 252q-2 93 -60 146q-57 49 -141 49q-29 0 -16 20q88 43 120 82q29 39 29 82 q0 62 -53 103t-144 43q-180 -4 -264 -166q6 -23 35 -23q74 117 174 119q103 0 109 -109q-4 -79 -64 -114q-43 -29 -108 -58q-68 -28 -109 -47q-8 -39 27 -55q24 25 61 43q37 16 86 16q92 -2 133 -55q37 -55 37 -127z" />
<glyph unicode="&#xb4;" horiz-adv-x="737" d="M549 1221q35 38 35 61q0 25 -37 55q-37 31 -64 27q-22 -6 -45 -49l-186 -346q6 -27 33 -25z" />
<glyph unicode="&#xb5;" horiz-adv-x="1049" d="M326 643q0 139 6 178q-2 12 -21 15q-71 -29 -219 -37q-10 -4 -10 -19q-2 -16 6 -26l25 -11q45 -14 55 -47q6 -32 6 -127v-1056q0 -62 41 -64q37 2 80 49q20 23 33 43q12 23 12 37q-2 27 -33 107q-35 77 -37 166v116q0 23 6 31q7 6 15 2q16 -6 47 -16q29 -11 67 -13 q105 2 181 41q37 17 67 35q31 19 51 31q19 0 19 -29v-84q8 -12 24 -14q56 31 132 47q75 18 137 29q12 8 12 30q0 21 -10 29q-43 -10 -80 -10q-41 0 -51 53q-15 51 -13 170v344q0 117 7 178q-2 12 -19 15q-37 -15 -104 -25q-70 -8 -135 -12q-13 -6 -13 -21q0 -16 10 -24 l27 -11q25 -8 39 -14q16 -8 25 -25q12 -26 12 -122v-346q0 -41 -8 -66q-13 -25 -33 -43q-35 -27 -78 -43q-43 -18 -88 -18q-57 0 -94 18q-37 16 -57 47q-41 64 -39 170v342z" />
<glyph unicode="&#xb6;" d="M750 1149q-3 76 16 100q18 25 92 35l80 14q10 9 10 23t-10 20q-62 11 -248 11q-264 0 -414 -109q-155 -111 -155 -330q2 -186 145 -297q137 -114 342 -114q19 0 27 -13q8 -14 8 -53v-309q0 -80 -10 -129q-10 -51 -29 -80q-16 -27 -35 -39q-20 -12 -39 -12q-28 0 -47 18 q-20 17 -20 45q0 31 12 47q10 15 16 23q-8 27 -36 45q-33 16 -68 16q-16 -6 -37 -32q-22 -27 -22 -74q2 -82 61 -115q57 -35 119 -35q82 3 133 39q49 35 72 93q24 59 32 126q5 70 5 136v950z" />
<glyph unicode="&#xb8;" horiz-adv-x="737" d="M397 0l-110 -170v-8q51 -21 86 -55q32 -35 32 -72q0 -35 -16 -49q-16 -15 -35 -15q-18 2 -43 31q-12 12 -24 23q-15 6 -31 6q-23 0 -35 -17q-12 -16 -12 -32q0 -62 108 -66q78 2 136 49q57 45 59 117q-4 84 -88 133q-31 21 -14 45l55 80h-68z" />
<glyph unicode="&#xb9;" horiz-adv-x="737" d="M313 682q0 -74 -10 -100q-12 -25 -76 -33l-35 -4q-6 -6 -6 -21q0 -16 9 -22q90 4 180 4q96 0 188 -4q10 6 10 22q0 15 -8 21l-35 4q-59 8 -71 33q-17 26 -15 100v469q0 80 4 149q-2 11 -14 11q-41 -17 -102 -35q-62 -21 -148 -37q-6 -6 -6 -18q0 -13 8 -21l64 -6 q45 -2 55 -31q8 -26 8 -86v-395z" />
<glyph unicode="&#xba;" horiz-adv-x="793" d="M403 1106q-147 -2 -239 -88q-96 -86 -98 -228q2 -133 92 -215q90 -84 233 -84q156 3 246 91q88 86 90 223q-2 135 -92 217t-232 84zM387 1053q53 0 90 -25q37 -27 57 -68q41 -88 41 -178q0 -82 -34 -155q-19 -35 -52 -58q-34 -24 -84 -24q-98 2 -143 86q-45 82 -45 180 q0 111 51 176q47 64 119 66z" />
<glyph unicode="&#xbb;" horiz-adv-x="774" d="M236 446q10 -26 0 -49l-144 -291q8 -20 35 -26q117 156 244 309q28 33 0 64q-127 153 -244 307q-23 -2 -35 -27zM532 446q11 -26 0 -49l-143 -291q8 -20 35 -26q117 156 244 309q28 33 0 64q-127 153 -244 307q-23 -2 -35 -27z" />
<glyph unicode="&#xbc;" horiz-adv-x="1597" d="M283 -29q4 -51 55 -53q444 688 901 1374q-25 47 -64 47q-440 -684 -892 -1368zM225 682q0 -74 -10 -100q-12 -25 -76 -33l-35 -4q-6 -6 -6 -21q0 -16 8 -22q91 4 181 4q96 0 188 -4q10 6 10 22q0 15 -8 21l-35 4q-59 8 -71 33q-17 26 -15 100v469q0 80 4 149 q-2 11 -14 11q-41 -17 -102 -35q-62 -21 -148 -37q-6 -6 -6 -18q0 -13 8 -21l64 -6q45 -2 55 -31q8 -26 8 -86v-395zM973 297q-64 -4 -37 25l422 540q4 6 4 12q-2 11 -45 11q-27 0 -43 -25l-436 -561q-21 -23 -19 -41q0 -20 19 -20h317q27 0 35 -5q4 -8 4 -32v-25 q0 -80 -10 -102q-13 -25 -74 -31l-37 -4q-6 -10 -4 -23q0 -12 8 -20q55 4 182 4q121 0 177 -4q10 8 10 20q0 13 -6 23l-37 4q-58 4 -70 29q-12 22 -10 104v29q0 20 8 28q4 5 31 5h67q13 10 13 30q0 21 -13 29h-75q-19 0 -25 6t-6 23v235q0 19 -2 31q-2 8 -21 8 q-55 -2 -94 -23q-14 -10 -12 -24v-223q0 -21 -4 -27q-8 -6 -33 -6h-184z" />
<glyph unicode="&#xbd;" horiz-adv-x="1597" d="M266 -29q4 -51 56 -53q444 688 901 1374q-25 47 -64 47q-440 -684 -893 -1368zM240 682q0 -74 -11 -100q-12 -25 -75 -33l-35 -4q-6 -6 -6 -21q0 -16 8 -22q90 4 180 4q96 0 188 -4q11 6 11 22q0 15 -9 21l-34 4q-60 8 -72 33q-16 26 -14 100v469q0 80 4 149 q-2 11 -15 11q-41 -17 -102 -35q-61 -21 -147 -37q-7 -6 -7 -18q0 -13 9 -21l63 -6q45 -2 55 -31q9 -26 9 -86v-395zM1153 98q-27 0 -29 17q-2 12 70 82l115 114q88 88 122 154q33 65 33 129q0 94 -63 153q-64 58 -178 58q-197 -2 -285 -195q0 -12 14 -18q13 -6 25 0 q72 127 184 129q150 -4 154 -172q-2 -96 -62 -184q-59 -91 -127 -156q-131 -133 -213 -180q-4 -9 -4 -19q0 -8 10 -14q41 4 154 4h148q124 0 231 -4q20 20 39 63q18 45 41 99q-15 24 -39 14q-33 -47 -78 -61q-45 -15 -117 -13h-145z" />
<glyph unicode="&#xbe;" horiz-adv-x="1597" d="M354 -29q4 -51 56 -53q444 688 901 1374q-25 47 -64 47q-440 -684 -893 -1368zM510 735q-4 -123 -84 -188q-80 -66 -150 -66q-45 0 -65 37q-8 21 -25 37q-18 16 -43 16q-65 -2 -67 -65q2 -45 49 -62q43 -18 96 -18q55 0 133 27q39 12 82 34q41 19 80 47q141 109 141 252 q-2 93 -59 146q-57 49 -141 49q-29 0 -17 20q88 43 121 82q29 39 29 82q0 62 -53 103q-54 41 -144 43q-180 -4 -264 -166q6 -23 35 -23q74 117 174 119q102 0 108 -109q-4 -79 -63 -114q-43 -29 -109 -58q-67 -28 -108 -47q-8 -39 26 -55q25 25 62 43q37 16 86 16 q92 -2 133 -55q37 -55 37 -127zM1014 297q-64 -4 -37 25l422 540q4 6 4 12q-2 11 -45 11q-27 0 -43 -25l-436 -561q-21 -23 -19 -41q0 -20 19 -20h317q27 0 35 -5q4 -8 4 -32v-25q0 -80 -10 -102q-13 -25 -74 -31l-37 -4q-6 -10 -4 -23q0 -12 8 -20q55 4 182 4q121 0 177 -4 q10 8 10 20q0 13 -6 23l-37 4q-58 4 -70 29q-12 22 -10 104v29q0 20 8 28q4 5 31 5h67q13 10 13 30q0 21 -13 29h-75q-19 0 -25 6t-6 23v235q0 19 -2 31q-2 8 -21 8q-55 -2 -94 -23q-14 -10 -12 -24v-223q0 -21 -4 -27q-8 -6 -33 -6h-184z" />
<glyph unicode="&#xbf;" horiz-adv-x="657" d="M444 -545q41 2 62 25q20 22 20 53q-2 41 -26 64q-23 22 -41 22q-80 0 -137 14q-58 13 -101 52q-24 28 -33 61q-12 33 -12 64q-2 81 113 149l100 53q47 23 80 56q29 32 31 92q-2 49 -25 108q-27 58 -49 94q-10 11 -23 7q-12 -4 -20 -17q18 -65 20 -119q0 -53 -71 -90 l-162 -86q-23 -10 -49 -53q-29 -45 -29 -131q2 -168 115 -289q108 -125 237 -129zM401 573q54 0 84 33q31 31 31 80q0 51 -31 86q-30 35 -84 35q-49 0 -82 -33q-32 -35 -32 -88q0 -51 37 -80q32 -33 77 -33z" />
<glyph unicode="&#xc0;" horiz-adv-x="1276" d="M924 197q26 -74 26 -109q-2 -31 -71 -37l-60 -6q-8 -8 -8 -25q0 -18 12 -26q88 6 236 6q131 0 248 -6q10 8 10 26q2 17 -10 25l-56 6q-61 6 -96 47q-35 43 -78 170l-280 824q-23 67 -45 139q-25 67 -45 135q-9 18 -31 18q-17 -20 -41 -43q-29 -22 -66 -34q8 -41 -35 -146 l-208 -553q-127 -329 -181 -456q-22 -54 -53 -74q-31 -25 -69 -27l-68 -6q-8 -8 -6 -25q0 -18 10 -26q90 6 197 6q139 -2 213 -6q14 8 16 26q0 17 -12 25l-68 6q-35 2 -47 15q-12 8 -12 26q0 33 45 170l71 215q11 33 27 43q14 6 51 6h310q45 0 61 -6q14 -12 22 -45z M557 1014q18 47 33 82q12 32 16 39h4q10 -19 23 -54q12 -37 24 -76l111 -333q16 -39 8 -52q-8 -14 -53 -12h-252q-41 0 -47 8q-8 9 4 41zM698 1415q25 8 19 37l-320 244q-32 26 -55 26q-25 -2 -51 -47q-27 -43 -17 -63q13 -19 54 -35z" />
<glyph unicode="&#xc1;" horiz-adv-x="1276" d="M924 197q26 -74 26 -109q-2 -31 -71 -37l-60 -6q-8 -8 -8 -25q0 -18 12 -26q88 6 236 6q131 0 248 -6q10 8 10 26q2 17 -10 25l-56 6q-61 6 -96 47q-35 43 -78 170l-280 824q-23 67 -45 139q-25 67 -45 135q-9 18 -31 18q-17 -20 -41 -43q-29 -22 -66 -34q8 -41 -35 -146 l-208 -553q-127 -329 -181 -456q-22 -54 -53 -74q-31 -25 -69 -27l-68 -6q-8 -8 -6 -25q0 -18 10 -26q90 6 197 6q139 -2 213 -6q14 8 16 26q0 17 -12 25l-68 6q-35 2 -47 15q-12 8 -12 26q0 33 45 170l71 215q11 33 27 43q14 6 51 6h310q45 0 61 -6q14 -12 22 -45z M557 1014q18 47 33 82q12 32 16 39h4q10 -19 23 -54q12 -37 24 -76l111 -333q16 -39 8 -52q-8 -14 -53 -12h-252q-41 0 -47 8q-8 9 4 41zM975 1577q43 16 53 35q10 20 -16 63q-11 23 -23 35q-16 12 -29 12q-20 0 -55 -26l-319 -244q-6 -29 20 -37z" />
<glyph unicode="&#xc2;" horiz-adv-x="1276" d="M924 197q26 -74 26 -109q-2 -31 -71 -37l-60 -6q-8 -8 -8 -25q0 -18 12 -26q88 6 236 6q131 0 248 -6q10 8 10 26q2 17 -10 25l-56 6q-61 6 -96 47q-35 43 -78 170l-280 824q-23 67 -45 139q-25 67 -45 135q-9 18 -31 18q-17 -20 -41 -43q-29 -22 -66 -34q8 -41 -35 -146 l-208 -553q-127 -329 -181 -456q-22 -54 -53 -74q-31 -25 -69 -27l-68 -6q-8 -8 -6 -25q0 -18 10 -26q90 6 197 6q139 -2 213 -6q14 8 16 26q0 17 -12 25l-68 6q-35 2 -47 15q-12 8 -12 26q0 33 45 170l71 215q11 33 27 43q14 6 51 6h310q45 0 61 -6q14 -12 22 -45z M557 1014q18 47 33 82q12 32 16 39h4q10 -19 23 -54q12 -37 24 -76l111 -333q16 -39 8 -52q-8 -14 -53 -12h-252q-41 0 -47 8q-8 9 4 41zM356 1444q0 -29 29 -31l242 139q20 13 34 13q13 0 33 -13l246 -139q22 4 25 31l-261 250q-43 41 -88 0z" />
<glyph unicode="&#xc3;" horiz-adv-x="1276" d="M924 197q26 -74 26 -109q-2 -31 -71 -37l-60 -6q-8 -8 -8 -25q0 -18 12 -26q88 6 236 6q131 0 248 -6q10 8 10 26q2 17 -10 25l-56 6q-61 6 -96 47q-35 43 -78 170l-280 824q-23 67 -45 139q-25 67 -45 135q-9 18 -31 18q-17 -20 -41 -43q-29 -22 -66 -34q8 -41 -35 -146 l-208 -553q-127 -329 -181 -456q-22 -54 -53 -74q-31 -25 -69 -27l-68 -6q-8 -8 -6 -25q0 -18 10 -26q90 6 197 6q139 -2 213 -6q14 8 16 26q0 17 -12 25l-68 6q-35 2 -47 15q-12 8 -12 26q0 33 45 170l71 215q11 33 27 43q14 6 51 6h310q45 0 61 -6q14 -12 22 -45z M557 1014q18 47 33 82q12 32 16 39h4q10 -19 23 -54q12 -37 24 -76l111 -333q16 -39 8 -52q-8 -14 -53 -12h-252q-41 0 -47 8q-8 9 4 41zM547 1624q-37 0 -64 -6q-28 -8 -53 -35q-25 -29 -47 -82q-23 -55 -31 -88q13 -20 31 -10q25 47 57 78q39 39 123 39h219q66 -3 103 36 q22 27 47 72q24 41 35 80q-15 20 -35 8q-15 -22 -47 -59q-19 -19 -49 -25q-31 -8 -66 -8h-223z" />
<glyph unicode="&#xc4;" horiz-adv-x="1276" d="M924 197q26 -74 26 -109q-2 -31 -71 -37l-60 -6q-8 -8 -8 -25q0 -18 12 -26q88 6 236 6q131 0 248 -6q10 8 10 26q2 17 -10 25l-56 6q-61 6 -96 47q-35 43 -78 170l-280 824q-23 67 -45 139q-25 67 -45 135q-9 18 -31 18q-17 -20 -41 -43q-29 -22 -66 -34q8 -41 -35 -146 l-208 -553q-127 -329 -181 -456q-22 -54 -53 -74q-31 -25 -69 -27l-68 -6q-8 -8 -6 -25q0 -18 10 -26q90 6 197 6q139 -2 213 -6q14 8 16 26q0 17 -12 25l-68 6q-35 2 -47 15q-12 8 -12 26q0 33 45 170l71 215q11 33 27 43q14 6 51 6h310q45 0 61 -6q14 -12 22 -45z M557 1014q18 47 33 82q12 32 16 39h4q10 -19 23 -54q12 -37 24 -76l111 -333q16 -39 8 -52q-8 -14 -53 -12h-252q-41 0 -47 8q-8 9 4 41zM459 1448q47 0 73 31q27 28 27 75q0 43 -27 72q-26 29 -73 31q-47 -2 -76 -31q-29 -31 -27 -78q0 -49 31 -74q29 -26 72 -26zM864 1448 q47 0 74 31q24 28 24 75q0 43 -24 72q-27 29 -74 31q-47 -2 -76 -31q-28 -31 -28 -78q0 -49 30 -74q29 -26 74 -26z" />
<glyph unicode="&#xc5;" horiz-adv-x="1276" d="M545 1511q0 58 32 92q29 35 76 35q49 0 80 -35q29 -34 29 -92q0 -55 -29 -90q-31 -37 -80 -37q-47 0 -76 37q-32 35 -32 90zM750 526q45 0 61 -6q14 -12 22 -45l91 -278q26 -74 26 -109q-2 -31 -71 -37l-60 -6q-8 -8 -8 -25q0 -18 12 -26q88 6 236 6q131 0 248 -6 q10 8 10 26q2 17 -10 25l-56 6q-61 6 -96 47q-35 43 -78 170l-280 824q-43 124 -80 235q65 23 104 74q37 47 37 110q-2 80 -55 138q-56 55 -150 57q-90 -2 -145 -57q-60 -58 -60 -138q0 -63 41 -114q39 -52 105 -72q-23 -76 -60 -164l-208 -553q-127 -329 -181 -456 q-22 -54 -53 -74q-31 -25 -69 -27l-68 -6q-8 -8 -6 -25q0 -18 10 -26q90 6 197 6q139 -2 213 -6q14 8 16 26q0 17 -12 25l-68 6q-35 2 -47 15q-12 8 -12 26q0 33 45 170l71 215q11 33 27 43q14 6 51 6h310zM557 1014q18 47 33 82q12 32 16 39h4q10 -19 23 -54q12 -37 24 -76 l111 -333q16 -39 8 -52q-8 -14 -53 -12h-252q-41 0 -47 8q-8 9 4 41z" />
<glyph unicode="&#xc6;" horiz-adv-x="1741" d="M743 1352q-114 0 -239 6q-13 -4 -13 -23q-2 -16 7 -28l122 -19q46 -2 46 -24q-2 -31 -50 -117q-190 -375 -497 -944q-43 -84 -76 -113q-33 -31 -68 -35l-63 -10q-12 -8 -10 -25q0 -18 12 -26q106 6 211 6q104 0 225 -6q10 8 12 24q0 17 -10 27l-110 16q-70 2 -31 82 q74 185 207 434q33 62 53 78q20 15 80 13h168q65 0 80 -7q10 -10 10 -53v-301q2 -155 -19 -203q-22 -49 -106 -53l-70 -6q-8 -10 -6 -27q0 -16 10 -24q166 6 273 6h188q139 0 275 -2q137 0 274 -4q55 129 92 285q-6 14 -22 20q-17 4 -29 -6q-84 -164 -145 -199 q-31 -16 -86 -22q-60 -9 -174 -9q-132 0 -183 17q-51 12 -67 31q-39 49 -37 213v288q-2 39 12 49q10 7 55 7h119q117 0 158 -11q31 -6 45 -26q14 -23 18 -51l19 -80q12 -9 28 -9q17 0 25 11q-6 78 -8 196q4 125 8 207q-8 12 -25 12q-16 0 -28 -10l-17 -84q-6 -37 -18 -51 t-31 -20q-41 -13 -174 -13h-119q-45 -2 -55 8q-14 9 -12 50v409q-2 55 8 72q10 10 51 10h148q135 0 198 -10q78 -19 109 -70q29 -53 47 -127q10 -8 27 -6q16 4 24 12q-6 74 -14 158q-8 82 -19 113q-20 -4 -96 -4q-80 -2 -180 -2h-537zM582 739q-58 0 -66 8q-10 9 6 37 q25 54 84 170q29 60 64 127q32 66 69 133q11 21 23 39q12 17 24 25h11q10 -8 12 -31v-43v-399q0 -45 -10 -55q-15 -11 -80 -11h-137z" />
<glyph unicode="&#xc7;" horiz-adv-x="1425" d="M741 -180v-15q58 -22 97 -59q34 -37 36 -82q0 -37 -16 -51q-18 -16 -41 -16q-20 2 -49 32q-31 31 -64 31q-24 0 -36 -18q-17 -19 -17 -39q2 -70 123 -74q88 2 156 55q65 51 67 133q-4 95 -98 154q-39 23 -20 47l36 51q99 4 183 21q84 14 116 24q35 15 72 21q27 35 57 117 q31 79 41 163q-6 13 -22 15q-17 4 -31 -6q-16 -43 -47 -95q-33 -53 -84 -96q-49 -43 -123 -72q-74 -30 -174 -30q-258 0 -428 174q-176 170 -180 493q4 320 174 471q164 152 405 152q113 0 189 -25q78 -28 123 -71q49 -43 75 -97q25 -53 33 -106q15 -8 31 -6q16 0 25 10 q-25 209 -29 301q-25 -2 -57 8q-170 47 -363 49q-324 0 -553 -174q-252 -190 -258 -542q2 -197 86 -336q80 -142 205 -228q207 -131 461 -135z" />
<glyph unicode="&#xc8;" horiz-adv-x="1196" d="M262 307q2 -155 -18 -203q-23 -49 -109 -53l-67 -6q-9 -10 -7 -27q0 -16 11 -24q164 6 278 6h184q138 0 275 -2q135 0 274 -4q25 49 54 137q26 90 38 148q-6 14 -22 20q-16 4 -29 -6q-84 -164 -145 -199q-31 -16 -86 -22q-60 -9 -176 -9q-131 0 -180 17q-52 12 -68 31 q-41 51 -39 213v288q-2 39 12 49q11 7 56 7h118q117 0 158 -11q31 -6 45 -26q14 -23 19 -51l18 -80q12 -9 29 -9q16 0 24 11q-6 78 -8 196q4 125 8 207q-8 12 -24 12q-17 0 -29 -10l-16 -84q-7 -37 -19 -51t-31 -20q-40 -13 -174 -13h-118q-45 -2 -56 8q-14 9 -12 50v409 q-2 55 8 72q10 10 53 10h148q135 0 199 -12q77 -19 108 -70q29 -49 47 -125q10 -8 27 -6q16 0 24 10q-6 74 -14 158q-8 86 -18 115q-21 -4 -97 -4q-79 -2 -180 -2h-385q-61 0 -119 2q-57 0 -122 4q-11 -4 -11 -23q-2 -20 6 -28l33 -5q88 -4 109 -53q18 -49 16 -205v-737z M674 1415q24 8 18 37l-319 244q-33 26 -56 26q-24 -2 -51 -47q-26 -43 -16 -63q12 -19 53 -35z" />
<glyph unicode="&#xc9;" horiz-adv-x="1196" d="M262 307q2 -155 -18 -203q-23 -49 -109 -53l-67 -6q-9 -10 -7 -27q0 -16 11 -24q164 6 278 6h184q138 0 275 -2q135 0 274 -4q25 49 54 137q26 90 38 148q-6 14 -22 20q-16 4 -29 -6q-84 -164 -145 -199q-31 -16 -86 -22q-60 -9 -176 -9q-131 0 -180 17q-52 12 -68 31 q-41 51 -39 213v288q-2 39 12 49q11 7 56 7h118q117 0 158 -11q31 -6 45 -26q14 -23 19 -51l18 -80q12 -9 29 -9q16 0 24 11q-6 78 -8 196q4 125 8 207q-8 12 -24 12q-17 0 -29 -10l-16 -84q-7 -37 -19 -51t-31 -20q-40 -13 -174 -13h-118q-45 -2 -56 8q-14 9 -12 50v409 q-2 55 8 72q10 10 53 10h148q135 0 199 -12q77 -19 108 -70q29 -49 47 -125q10 -8 27 -6q16 0 24 10q-6 74 -14 158q-8 86 -18 115q-21 -4 -97 -4q-79 -2 -180 -2h-385q-61 0 -119 2q-57 0 -122 4q-11 -4 -11 -23q-2 -20 6 -28l33 -5q88 -4 109 -53q18 -49 16 -205v-737z M934 1577q43 16 53 35q10 20 -16 63q-11 23 -23 35q-16 12 -29 12q-20 0 -55 -26l-319 -244q-6 -29 20 -37z" />
<glyph unicode="&#xca;" horiz-adv-x="1196" d="M262 307q2 -155 -18 -203q-23 -49 -109 -53l-67 -6q-9 -10 -7 -27q0 -16 11 -24q164 6 278 6h184q138 0 275 -2q135 0 274 -4q25 49 54 137q26 90 38 148q-6 14 -22 20q-16 4 -29 -6q-84 -164 -145 -199q-31 -16 -86 -22q-60 -9 -176 -9q-131 0 -180 17q-52 12 -68 31 q-41 51 -39 213v288q-2 39 12 49q11 7 56 7h118q117 0 158 -11q31 -6 45 -26q14 -23 19 -51l18 -80q12 -9 29 -9q16 0 24 11q-6 78 -8 196q4 125 8 207q-8 12 -24 12q-17 0 -29 -10l-16 -84q-7 -37 -19 -51t-31 -20q-40 -13 -174 -13h-118q-45 -2 -56 8q-14 9 -12 50v409 q-2 55 8 72q10 10 53 10h148q135 0 199 -12q77 -19 108 -70q29 -49 47 -125q10 -8 27 -6q16 0 24 10q-6 74 -14 158q-8 86 -18 115q-21 -4 -97 -4q-79 -2 -180 -2h-385q-61 0 -119 2q-57 0 -122 4q-11 -4 -11 -23q-2 -20 6 -28l33 -5q88 -4 109 -53q18 -49 16 -205v-737z M326 1444q0 -29 28 -31l242 139q20 13 35 13q12 0 33 -13l245 -139q23 4 25 31l-260 250q-43 41 -88 0z" />
<glyph unicode="&#xcb;" horiz-adv-x="1196" d="M262 307q2 -155 -18 -203q-23 -49 -109 -53l-67 -6q-9 -10 -7 -27q0 -16 11 -24q164 6 278 6h184q138 0 275 -2q135 0 274 -4q25 49 54 137q26 90 38 148q-6 14 -22 20q-16 4 -29 -6q-84 -164 -145 -199q-31 -16 -86 -22q-60 -9 -176 -9q-131 0 -180 17q-52 12 -68 31 q-41 51 -39 213v288q-2 39 12 49q11 7 56 7h118q117 0 158 -11q31 -6 45 -26q14 -23 19 -51l18 -80q12 -9 29 -9q16 0 24 11q-6 78 -8 196q4 125 8 207q-8 12 -24 12q-17 0 -29 -10l-16 -84q-7 -37 -19 -51t-31 -20q-40 -13 -174 -13h-118q-45 -2 -56 8q-14 9 -12 50v409 q-2 55 8 72q10 10 53 10h148q135 0 199 -12q77 -19 108 -70q29 -49 47 -125q10 -8 27 -6q16 0 24 10q-6 74 -14 158q-8 86 -18 115q-21 -4 -97 -4q-79 -2 -180 -2h-385q-61 0 -119 2q-57 0 -122 4q-11 -4 -11 -23q-2 -20 6 -28l33 -5q88 -4 109 -53q18 -49 16 -205v-737z M418 1448q47 0 73 31q27 28 27 75q0 43 -27 72q-26 29 -73 31q-47 -2 -76 -31q-29 -31 -27 -78q0 -49 31 -74q29 -26 72 -26zM823 1448q47 0 74 31q25 28 25 75q0 43 -25 72q-27 29 -74 31q-47 -2 -76 -31q-28 -31 -28 -78q0 -49 31 -74q28 -26 73 -26z" />
<glyph unicode="&#xcc;" horiz-adv-x="692" d="M262 311q2 -157 -16 -205q-21 -49 -109 -55l-51 -6q-8 -10 -6 -27q0 -16 10 -24q141 6 258 6q113 0 254 -6q10 8 12 26q0 17 -8 25l-51 6q-86 6 -107 55q-20 48 -18 205v729q-2 158 18 211q21 51 107 51l51 5q8 8 8 28q-2 19 -12 23q-141 -6 -254 -6q-117 0 -258 6 q-10 -4 -10 -23q-2 -20 6 -28l51 -5q88 0 109 -51q18 -53 16 -211v-729zM401 1415q25 8 19 37l-320 244q-32 26 -55 26q-25 -2 -51 -47q-27 -43 -17 -63q13 -19 54 -35z" />
<glyph unicode="&#xcd;" horiz-adv-x="692" d="M262 311q2 -157 -16 -205q-21 -49 -109 -55l-51 -6q-8 -10 -6 -27q0 -16 10 -24q141 6 258 6q113 0 254 -6q10 8 12 26q0 17 -8 25l-51 6q-86 6 -107 55q-20 48 -18 205v729q-2 158 18 211q21 51 107 51l51 5q8 8 8 28q-2 19 -12 23q-141 -6 -254 -6q-117 0 -258 6 q-10 -4 -10 -23q-2 -20 6 -28l51 -5q88 0 109 -51q18 -53 16 -211v-729zM672 1577q43 16 53 35q10 20 -16 63q-11 23 -23 35q-16 12 -29 12q-20 0 -55 -26l-319 -244q-7 -29 20 -37z" />
<glyph unicode="&#xce;" horiz-adv-x="692" d="M262 311q2 -157 -16 -205q-21 -49 -109 -55l-51 -6q-8 -10 -6 -27q0 -16 10 -24q141 6 258 6q113 0 254 -6q10 8 12 26q0 17 -8 25l-51 6q-86 6 -107 55q-20 48 -18 205v729q-2 158 18 211q21 51 107 51l51 5q8 8 8 28q-2 19 -12 23q-141 -6 -254 -6q-117 0 -258 6 q-10 -4 -10 -23q-2 -20 6 -28l51 -5q88 0 109 -51q18 -53 16 -211v-729zM43 1444q0 -29 29 -31l241 139q21 13 35 13q12 0 33 -13l246 -139q22 4 24 31l-260 250q-43 41 -88 0z" />
<glyph unicode="&#xcf;" horiz-adv-x="692" d="M262 311q2 -157 -16 -205q-21 -49 -109 -55l-51 -6q-8 -10 -6 -27q0 -16 10 -24q141 6 258 6q113 0 254 -6q10 8 12 26q0 17 -8 25l-51 6q-86 6 -107 55q-20 48 -18 205v729q-2 158 18 211q21 51 107 51l51 5q8 8 8 28q-2 19 -12 23q-141 -6 -254 -6q-117 0 -258 6 q-10 -4 -10 -23q-2 -20 6 -28l51 -5q88 0 109 -51q18 -53 16 -211v-729zM145 1448q47 0 74 31q27 28 27 75q0 43 -27 72t-74 31q-47 -2 -75 -31q-29 -31 -27 -78q0 -49 31 -74q28 -26 71 -26zM551 1448q47 0 74 31q24 28 24 75q0 43 -24 72q-27 29 -74 31q-47 -2 -76 -31 q-29 -31 -29 -78q0 -49 31 -74q29 -26 74 -26z" />
<glyph unicode="&#xd0;" horiz-adv-x="1610" d="M262 307q2 -153 -16 -201q-21 -49 -107 -55l-47 -6q-8 -10 -6 -27q0 -16 10 -24q135 6 256 6q56 0 146 -8q88 -6 188 -8q248 -2 459 98q356 205 358 614q0 205 -102 365q-105 160 -314 237q-192 64 -442 60q-260 -2 -522 -13q-14 -8 -14 -24q0 -17 12 -25l35 -4 q73 -4 92 -61q16 -60 14 -197v-295h-184q-12 -10 -12 -35q0 -22 12 -36h184v-361zM430 1110q-2 137 21 156q12 10 63 20q25 4 61 6q35 2 78 2q203 -2 330 -61q125 -64 195 -158q69 -94 96 -199q24 -102 24 -188q0 -289 -137 -463q-141 -176 -438 -178q-189 -4 -252 84 q-45 68 -41 223v314h295q14 14 14 36q0 25 -14 35h-295v371z" />
<glyph unicode="&#xd1;" horiz-adv-x="1603" d="M1364 838q0 81 4 219q2 65 8 121q6 53 19 81q14 27 114 43l29 5q10 10 10 26q-2 17 -14 25q-92 -6 -211 -6q-109 0 -242 6q-12 -4 -12 -23q0 -16 8 -28l35 -5q61 -6 90 -16q29 -8 37 -25q16 -22 25 -77q10 -54 12 -121q4 -139 4 -225v-439v-53q-2 -24 -8 -33h-4 q-138 140 -338 371l-199 223q-59 70 -182 215q-58 70 -103 133q-22 31 -38 60q-19 24 -27 43q-43 -6 -94 -6q-78 -2 -232 6q-12 -6 -12 -23q0 -16 8 -28l35 -5q80 -8 127 -49q33 -32 41 -67q4 -37 4 -80v-592v-219q-2 -64 -8 -117q-6 -57 -19 -86q-16 -35 -90 -41l-55 -6 q-8 -10 -6 -25q0 -16 10 -26q96 6 213 6q109 0 240 -6q22 20 4 51l-64 6q-80 6 -104 39q-12 27 -19 80q-6 55 -10 121q-8 141 -8 223v446q0 95 10 134h4q111 -125 238 -277l475 -541q133 -147 190 -215q56 -69 72 -94q33 2 39 23q-4 53 -4 178q-2 123 -2 180v490zM731 1624 q-37 0 -63 -6q-29 -8 -54 -35q-24 -29 -47 -82q-22 -55 -30 -88q12 -20 30 -10q25 47 58 78q39 39 122 39h220q65 -3 102 36q23 27 47 72q25 41 35 80q-14 20 -35 8q-14 -22 -47 -59q-18 -19 -49 -25q-31 -8 -66 -8h-223z" />
<glyph unicode="&#xd2;" horiz-adv-x="1628" d="M823 -33q305 4 506 203q201 197 205 512q0 280 -176 487q-178 211 -535 215q-321 -4 -522 -206q-205 -201 -207 -517q2 -284 195 -483q190 -207 534 -211zM850 31q-297 6 -426 235q-127 219 -125 461q0 168 49 285q45 116 117 182q76 70 160 100q43 15 84 21t79 6 q293 -6 418 -223q125 -211 123 -480q-4 -301 -145 -444q-142 -143 -334 -143zM881 1415q24 8 18 37l-319 244q-33 26 -56 26q-24 -2 -51 -47q-27 -43 -16 -63q12 -19 53 -35z" />
<glyph unicode="&#xd3;" horiz-adv-x="1628" d="M823 -33q305 4 506 203q201 197 205 512q0 280 -176 487q-178 211 -535 215q-321 -4 -522 -206q-205 -201 -207 -517q2 -284 195 -483q190 -207 534 -211zM850 31q-297 6 -426 235q-127 219 -125 461q0 168 49 285q45 116 117 182q76 70 160 100q43 15 84 21t79 6 q293 -6 418 -223q125 -211 123 -480q-4 -301 -145 -444q-142 -143 -334 -143zM1110 1577q43 16 53 35q10 20 -16 63q-10 23 -23 35q-16 12 -28 12q-21 0 -56 -26l-319 -244q-6 -29 20 -37z" />
<glyph unicode="&#xd4;" horiz-adv-x="1628" d="M823 -33q305 4 506 203q201 197 205 512q0 280 -176 487q-178 211 -535 215q-321 -4 -522 -206q-205 -201 -207 -517q2 -284 195 -483q190 -207 534 -211zM850 31q-297 6 -426 235q-127 219 -125 461q0 168 49 285q45 116 117 182q76 70 160 100q43 15 84 21t79 6 q293 -6 418 -223q125 -211 123 -480q-4 -301 -145 -444q-142 -143 -334 -143zM512 1444q0 -29 29 -31l241 139q21 13 35 13q12 0 33 -13l246 -139q22 4 24 31l-260 250q-43 41 -88 0z" />
<glyph unicode="&#xd5;" horiz-adv-x="1628" d="M823 -33q305 4 506 203q201 197 205 512q0 280 -176 487q-178 211 -535 215q-321 -4 -522 -206q-205 -201 -207 -517q2 -284 195 -483q190 -207 534 -211zM850 31q-297 6 -426 235q-127 219 -125 461q0 168 49 285q45 116 117 182q76 70 160 100q43 15 84 21t79 6 q293 -6 418 -223q125 -211 123 -480q-4 -301 -145 -444q-142 -143 -334 -143zM702 1624q-36 0 -63 -6q-29 -8 -53 -35q-25 -29 -47 -82q-23 -55 -31 -88q12 -20 31 -10q24 47 57 78q39 39 123 39h219q65 -3 102 36q23 27 47 72q25 41 35 80q-14 20 -35 8q-14 -22 -47 -59 q-18 -19 -49 -25q-31 -8 -65 -8h-224z" />
<glyph unicode="&#xd6;" horiz-adv-x="1628" d="M823 -33q305 4 506 203q201 197 205 512q0 280 -176 487q-178 211 -535 215q-321 -4 -522 -206q-205 -201 -207 -517q2 -284 195 -483q190 -207 534 -211zM850 31q-297 6 -426 235q-127 219 -125 461q0 168 49 285q45 116 117 182q76 70 160 100q43 15 84 21t79 6 q293 -6 418 -223q125 -211 123 -480q-4 -301 -145 -444q-142 -143 -334 -143zM614 1448q47 0 74 31q27 28 27 75q0 43 -27 72t-74 31q-47 -2 -75 -31q-29 -31 -27 -78q0 -49 31 -74q28 -26 71 -26zM1020 1448q47 0 74 31q24 28 24 75q0 43 -24 72q-27 29 -74 31 q-47 -2 -76 -31q-29 -31 -29 -78q0 -49 31 -74q29 -26 74 -26z" />
<glyph unicode="&#xd7;" d="M893 715l-76 78l-305 -308l-303 303l-76 -79l301 -301l-301 -306l76 -79l303 307l305 -307l76 79l-303 306z" />
<glyph unicode="&#xd8;" horiz-adv-x="1628" d="M1413 1368q0 18 -16 35q-19 16 -45 16l-117 -147q-168 110 -412 112q-321 -4 -522 -206q-205 -201 -207 -517q2 -323 242 -526l-133 -166q4 -22 20 -35q17 -16 39 -16l137 170q176 -119 424 -121q305 4 506 203q201 197 205 506q0 336 -234 549zM1200 1100 q131 -213 129 -482q-4 -301 -145 -444q-142 -143 -334 -143q-240 4 -369 161zM432 256q-70 106 -100 231q-33 121 -33 240q0 168 49 285q45 116 117 182q76 70 160 100q43 15 84 21t79 6q234 -4 363 -156z" />
<glyph unicode="&#xd9;" horiz-adv-x="1528" d="M1239 602q2 -237 -92 -387q-96 -156 -318 -158q-231 2 -323 152q-94 145 -92 395v442q-2 156 18 207q19 51 105 51l49 5q8 8 8 26q-2 19 -12 23q-138 -6 -252 -6q-111 0 -254 6q-10 -4 -10 -23q-3 -18 6 -26l51 -5q86 0 106 -51q19 -51 17 -207v-483q-2 -356 159 -483 q41 -31 86 -51q43 -23 93 -35q100 -27 204 -27q244 2 392 150q84 94 116 225q27 129 27 264v232q0 96 4 227q4 31 6 61q0 29 4 54q2 26 8 45q5 18 7 30q10 23 36 35q29 12 66 14l49 5q10 10 10 26q-2 17 -14 23q-98 -6 -215 -6q-119 0 -233 6q-11 -6 -11 -21q-2 -16 6 -28 l52 -5q80 -6 102 -43q27 -55 35 -186q4 -133 4 -237v-236zM860 1415q25 8 19 37l-320 244q-33 26 -55 26q-25 -2 -51 -47q-27 -43 -17 -63q12 -19 53 -35z" />
<glyph unicode="&#xda;" horiz-adv-x="1528" d="M1239 602q2 -237 -92 -387q-96 -156 -318 -158q-231 2 -323 152q-94 145 -92 395v442q-2 156 18 207q19 51 105 51l49 5q8 8 8 26q-2 19 -12 23q-138 -6 -252 -6q-111 0 -254 6q-10 -4 -10 -23q-3 -18 6 -26l51 -5q86 0 106 -51q19 -51 17 -207v-483q-2 -356 159 -483 q41 -31 86 -51q43 -23 93 -35q100 -27 204 -27q244 2 392 150q84 94 116 225q27 129 27 264v232q0 96 4 227q4 31 6 61q0 29 4 54q2 26 8 45q5 18 7 30q10 23 36 35q29 12 66 14l49 5q10 10 10 26q-2 17 -14 23q-98 -6 -215 -6q-119 0 -233 6q-11 -6 -11 -21q-2 -16 6 -28 l52 -5q80 -6 102 -43q27 -55 35 -186q4 -133 4 -237v-236zM1110 1577q43 16 53 35q10 20 -16 63q-10 23 -23 35q-16 12 -28 12q-21 0 -56 -26l-319 -244q-6 -29 20 -37z" />
<glyph unicode="&#xdb;" horiz-adv-x="1528" d="M1239 602q2 -237 -92 -387q-96 -156 -318 -158q-231 2 -323 152q-94 145 -92 395v442q-2 156 18 207q19 51 105 51l49 5q8 8 8 26q-2 19 -12 23q-138 -6 -252 -6q-111 0 -254 6q-10 -4 -10 -23q-3 -18 6 -26l51 -5q86 0 106 -51q19 -51 17 -207v-483q-2 -356 159 -483 q41 -31 86 -51q43 -23 93 -35q100 -27 204 -27q244 2 392 150q84 94 116 225q27 129 27 264v232q0 96 4 227q4 31 6 61q0 29 4 54q2 26 8 45q5 18 7 30q10 23 36 35q29 12 66 14l49 5q10 10 10 26q-2 17 -14 23q-98 -6 -215 -6q-119 0 -233 6q-11 -6 -11 -21q-2 -16 6 -28 l52 -5q80 -6 102 -43q27 -55 35 -186q4 -133 4 -237v-236zM502 1444q0 -29 28 -31l242 139q21 13 35 13q12 0 33 -13l245 -139q23 4 25 31l-260 250q-43 41 -88 0z" />
<glyph unicode="&#xdc;" horiz-adv-x="1528" d="M1239 602q2 -237 -92 -387q-96 -156 -318 -158q-231 2 -323 152q-94 145 -92 395v442q-2 156 18 207q19 51 105 51l49 5q8 8 8 26q-2 19 -12 23q-138 -6 -252 -6q-111 0 -254 6q-10 -4 -10 -23q-3 -18 6 -26l51 -5q86 0 106 -51q19 -51 17 -207v-483q-2 -356 159 -483 q41 -31 86 -51q43 -23 93 -35q100 -27 204 -27q244 2 392 150q84 94 116 225q27 129 27 264v232q0 96 4 227q4 31 6 61q0 29 4 54q2 26 8 45q5 18 7 30q10 23 36 35q29 12 66 14l49 5q10 10 10 26q-2 17 -14 23q-98 -6 -215 -6q-119 0 -233 6q-11 -6 -11 -21q-2 -16 6 -28 l52 -5q80 -6 102 -43q27 -55 35 -186q4 -133 4 -237v-236zM584 1448q47 0 73 31q27 28 27 75q0 43 -27 72q-26 29 -73 31q-47 -2 -76 -31q-29 -31 -27 -78q0 -49 31 -74q29 -26 72 -26zM989 1448q47 0 74 31q24 28 24 75q0 43 -24 72q-27 29 -74 31q-47 -2 -76 -31 q-28 -31 -28 -78q0 -49 30 -74q29 -26 74 -26z" />
<glyph unicode="&#xdd;" horiz-adv-x="1175" d="M688 418q-2 110 14 170q17 57 82 162l129 223q74 135 136 223q59 86 135 100l57 11q12 10 12 26q-4 17 -16 25q-100 -6 -191 -6q-90 0 -196 6q-12 -6 -12 -23q0 -16 8 -28l37 -5q39 -2 63 -12q23 -10 23 -20q-2 -23 -43 -105q-43 -82 -90 -166q-95 -180 -193 -346 q-119 219 -231 455q-11 22 -35 80q-8 28 -19 49q-10 22 -10 29q-2 12 19 20q16 8 67 16l27 5q10 12 10 28q-2 19 -16 23q-78 -6 -219 -6q-144 0 -238 6q-10 -6 -10 -23q-2 -16 6 -28l57 -11q45 -2 80 -28q33 -29 82 -127l242 -471q45 -80 57 -127q8 -47 8 -127v-105 q2 -157 -16 -207q-21 -49 -107 -53l-63 -6q-8 -10 -6 -27q0 -16 10 -24q151 6 268 6q107 0 279 -6q10 8 12 24q0 17 -8 27l-78 6q-80 2 -102 51q-23 52 -21 209v107zM985 1577q43 16 53 35q11 20 -16 63q-10 23 -23 35q-16 12 -28 12q-21 0 -56 -26l-319 -244q-6 -29 20 -37 z" />
<glyph unicode="&#xde;" horiz-adv-x="1149" d="M262 307q2 -153 -16 -201q-21 -49 -107 -55l-45 -6q-8 -10 -6 -27q0 -16 10 -24q133 6 252 6q107 0 275 -6q10 8 12 26q0 17 -8 25l-76 6q-86 4 -105 53q-20 48 -18 203v645q-2 47 18 62q23 10 99 10q327 -6 327 -311q-2 -269 -299 -312q-6 -4 -6 -18q0 -16 8 -23 q60 -2 142 13q82 12 157 47q66 31 125 106q58 74 60 195q-2 198 -135 284q-131 82 -330 82h-166q-2 119 23 164q24 43 116 51l33 5q6 10 6 26q0 17 -10 25q-125 -6 -248 -6q-117 0 -258 6q-10 -4 -10 -23q-2 -20 6 -28l45 -5q84 0 109 -47q22 -49 20 -211v-737z" />
<glyph unicode="&#xdf;" horiz-adv-x="1532" d="M401 371q88 -43 117 -92q27 -50 27 -101q0 -72 -45 -108q-47 -39 -127 -39q-49 0 -92 26q-43 23 -74 58q-66 73 -78 135q-10 14 -27 14q-18 -2 -26 -18q0 -80 16 -133q14 -56 27 -78q22 -17 84 -37q59 -25 151 -27q156 2 244 72q88 68 90 188q-2 105 -53 168 q-53 66 -113 92l-127 66q-61 33 -98 72q-39 37 -39 90q0 55 39 96t127 43q90 -2 135 -59q25 -25 37 -58q12 -30 18 -59q11 -8 31 -8q19 0 23 12q0 141 -29 201q-51 10 -92 20q-45 10 -99 10q-319 -8 -321 -253q2 -84 55 -146q51 -61 127 -100zM1167 371q88 -43 117 -92 q27 -50 27 -101q0 -72 -45 -108q-48 -39 -127 -39q-50 0 -93 26q-43 23 -73 58q-66 73 -78 135q-10 14 -27 14q-18 -2 -26 -18q0 -80 16 -133q14 -56 27 -78q22 -17 84 -37q59 -25 151 -27q156 2 244 72q88 68 90 188q-2 105 -53 168q-54 66 -113 92l-127 66q-61 33 -98 72 q-39 37 -39 90q0 55 39 96t127 43q90 -2 135 -59q25 -25 37 -58q12 -30 18 -59q10 -8 31 -8q18 0 22 12q0 141 -28 201q-51 10 -92 20q-45 10 -99 10q-319 -8 -321 -253q2 -84 55 -146q51 -61 127 -100z" />
<glyph unicode="&#xe0;" horiz-adv-x="936" d="M528 317q35 0 49 -6q11 -8 21 -43l49 -133q21 -45 19 -61q-7 -17 -46 -23l-40 -6q-13 -8 -11 -25q0 -18 15 -26q75 6 184 6q98 0 170 -6q16 4 18 24q4 19 -12 27l-33 6q-53 10 -75 37q-23 25 -41 72l-185 489q-35 96 -57 166q-25 70 -31 86q-6 18 -33 10q-22 -47 -86 -78 q-4 -51 -53 -172l-196 -471q-29 -71 -54 -96q-26 -28 -73 -39l-47 -10q-11 -8 -9 -25q0 -18 13 -26q57 6 143 6t162 -6q16 4 18 24q0 19 -12 27l-55 10q-27 4 -33 21q-6 14 10 61l47 131q10 35 25 43q14 6 45 6h194zM354 383q-32 0 -37 10q-6 10 11 49l73 183q27 61 33 69h4 q8 -8 31 -74l63 -174q19 -41 13 -53q-8 -10 -49 -10h-142zM322 1315q-11 22 -21 35q-12 14 -25 14q-26 4 -63 -27q-37 -30 -37 -55q0 -23 35 -61l264 -277q27 -2 33 25z" />
<glyph unicode="&#xe1;" horiz-adv-x="936" d="M528 317q35 0 49 -6q11 -8 21 -43l49 -133q21 -45 19 -61q-7 -17 -46 -23l-40 -6q-13 -8 -11 -25q0 -18 15 -26q75 6 184 6q98 0 170 -6q16 4 18 24q4 19 -12 27l-33 6q-53 10 -75 37q-23 25 -41 72l-185 489q-35 96 -57 166q-25 70 -31 86q-6 18 -33 10q-22 -47 -86 -78 q-4 -51 -53 -172l-196 -471q-29 -71 -54 -96q-26 -28 -73 -39l-47 -10q-11 -8 -9 -25q0 -18 13 -26q57 6 143 6t162 -6q16 4 18 24q0 19 -12 27l-55 10q-27 4 -33 21q-6 14 10 61l47 131q10 35 25 43q14 6 45 6h194zM354 383q-32 0 -37 10q-6 10 11 49l73 183q27 61 33 69h4 q8 -8 31 -74l63 -174q19 -41 13 -53q-8 -10 -49 -10h-142zM739 1221q35 38 35 61q0 25 -37 55q-37 31 -63 27q-23 -6 -45 -49l-187 -346q6 -27 33 -25z" />
<glyph unicode="&#xe2;" horiz-adv-x="936" d="M528 317q35 0 49 -6q11 -8 21 -43l49 -133q21 -45 19 -61q-7 -17 -46 -23l-40 -6q-13 -8 -11 -25q0 -18 15 -26q75 6 184 6q98 0 170 -6q16 4 18 24q4 19 -12 27l-33 6q-53 10 -75 37q-23 25 -41 72l-185 489q-35 96 -57 166q-25 70 -31 86q-6 18 -33 10q-22 -47 -86 -78 q-4 -51 -53 -172l-196 -471q-29 -71 -54 -96q-26 -28 -73 -39l-47 -10q-11 -8 -9 -25q0 -18 13 -26q57 6 143 6t162 -6q16 4 18 24q0 19 -12 27l-55 10q-27 4 -33 21q-6 14 10 61l47 131q10 35 25 43q14 6 45 6h194zM354 383q-32 0 -37 10q-6 10 11 49l73 183q27 61 33 69h4 q8 -8 31 -74l63 -174q19 -41 13 -53q-8 -10 -49 -10h-142zM694 940q25 0 33 22l-209 371q-37 60 -76 0l-209 -371q9 -22 33 -22l185 217q20 27 30 27q8 0 29 -27z" />
<glyph unicode="&#xe3;" horiz-adv-x="936" d="M528 317q35 0 49 -6q11 -8 21 -43l49 -133q21 -45 19 -61q-7 -17 -46 -23l-40 -6q-13 -8 -11 -25q0 -18 15 -26q75 6 184 6q98 0 170 -6q16 4 18 24q4 19 -12 27l-33 6q-53 10 -75 37q-23 25 -41 72l-185 489q-35 96 -57 166q-25 70 -31 86q-6 18 -33 10q-22 -47 -86 -78 q-4 -51 -53 -172l-196 -471q-29 -71 -54 -96q-26 -28 -73 -39l-47 -10q-11 -8 -9 -25q0 -18 13 -26q57 6 143 6t162 -6q16 4 18 24q0 19 -12 27l-55 10q-27 4 -33 21q-6 14 10 61l47 131q10 35 25 43q14 6 45 6h194zM354 383q-32 0 -37 10q-6 10 11 49l73 183q27 61 33 69h4 q8 -8 31 -74l63 -174q19 -41 13 -53q-8 -10 -49 -10h-142zM360 1178q-36 0 -63 -7q-29 -8 -53 -34q-25 -29 -47 -82q-23 -56 -31 -88q12 -21 35 -11q32 62 69 90q39 27 107 27h219q65 -2 104 37q25 27 47 72q23 41 33 79q-14 21 -37 9q-36 -54 -67 -72q-31 -20 -96 -20h-220 z" />
<glyph unicode="&#xe4;" horiz-adv-x="936" d="M528 317q35 0 49 -6q11 -8 21 -43l49 -133q21 -45 19 -61q-7 -17 -46 -23l-40 -6q-13 -8 -11 -25q0 -18 15 -26q75 6 184 6q98 0 170 -6q16 4 18 24q4 19 -12 27l-33 6q-53 10 -75 37q-23 25 -41 72l-185 489q-35 96 -57 166q-25 70 -31 86q-6 18 -33 10q-22 -47 -86 -78 q-4 -51 -53 -172l-196 -471q-29 -71 -54 -96q-26 -28 -73 -39l-47 -10q-11 -8 -9 -25q0 -18 13 -26q57 6 143 6t162 -6q16 4 18 24q0 19 -12 27l-55 10q-27 4 -33 21q-6 14 10 61l47 131q10 35 25 43q14 6 45 6h194zM354 383q-32 0 -37 10q-6 10 11 49l73 183q27 61 33 69h4 q8 -8 31 -74l63 -174q19 -41 13 -53q-8 -10 -49 -10h-142zM285 1014q90 2 94 100q0 37 -25 66q-24 26 -69 26q-43 0 -70 -26q-29 -29 -27 -72q2 -94 97 -94zM670 1014q90 2 92 100q0 37 -25 66q-24 26 -67 26t-70 -26q-29 -29 -29 -72q4 -94 99 -94z" />
<glyph unicode="&#xe5;" horiz-adv-x="936" d="M528 317q35 0 49 -6q11 -8 21 -43l49 -133q21 -45 19 -61q-7 -17 -46 -23l-40 -6q-13 -8 -11 -25q0 -18 15 -26q75 6 184 6q98 0 170 -6q16 4 18 24q4 19 -12 27l-33 6q-53 10 -75 37q-23 25 -41 72l-185 489q-35 96 -57 166q-25 70 -31 86q-6 18 -33 10q-22 -47 -86 -78 q-4 -51 -53 -172l-196 -471q-29 -71 -54 -96q-26 -28 -73 -39l-47 -10q-11 -8 -9 -25q0 -18 13 -26q57 6 143 6t162 -6q16 4 18 24q0 19 -12 27l-55 10q-27 4 -33 21q-6 14 10 61l47 131q10 35 25 43q14 6 45 6h194zM354 383q-32 0 -37 10q-6 10 11 49l73 183q27 61 33 69h4 q8 -8 31 -74l63 -174q19 -41 13 -53q-8 -10 -49 -10h-142zM475 1358q-90 -2 -145 -58q-60 -57 -60 -137q0 -78 60 -133q55 -59 145 -61q94 2 150 61q53 55 55 133q-2 80 -55 137q-56 56 -150 58zM367 1163q0 58 32 92q29 35 76 35q49 0 80 -35q29 -34 29 -92q0 -55 -29 -90 q-31 -37 -80 -37q-47 0 -76 37q-32 35 -32 90z" />
<glyph unicode="&#xe6;" horiz-adv-x="1274" d="M569 889q-121 0 -229 6q-12 -6 -12 -23q0 -16 8 -28l86 -21q26 -4 29 -16q4 -12 -13 -39q-170 -326 -342 -621q-28 -51 -53 -67q-27 -17 -51 -23l-51 -12q-13 -10 -9 -27q2 -16 15 -24q76 6 153 6q101 0 172 -6q15 8 17 26q0 17 -10 25l-82 14q-25 7 -27 17q-2 12 8 33 q43 96 146 288q12 25 22 29q8 4 33 4h153q37 0 45 -6q7 -10 7 -45v-164q0 -100 -15 -129q-16 -29 -82 -35l-45 -6q-8 -8 -6 -25q0 -18 19 -26q116 6 200 6h176q160 -2 349 -6q41 78 61 227q-4 17 -23 19q-16 2 -30 -11q-21 -61 -45 -94q-27 -33 -60 -51q-63 -27 -161 -25 q-84 0 -121 9q-37 6 -51 20q-13 21 -17 61q-6 39 -6 87v147q-2 31 6 41q6 6 33 6h96q80 0 105 -14q22 -19 30 -64l11 -39q10 -8 26 -8q17 0 25 12q-4 80 -4 148q0 63 4 143q-8 12 -25 17q-16 0 -26 -13l-11 -39q-8 -45 -30 -61q-25 -16 -105 -16h-96q-27 0 -33 8q-8 6 -6 33 v227q-2 47 12 57q11 8 62 8h90q41 0 94 -6q53 -8 80 -43q18 -22 37 -98q12 -8 28 -8q17 0 25 12q-16 152 -23 209q-40 -6 -190 -6h-373zM403 496q-24 0 -26 6t6 18l139 252q33 61 41 61h12q9 -16 9 -55v-231q0 -33 -7 -41q-8 -10 -45 -10h-129z" />
<glyph unicode="&#xe7;" horiz-adv-x="1026" d="M512 -170v-8q51 -21 86 -55q33 -35 33 -72q0 -35 -17 -49q-16 -15 -34 -15q-19 2 -43 31q-13 12 -25 23q-14 6 -31 6q-22 0 -35 -17q-12 -16 -12 -32q0 -62 109 -66q77 2 135 49q57 45 59 117q-4 82 -88 133q-31 21 -14 45l37 51q88 2 143 19q57 16 94 24q45 72 68 222 q-8 16 -25 16q-18 0 -28 -14q-7 -19 -25 -54q-20 -35 -57 -69q-33 -35 -86 -58q-54 -26 -127 -26q-150 0 -256 112q-111 111 -113 318q2 209 111 305q102 92 239 92q135 -2 201 -59q65 -62 84 -150q14 -12 31 -8q16 0 22 12q-18 142 -18 226q-17 0 -97 20q-79 16 -184 18 q-241 0 -399 -118q-168 -119 -172 -369q0 -123 57 -213q53 -92 137 -151q150 -95 332 -95z" />
<glyph unicode="&#xe8;" horiz-adv-x="917" d="M215 215q0 -100 -14 -129q-17 -29 -82 -35l-56 -6q-8 -8 -8 -25q0 -18 13 -26q139 6 227 6h180q82 0 168 -2q86 0 180 -4q41 78 62 227q-4 17 -23 19q-16 2 -31 -11q-20 -61 -45 -94q-26 -33 -59 -51q-63 -27 -162 -25q-84 0 -121 9q-36 6 -51 20q-12 21 -16 61 q-6 39 -6 87v147q-2 31 6 41q6 6 33 6h96q80 0 104 -14q23 -19 31 -64l10 -39q10 -8 27 -8q16 0 24 12q-4 80 -4 148q0 63 4 143q-8 12 -24 17q-17 0 -27 -13l-10 -39q-8 -45 -31 -61q-24 -16 -104 -16h-96q-27 0 -33 8q-8 6 -6 33v227q-2 47 12 57q10 8 61 8h90q41 0 95 -6 q53 -8 80 -43q18 -22 36 -98q13 -8 29 -8t25 12q-17 152 -23 209q-41 -6 -190 -6h-291q-49 0 -98 2q-45 0 -93 4q-12 -8 -12 -25q0 -18 8 -26l29 -6q31 -5 49 -11q17 -8 25 -22q12 -29 12 -131v-459zM338 1315q-10 22 -21 35q-12 14 -24 14q-27 4 -64 -27q-37 -30 -37 -55 q0 -23 35 -61l264 -277q27 -2 33 25z" />
<glyph unicode="&#xe9;" horiz-adv-x="917" d="M215 215q0 -100 -14 -129q-17 -29 -82 -35l-56 -6q-8 -8 -8 -25q0 -18 13 -26q139 6 227 6h180q82 0 168 -2q86 0 180 -4q41 78 62 227q-4 17 -23 19q-16 2 -31 -11q-20 -61 -45 -94q-26 -33 -59 -51q-63 -27 -162 -25q-84 0 -121 9q-36 6 -51 20q-12 21 -16 61 q-6 39 -6 87v147q-2 31 6 41q6 6 33 6h96q80 0 104 -14q23 -19 31 -64l10 -39q10 -8 27 -8q16 0 24 12q-4 80 -4 148q0 63 4 143q-8 12 -24 17q-17 0 -27 -13l-10 -39q-8 -45 -31 -61q-24 -16 -104 -16h-96q-27 0 -33 8q-8 6 -6 33v227q-2 47 12 57q10 8 61 8h90q41 0 95 -6 q53 -8 80 -43q18 -22 36 -98q13 -8 29 -8t25 12q-17 152 -23 209q-41 -6 -190 -6h-291q-49 0 -98 2q-45 0 -93 4q-12 -8 -12 -25q0 -18 8 -26l29 -6q31 -5 49 -11q17 -8 25 -22q12 -29 12 -131v-459zM760 1221q35 38 35 61q0 25 -37 55q-37 31 -64 27q-22 -6 -45 -49 l-186 -346q6 -27 33 -25z" />
<glyph unicode="&#xea;" horiz-adv-x="917" d="M215 215q0 -100 -14 -129q-17 -29 -82 -35l-56 -6q-8 -8 -8 -25q0 -18 13 -26q139 6 227 6h180q82 0 168 -2q86 0 180 -4q41 78 62 227q-4 17 -23 19q-16 2 -31 -11q-20 -61 -45 -94q-26 -33 -59 -51q-63 -27 -162 -25q-84 0 -121 9q-36 6 -51 20q-12 21 -16 61 q-6 39 -6 87v147q-2 31 6 41q6 6 33 6h96q80 0 104 -14q23 -19 31 -64l10 -39q10 -8 27 -8q16 0 24 12q-4 80 -4 148q0 63 4 143q-8 12 -24 17q-17 0 -27 -13l-10 -39q-8 -45 -31 -61q-24 -16 -104 -16h-96q-27 0 -33 8q-8 6 -6 33v227q-2 47 12 57q10 8 61 8h90q41 0 95 -6 q53 -8 80 -43q18 -22 36 -98q13 -8 29 -8t25 12q-17 152 -23 209q-41 -6 -190 -6h-291q-49 0 -98 2q-45 0 -93 4q-12 -8 -12 -25q0 -18 8 -26l29 -6q31 -5 49 -11q17 -8 25 -22q12 -29 12 -131v-459zM690 940q25 0 33 22l-209 371q-37 60 -76 0l-209 -371q9 -22 33 -22 l184 217q21 27 31 27q8 0 29 -27z" />
<glyph unicode="&#xeb;" horiz-adv-x="917" d="M215 215q0 -100 -14 -129q-17 -29 -82 -35l-56 -6q-8 -8 -8 -25q0 -18 13 -26q139 6 227 6h180q82 0 168 -2q86 0 180 -4q41 78 62 227q-4 17 -23 19q-16 2 -31 -11q-20 -61 -45 -94q-26 -33 -59 -51q-63 -27 -162 -25q-84 0 -121 9q-36 6 -51 20q-12 21 -16 61 q-6 39 -6 87v147q-2 31 6 41q6 6 33 6h96q80 0 104 -14q23 -19 31 -64l10 -39q10 -8 27 -8q16 0 24 12q-4 80 -4 148q0 63 4 143q-8 12 -24 17q-17 0 -27 -13l-10 -39q-8 -45 -31 -61q-24 -16 -104 -16h-96q-27 0 -33 8q-8 6 -6 33v227q-2 47 12 57q10 8 61 8h90q41 0 95 -6 q53 -8 80 -43q18 -22 36 -98q13 -8 29 -8t25 12q-17 152 -23 209q-41 -6 -190 -6h-291q-49 0 -98 2q-45 0 -93 4q-12 -8 -12 -25q0 -18 8 -26l29 -6q31 -5 49 -11q17 -8 25 -22q12 -29 12 -131v-459zM289 1014q90 2 94 100q0 37 -25 66q-24 26 -69 26q-43 0 -70 -26 q-29 -29 -27 -72q3 -94 97 -94zM674 1014q90 2 92 100q0 37 -25 66q-24 26 -67 26t-70 -26q-29 -29 -29 -72q5 -94 99 -94z" />
<glyph unicode="&#xec;" horiz-adv-x="586" d="M215 215q0 -100 -14 -127q-17 -29 -82 -37l-39 -6q-8 -8 -8 -25q0 -18 12 -26q115 6 209 6t209 -6q12 8 16 26q0 17 -12 25l-39 6q-64 8 -80 37q-18 27 -16 127v459q-2 102 16 131q16 26 80 33l39 6q12 12 12 28q-4 19 -16 23q-115 -6 -209 -6t-209 6q-12 -4 -12 -23 q0 -16 8 -28l39 -6q65 -7 82 -33q14 -29 14 -131v-459zM154 1315q-11 22 -21 35q-12 14 -24 14q-27 4 -64 -27q-37 -30 -37 -55q0 -23 35 -61l264 -277q27 -2 33 25z" />
<glyph unicode="&#xed;" horiz-adv-x="586" d="M215 215q0 -100 -14 -127q-17 -29 -82 -37l-39 -6q-8 -8 -8 -25q0 -18 12 -26q115 6 209 6t209 -6q12 8 16 26q0 17 -12 25l-39 6q-64 8 -80 37q-18 27 -16 127v459q-2 102 16 131q16 26 80 33l39 6q12 12 12 28q-4 19 -16 23q-115 -6 -209 -6t-209 6q-12 -4 -12 -23 q0 -16 8 -28l39 -6q65 -7 82 -33q14 -29 14 -131v-459zM553 1221q35 38 35 61q0 25 -37 55q-37 31 -64 27q-22 -6 -45 -49l-186 -346q6 -27 33 -25z" />
<glyph unicode="&#xee;" horiz-adv-x="586" d="M215 215q0 -100 -14 -127q-17 -29 -82 -37l-39 -6q-8 -8 -8 -25q0 -18 12 -26q115 6 209 6t209 -6q12 8 16 26q0 17 -12 25l-39 6q-64 8 -80 37q-18 27 -16 127v459q-2 102 16 131q16 26 80 33l39 6q12 12 12 28q-4 19 -16 23q-115 -6 -209 -6t-209 6q-12 -4 -12 -23 q0 -16 8 -28l39 -6q65 -7 82 -33q14 -29 14 -131v-459zM508 940q24 0 33 22l-209 371q-37 60 -76 0l-209 -371q8 -22 33 -22l184 217q21 27 31 27q8 0 29 -27z" />
<glyph unicode="&#xef;" horiz-adv-x="586" d="M215 215q0 -100 -14 -127q-17 -29 -82 -37l-39 -6q-8 -8 -8 -25q0 -18 12 -26q115 6 209 6t209 -6q12 8 16 26q0 17 -12 25l-39 6q-64 8 -80 37q-18 27 -16 127v459q-2 102 16 131q16 26 80 33l39 6q12 12 12 28q-4 19 -16 23q-115 -6 -209 -6t-209 6q-12 -4 -12 -23 q0 -16 8 -28l39 -6q65 -7 82 -33q14 -29 14 -131v-459zM102 1014q90 2 95 100q0 37 -25 66q-25 26 -70 26q-43 0 -69 -26q-29 -29 -27 -72q2 -94 96 -94zM487 1014q90 2 93 100q0 37 -25 66q-25 26 -68 26t-69 -26q-29 -29 -29 -72q4 -94 98 -94z" />
<glyph unicode="&#xf0;" horiz-adv-x="1186" d="M227 215q0 -100 -14 -127q-16 -29 -82 -37l-39 -6q-8 -8 -8 -25q0 -18 12 -26q115 6 209 6q47 0 111 -4q65 -6 135 -6q162 -2 309 63q248 139 248 395q-2 295 -283 402q-141 45 -311 45q-235 0 -395 -12q-13 -4 -13 -23q-2 -20 11 -29l61 -8q35 -2 43 -37q6 -36 6 -137 v-153h-145q-10 -11 -10 -31q0 -21 10 -35h145v-215zM383 733q-2 68 12 80q23 23 123 23q178 0 293 -97q113 -96 115 -286q0 -398 -367 -404q-57 0 -90 12q-37 13 -55 37q-33 49 -31 148v184h190q13 14 13 35q0 20 -13 31h-190v237z" />
<glyph unicode="&#xf1;" horiz-adv-x="1186" d="M919 336q3 -74 -12 -82q-20 18 -84 86q-63 65 -102 104l-193 199q-133 133 -200 252q-37 -6 -82 -6q-62 -2 -176 6q-13 -6 -13 -23q-2 -16 9 -28l30 -6q41 -9 76 -29q31 -21 39 -47q4 -29 4 -80v-367q0 -147 -14 -202q-15 -58 -56 -62l-61 -6q-10 -8 -10 -25 q0 -18 12 -26q94 6 170 6q80 0 182 -6q13 10 17 26q0 15 -13 25l-65 6q-53 2 -72 60q-16 55 -16 204v271q-2 88 8 86q41 -35 158 -158l311 -332q174 -186 190 -209q31 -2 43 19v47v35q-4 16 -4 35q-2 81 -2 120v344q0 152 17 209q14 56 53 56l61 6q13 10 13 26q-2 17 -15 25 q-90 -6 -170 -6q-78 0 -182 6q-12 -8 -12 -25q0 -16 8 -26l65 -6q58 -2 74 -58q14 -55 14 -207v-237zM491 1178q-36 0 -63 -7q-29 -8 -53 -34q-25 -29 -47 -82q-23 -56 -31 -88q12 -21 35 -11q33 62 69 90q39 27 107 27h219q66 -2 104 37q25 27 48 72q22 41 32 79 q-14 21 -37 9q-36 -54 -67 -72q-31 -20 -96 -20h-220z" />
<glyph unicode="&#xf2;" horiz-adv-x="1159" d="M584 917q-226 -2 -363 -137q-141 -133 -143 -344q0 -196 135 -327q131 -134 371 -138q223 2 358 138q137 131 139 339q0 195 -123 330q-125 137 -374 139zM569 858q170 -4 252 -137q78 -129 78 -303q-2 -207 -92 -297q-90 -92 -213 -90q-176 4 -254 141q-82 133 -80 297 q2 215 100 305q48 45 101 66q53 18 108 18zM459 1315q-11 22 -21 35q-12 14 -24 14q-27 4 -64 -27q-37 -30 -37 -55q0 -23 35 -61l264 -277q27 -2 33 25z" />
<glyph unicode="&#xf3;" horiz-adv-x="1159" d="M584 917q-226 -2 -363 -137q-141 -133 -143 -344q0 -196 135 -327q131 -134 371 -138q223 2 358 138q137 131 139 339q0 195 -123 330q-125 137 -374 139zM569 858q170 -4 252 -137q78 -129 78 -303q-2 -207 -92 -297q-90 -92 -213 -90q-176 4 -254 141q-82 133 -80 297 q2 215 100 305q48 45 101 66q53 18 108 18zM821 1221q35 38 35 61q0 25 -37 55q-37 31 -63 27q-23 -6 -45 -49l-187 -346q6 -27 33 -25z" />
<glyph unicode="&#xf4;" horiz-adv-x="1159" d="M584 917q-226 -2 -363 -137q-141 -133 -143 -344q0 -196 135 -327q131 -134 371 -138q223 2 358 138q137 131 139 339q0 195 -123 330q-125 137 -374 139zM569 858q170 -4 252 -137q78 -129 78 -303q-2 -207 -92 -297q-90 -92 -213 -90q-176 4 -254 141q-82 133 -80 297 q2 215 100 305q48 45 101 66q53 18 108 18zM795 940q24 0 32 22l-209 371q-36 60 -75 0l-209 -371q8 -22 33 -22l184 217q20 27 31 27q8 0 28 -27z" />
<glyph unicode="&#xf5;" horiz-adv-x="1159" d="M584 917q-226 -2 -363 -137q-141 -133 -143 -344q0 -196 135 -327q131 -134 371 -138q223 2 358 138q137 131 139 339q0 195 -123 330q-125 137 -374 139zM569 858q170 -4 252 -137q78 -129 78 -303q-2 -207 -92 -297q-90 -92 -213 -90q-176 4 -254 141q-82 133 -80 297 q2 215 100 305q48 45 101 66q53 18 108 18zM467 1178q-37 0 -64 -7q-28 -8 -53 -34q-24 -29 -47 -82q-22 -56 -31 -88q13 -21 35 -11q33 62 70 90q39 27 106 27h219q66 -2 105 37q24 27 47 72q22 41 33 79q-15 21 -37 9q-37 -54 -68 -72q-30 -20 -96 -20h-219z" />
<glyph unicode="&#xf6;" horiz-adv-x="1159" d="M584 917q-226 -2 -363 -137q-141 -133 -143 -344q0 -196 135 -327q131 -134 371 -138q223 2 358 138q137 131 139 339q0 195 -123 330q-125 137 -374 139zM569 858q170 -4 252 -137q78 -129 78 -303q-2 -207 -92 -297q-90 -92 -213 -90q-176 4 -254 141q-82 133 -80 297 q2 215 100 305q48 45 101 66q53 18 108 18zM389 1014q90 2 94 100q0 37 -24 66q-25 26 -70 26q-43 0 -70 -26q-28 -29 -26 -72q2 -94 96 -94zM774 1014q90 2 92 100q0 37 -24 66q-25 26 -68 26t-70 -26q-28 -29 -28 -72q4 -94 98 -94z" />
<glyph unicode="&#xf7;" d="M508 262q-37 0 -64 -26q-28 -25 -28 -64q4 -88 92 -92q39 0 63 29q27 26 27 63q0 39 -27 64q-24 26 -63 26zM508 580q39 0 63 28q27 27 27 64q0 39 -27 63q-24 27 -63 27q-37 0 -64 -27q-28 -24 -28 -63q4 -88 92 -92zM907 471h-788v-100h788v100z" />
<glyph unicode="&#xf8;" horiz-adv-x="1159" d="M338 170q-78 135 -78 299q2 215 100 305q48 45 101 66q53 18 108 18q129 -2 207 -84zM821 717q78 -129 78 -299q-2 -207 -92 -297q-90 -92 -213 -90q-131 2 -211 82zM965 917q-9 45 -54 45l-71 -100q-103 53 -256 55q-226 -2 -363 -137q-141 -133 -143 -344 q0 -231 186 -368l-72 -101q7 -39 54 -45l78 109q108 -60 260 -60q223 2 358 138q137 131 139 339q0 238 -182 377z" />
<glyph unicode="&#xf9;" horiz-adv-x="1126" d="M197 346q-2 -199 88 -289q94 -86 290 -86q383 2 381 400v202q0 152 17 209q14 56 53 56l61 6q13 10 13 26q-2 17 -15 25q-90 -6 -170 -6q-82 0 -172 6q-12 -8 -12 -25q0 -16 8 -26l43 -6q66 -5 84 -60q17 -55 17 -205v-190q0 -154 -62 -246q-63 -96 -203 -96 q-145 0 -204 96q-64 92 -62 248v289q-2 102 17 131q16 26 79 33l39 6q13 12 13 28q-4 19 -17 23q-114 -6 -209 -6q-96 0 -198 6q-13 -4 -13 -23q0 -16 9 -28l28 -6q64 -9 82 -35q15 -27 15 -129v-328zM461 1315q-10 22 -21 35q-12 14 -24 14q-27 4 -64 -27q-37 -30 -37 -55 q0 -23 35 -61l264 -277q27 -2 33 25z" />
<glyph unicode="&#xfa;" horiz-adv-x="1126" d="M197 346q-2 -199 88 -289q94 -86 290 -86q383 2 381 400v202q0 152 17 209q14 56 53 56l61 6q13 10 13 26q-2 17 -15 25q-90 -6 -170 -6q-82 0 -172 6q-12 -8 -12 -25q0 -16 8 -26l43 -6q66 -5 84 -60q17 -55 17 -205v-190q0 -154 -62 -246q-63 -96 -203 -96 q-145 0 -204 96q-64 92 -62 248v289q-2 102 17 131q16 26 79 33l39 6q13 12 13 28q-4 19 -17 23q-114 -6 -209 -6q-96 0 -198 6q-13 -4 -13 -23q0 -16 9 -28l28 -6q64 -9 82 -35q15 -27 15 -129v-328zM854 1221q35 38 35 61q0 25 -37 55q-37 31 -64 27q-22 -6 -45 -49 l-186 -346q6 -27 33 -25z" />
<glyph unicode="&#xfb;" horiz-adv-x="1126" d="M197 346q-2 -199 88 -289q94 -86 290 -86q383 2 381 400v202q0 152 17 209q14 56 53 56l61 6q13 10 13 26q-2 17 -15 25q-90 -6 -170 -6q-82 0 -172 6q-12 -8 -12 -25q0 -16 8 -26l43 -6q66 -5 84 -60q17 -55 17 -205v-190q0 -154 -62 -246q-63 -96 -203 -96 q-145 0 -204 96q-64 92 -62 248v289q-2 102 17 131q16 26 79 33l39 6q13 12 13 28q-4 19 -17 23q-114 -6 -209 -6q-96 0 -198 6q-13 -4 -13 -23q0 -16 9 -28l28 -6q64 -9 82 -35q15 -27 15 -129v-328zM807 940q24 0 33 22l-209 371q-37 60 -76 0l-209 -371q8 -22 33 -22 l184 217q21 27 31 27q8 0 29 -27z" />
<glyph unicode="&#xfc;" horiz-adv-x="1126" d="M197 346q-2 -199 88 -289q94 -86 290 -86q383 2 381 400v202q0 152 17 209q14 56 53 56l61 6q13 10 13 26q-2 17 -15 25q-90 -6 -170 -6q-82 0 -172 6q-12 -8 -12 -25q0 -16 8 -26l43 -6q66 -5 84 -60q17 -55 17 -205v-190q0 -154 -62 -246q-63 -96 -203 -96 q-145 0 -204 96q-64 92 -62 248v289q-2 102 17 131q16 26 79 33l39 6q13 12 13 28q-4 19 -17 23q-114 -6 -209 -6q-96 0 -198 6q-13 -4 -13 -23q0 -16 9 -28l28 -6q64 -9 82 -35q15 -27 15 -129v-328zM401 1014q90 2 95 100q0 37 -25 66q-25 26 -70 26q-43 0 -69 -26 q-29 -29 -27 -72q2 -94 96 -94zM786 1014q90 2 93 100q0 37 -25 66q-25 26 -68 26t-69 -26q-29 -29 -29 -72q4 -94 98 -94z" />
<glyph unicode="&#xfd;" horiz-adv-x="897" d="M373 195q0 -86 -15 -111q-16 -27 -82 -33l-51 -6q-8 -8 -8 -25q0 -18 12 -26q131 6 222 6q90 0 221 -6q12 8 16 26q0 17 -12 25l-51 6q-64 6 -80 33q-19 25 -17 111v110q-2 43 13 78q12 37 65 119l127 205q45 73 70 98q24 22 67 28l49 11q13 12 13 28q-4 19 -17 23 q-82 -6 -145 -6q-68 0 -156 6q-14 -8 -14 -25q-2 -16 10 -26l43 -6q68 -2 15 -82l-82 -150q-52 -92 -99 -170q-45 80 -92 170l-76 146q-24 47 -18 63q4 18 37 23l29 6q14 10 14 26q-4 17 -16 25q-91 -6 -175 -6q-98 0 -188 6q-12 -4 -12 -23q-2 -16 6 -28l53 -11 q39 -4 64 -26q24 -23 53 -84l149 -277q39 -65 50 -96q8 -33 8 -78v-77zM760 1221q35 38 35 61q0 25 -37 55q-37 31 -64 27q-22 -6 -45 -49l-186 -346q6 -27 33 -25z" />
<glyph unicode="&#xfe;" horiz-adv-x="926" d="M215 215q0 -100 -14 -127q-17 -29 -82 -37l-39 -6q-8 -8 -8 -25q0 -18 12 -26q115 6 209 6t209 -6q12 8 16 26q0 17 -12 25l-39 6q-64 8 -80 37q-18 27 -16 127v346q-2 59 14 80q16 18 80 18q102 0 162 -49q57 -49 57 -147q0 -92 -51 -131q-53 -41 -142 -58 q-12 -16 0 -36q43 0 111 12q68 8 121 33q47 20 86 69t41 135q-2 93 -51 140q-47 49 -95 61q-77 25 -170 25h-163q-2 73 16 96q16 22 80 29l39 6q12 12 12 28q-4 19 -16 23q-115 -6 -209 -6t-209 6q-12 -4 -12 -23q0 -16 8 -28l39 -6q65 -7 82 -33q14 -29 14 -131v-459z" />
<glyph unicode="&#xff;" horiz-adv-x="897" d="M373 195q0 -86 -15 -111q-16 -27 -82 -33l-51 -6q-8 -8 -8 -25q0 -18 12 -26q131 6 222 6q90 0 221 -6q12 8 16 26q0 17 -12 25l-51 6q-64 6 -80 33q-19 25 -17 111v110q-2 43 13 78q12 37 65 119l127 205q45 73 70 98q24 22 67 28l49 11q13 12 13 28q-4 19 -17 23 q-82 -6 -145 -6q-68 0 -156 6q-14 -8 -14 -25q-2 -16 10 -26l43 -6q68 -2 15 -82l-82 -150q-52 -92 -99 -170q-45 80 -92 170l-76 146q-24 47 -18 63q4 18 37 23l29 6q14 10 14 26q-4 17 -16 25q-91 -6 -175 -6q-98 0 -188 6q-12 -4 -12 -23q-2 -16 6 -28l53 -11 q39 -4 64 -26q24 -23 53 -84l149 -277q39 -65 50 -96q8 -33 8 -78v-77zM276 1014q91 2 95 100q0 37 -25 66q-24 26 -70 26q-43 0 -69 -26q-29 -29 -27 -72q2 -94 96 -94zM661 1014q91 2 93 100q0 37 -25 66q-25 26 -68 26t-69 -26q-29 -29 -29 -72q4 -94 98 -94z" />
<glyph unicode="&#x131;" horiz-adv-x="586" d="M215 215q0 -100 -14 -127q-17 -29 -82 -37l-39 -6q-8 -8 -8 -25q0 -18 12 -26q115 6 209 6t209 -6q12 8 16 26q0 17 -12 25l-39 6q-64 8 -80 37q-18 27 -16 127v459q-2 102 16 131q16 26 80 33l39 6q12 12 12 28q-4 19 -16 23q-115 -6 -209 -6t-209 6q-12 -4 -12 -23 q0 -16 8 -28l39 -6q65 -7 82 -33q14 -29 14 -131v-459z" />
<glyph unicode="&#x141;" horiz-adv-x="1145" d="M274 582v-275q2 -155 -16 -203q-20 -49 -106 -53l-62 -6q-8 -10 -6 -27q0 -16 10 -24q156 6 266 6h189q162 0 295 -2q135 0 215 -4q24 53 55 158q12 47 23 86q8 34 8 43q-2 12 -19 16q-20 4 -32 -4q-68 -162 -136 -203q-20 -12 -69 -18q-51 -9 -180 -9q-58 0 -99 7 q-39 4 -63 10q-45 14 -62 31q-26 28 -34 77q-9 52 -9 144v366l312 209q10 45 -31 66l-281 -187v258q-2 158 19 207q20 51 106 51l49 5q9 8 9 28q-2 19 -13 23q-143 -6 -252 -6q-108 0 -266 6q-10 -4 -10 -23q-2 -20 6 -28l51 -5q95 0 117 -51q18 -49 16 -207v-374l-249 -170 q-2 -23 6 -39q8 -19 26 -27z" />
<glyph unicode="&#x142;" horiz-adv-x="876" d="M594 573q12 47 -29 62l-194 -127v166q-2 102 18 129q16 24 78 35l27 6q12 12 12 28q-4 19 -17 23q-100 -6 -196 -6q-94 0 -209 6q-12 -4 -12 -23q0 -16 8 -28l39 -6q65 -7 82 -33q14 -29 14 -131v-266l-170 -111q-4 -43 33 -57l137 88v-113q0 -100 -14 -127 q-17 -29 -82 -37l-39 -6q-8 -8 -8 -25q0 -18 12 -26q115 6 209 6h168q80 0 162 -2q86 0 180 -4q41 78 61 227q-4 17 -22 19q-17 2 -31 -11q-21 -61 -45 -94q-27 -33 -57 -51q-64 -27 -158 -25q-78 0 -111 11q-35 10 -47 22q-12 17 -16 55q-6 39 -6 86v195z" />
<glyph unicode="&#x152;" horiz-adv-x="2072" d="M1268 1352q-183 4 -367 6q-369 -2 -586 -195q-219 -190 -221 -497q2 -310 217 -492q211 -184 572 -186q100 2 196 6q101 6 207 6h125q139 0 274 -2q138 0 275 -4q55 129 92 285q-6 14 -23 20q-16 4 -28 -6q-84 -164 -146 -199q-30 -16 -86 -22q-57 -9 -174 -9 q-131 0 -182 17q-27 6 -41 16q-14 6 -25 15q-40 49 -38 213v288q-2 39 12 49q12 7 53 7h119q119 0 158 -11q30 -10 45 -28q14 -21 18 -49l21 -82q10 -9 26 -9q17 0 25 11q-6 77 -8 198q0 60 4 115t4 90q-8 12 -25 12q-16 0 -26 -10l-19 -82q-6 -39 -18 -53q-13 -14 -31 -20 q-41 -11 -174 -11h-119q-41 -2 -53 8q-14 9 -12 48v411q-2 55 8 72q10 10 51 10h147q138 0 199 -10q78 -19 109 -70q28 -53 47 -127q12 -8 28 -6q17 4 23 12q-6 74 -12 158q-9 82 -19 113q-59 -8 -276 -6h-346zM1141 252q0 -70 -11 -109q-12 -41 -51 -61q-67 -31 -178 -31 q-186 0 -305 70q-119 67 -184 164q-64 100 -88 204q-27 105 -25 185q-2 256 133 436t459 184q123 0 196 -24q25 -6 41 -39q13 -33 13 -109v-870z" />
<glyph unicode="&#x153;" horiz-adv-x="1497" d="M903 889l-270 12q-279 -4 -418 -141q-137 -140 -137 -330q0 -192 137 -313q135 -127 399 -129q70 2 138 6q69 6 147 6h156q82 0 168 -2q86 0 180 -4q41 78 61 227q-4 17 -22 19q-17 2 -31 -11q-21 -61 -45 -94q-27 -33 -59 -51q-64 -27 -162 -25q-84 0 -121 9 q-37 6 -51 20q-13 21 -17 61q-6 39 -6 87v147q-2 31 6 41q6 6 33 6h96q80 0 105 -14q22 -19 31 -64l10 -39q10 -8 26 -8q17 0 25 12q-4 80 -4 148q0 63 4 143q-8 12 -25 17q-16 0 -26 -13l-10 -39q-9 -45 -31 -61q-25 -16 -105 -16h-96q-27 0 -33 8q-8 6 -6 33v227 q-2 47 12 57q11 8 62 8h90q41 0 94 -6q53 -8 80 -43q19 -22 37 -98q12 -8 29 -8q16 0 24 12l-22 209q-41 -6 -191 -6h-262zM795 147q-2 -67 -56 -86q-53 -20 -127 -18q-161 2 -256 119q-96 110 -96 280q0 166 88 281t281 119q73 0 125 -19q43 -16 41 -102v-574z" />
<glyph unicode="&#x160;" horiz-adv-x="1001" d="M895 346q-2 145 -78 242q-76 94 -178 151l-164 103q-59 37 -115 102q-57 61 -59 150q-2 75 49 149q27 35 76 57q45 21 119 21q73 0 125 -21q49 -22 80 -57q30 -33 49 -74q16 -41 24 -80q10 -8 27 -4q16 0 24 11q-2 153 -36 249q-29 0 -72 13q-88 26 -191 26 q-200 -2 -307 -102q-110 -98 -110 -250q2 -125 73 -211q66 -88 148 -141l194 -127q111 -72 142 -143q18 -37 22 -72q4 -37 4 -72q0 -94 -61 -162q-66 -71 -195 -73q-88 0 -149 35q-62 32 -103 79q-38 50 -63 103q-25 51 -37 88q-6 8 -22 8q-17 -2 -27 -14q4 -76 20 -160 q11 -41 19 -74q6 -35 16 -53q31 -18 111 -45q80 -29 209 -31q202 2 319 107q115 100 117 272zM500 1462q45 -39 88 0l260 250q-2 27 -25 31l-246 -140q-20 -12 -32 -12q-15 0 -35 12l-242 140q-28 -2 -28 -31z" />
<glyph unicode="&#x161;" horiz-adv-x="766" d="M401 371q88 -43 117 -92q27 -50 27 -101q0 -72 -45 -108q-47 -39 -127 -39q-49 0 -92 26q-43 23 -74 58q-66 73 -78 135q-10 14 -27 14q-18 -2 -26 -18q0 -80 16 -133q14 -56 27 -78q22 -17 84 -37q59 -25 151 -27q156 2 244 72q88 68 90 188q-2 105 -53 168 q-53 66 -113 92l-127 66q-61 33 -98 72q-39 37 -39 90q0 55 39 96t127 43q90 -2 135 -59q25 -25 37 -58q12 -30 18 -59q11 -8 31 -8q19 0 23 12q0 141 -29 201q-51 10 -92 20q-45 10 -99 10q-319 -8 -321 -253q2 -84 55 -146q51 -61 127 -100zM168 1384q-25 0 -33 -22 l209 -371q39 -57 76 0l209 371q-9 22 -33 22l-184 -217q-19 -24 -27 -24q-10 0 -33 24z" />
<glyph unicode="&#x178;" horiz-adv-x="1175" d="M688 418q-2 110 14 170q17 57 82 162l129 223q74 135 136 223q59 86 135 100l57 11q12 10 12 26q-4 17 -16 25q-100 -6 -191 -6q-90 0 -196 6q-12 -6 -12 -23q0 -16 8 -28l37 -5q39 -2 63 -12q23 -10 23 -20q-2 -23 -43 -105q-43 -82 -90 -166q-95 -180 -193 -346 q-119 219 -231 455q-11 22 -35 80q-8 28 -19 49q-10 22 -10 29q-2 12 19 20q16 8 67 16l27 5q10 12 10 28q-2 19 -16 23q-78 -6 -219 -6q-144 0 -238 6q-10 -6 -10 -23q-2 -16 6 -28l57 -11q45 -2 80 -28q33 -29 82 -127l242 -471q45 -80 57 -127q8 -47 8 -127v-105 q2 -157 -16 -207q-21 -49 -107 -53l-63 -6q-8 -10 -6 -27q0 -16 10 -24q151 6 268 6q107 0 279 -6q10 8 12 24q0 17 -8 27l-78 6q-80 2 -102 51q-23 52 -21 209v107zM428 1448q47 0 74 31q26 28 26 75q0 43 -26 72q-27 29 -74 31q-47 -2 -76 -31q-28 -31 -26 -78 q0 -49 30 -74q29 -26 72 -26zM833 1448q48 0 74 31q25 28 25 75q0 43 -25 72q-26 29 -74 31q-47 -2 -75 -31q-29 -31 -29 -78q0 -49 31 -74q28 -26 73 -26z" />
<glyph unicode="&#x192;" d="M240 821q-11 -10 -11 -31q0 -22 11 -34h174q-58 -367 -135 -797q-13 -72 -35 -102q-25 -31 -54 -31q-22 2 -53 27q-31 22 -63 55q-8 12 -19 22q-10 7 -22 7q-10 2 -27 -17q-16 -20 -18 -65q0 -29 35 -64q34 -39 98 -41q82 2 129 37q47 31 74 61q49 54 96 199 q45 145 94 404q31 153 59 305h246q14 14 14 34q0 21 -14 31h-225q26 154 74 305q24 72 61 117q33 41 82 43q37 0 63 -29q25 -32 45 -79q19 -41 46 -39q18 0 45 24q26 25 28 74q0 37 -47 74q-49 34 -149 36q-70 0 -123 -22q-53 -25 -90 -59q-37 -35 -62 -70q-24 -37 -37 -61 q-67 -150 -98 -314h-192z" />
<glyph unicode="&#x2c6;" horiz-adv-x="737" d="M584 940q24 0 32 22l-208 371q-37 60 -76 0l-209 -371q8 -22 33 -22l184 217q20 27 31 27q8 0 28 -27z" />
<glyph unicode="&#x2c7;" horiz-adv-x="737" d="M154 1384q-25 0 -33 -22l209 -371q39 -57 75 0l209 371q-8 22 -32 22l-185 -217q-18 -24 -26 -24q-11 0 -33 24z" />
<glyph unicode="&#x2d8;" horiz-adv-x="737" d="M369 1059q270 0 270 274q-19 17 -39 0q-18 -82 -78 -123q-63 -41 -153 -41t-150 41q-61 41 -82 123q-18 17 -39 0q0 -274 271 -274z" />
<glyph unicode="&#x2d9;" horiz-adv-x="737" d="M369 1014q90 2 94 100q0 37 -25 66q-24 26 -69 26q-43 0 -70 -26q-29 -29 -27 -72q2 -94 97 -94z" />
<glyph unicode="&#x2da;" horiz-adv-x="737" d="M369 1358q-90 -2 -146 -58q-59 -57 -59 -137q0 -78 59 -133q56 -59 146 -61q94 2 149 61q53 55 55 133q-2 80 -55 137q-55 56 -149 58zM260 1163q0 58 33 92q29 35 76 35q49 0 79 -35q29 -34 29 -92q0 -55 -29 -90q-30 -37 -79 -37q-47 0 -76 37q-33 35 -33 90z" />
<glyph unicode="&#x2db;" horiz-adv-x="737" d="M408 0q-211 -143 -209 -270q0 -56 39 -103q36 -49 127 -51q53 0 100 25q47 20 76 63q2 23 -19 23q-33 -33 -90 -33q-47 2 -78 33q-32 28 -32 78q0 63 51 124q47 60 116 111h-81z" />
<glyph unicode="&#x2dc;" horiz-adv-x="737" d="M256 1178q-37 0 -64 -7q-28 -8 -53 -34q-24 -29 -47 -82q-22 -56 -31 -88q13 -21 35 -11q33 62 70 90q39 27 106 27h219q66 -2 105 37q24 27 47 72q23 41 33 79q-15 21 -37 9q-37 -54 -68 -72q-30 -20 -96 -20h-219z" />
<glyph unicode="&#x2013;" d="M0 471v-100h1024v100h-1024z" />
<glyph unicode="&#x2014;" horiz-adv-x="2048" d="M0 471v-100h2048v100h-2048z" />
<glyph unicode="&#x2018;" horiz-adv-x="481" d="M270 969q60 0 80 32q19 27 19 52q0 30 -17 45q-16 12 -39 12q-30 4 -63 31q-39 26 -39 84q0 63 51 108q47 43 105 68q8 12 4 24q-6 13 -19 19q-98 -29 -166 -101q-71 -69 -73 -178q0 -82 49 -137q45 -59 108 -59z" />
<glyph unicode="&#x2019;" horiz-adv-x="481" d="M211 1433q-57 -2 -78 -28q-20 -29 -20 -55q0 -29 18 -41q16 -15 37 -17q35 0 68 -26q32 -31 34 -88q-2 -62 -47 -105q-47 -45 -108 -72q-6 -10 -2 -22t16 -21q100 31 170 103q68 71 70 176q-2 82 -47 139q-46 55 -111 57z" />
<glyph unicode="&#x201a;" horiz-adv-x="440" d="M190 205q-57 -2 -77 -29q-21 -29 -21 -55q0 -29 19 -41q16 -14 36 -17q35 0 68 -26q33 -31 35 -88q-2 -62 -47 -105q-47 -45 -109 -71q-6 -11 -2 -23t17 -20q100 30 170 102q67 72 69 176q0 82 -45 139q-45 56 -113 58z" />
<glyph unicode="&#x201c;" horiz-adv-x="827" d="M616 969q60 0 80 32q19 27 19 52q0 30 -17 45q-16 12 -39 12q-30 4 -63 31q-39 26 -39 84q0 63 51 108q47 43 105 68q8 12 4 24q-6 13 -19 19q-98 -29 -166 -101q-71 -69 -73 -178q0 -82 49 -137q45 -59 108 -59zM270 969q60 0 80 32q19 27 19 52q0 30 -17 45 q-16 12 -39 12q-30 4 -63 31q-39 26 -39 84q0 63 51 108q47 43 105 68q8 12 4 24q-6 13 -19 19q-98 -29 -166 -101q-71 -69 -73 -178q0 -82 49 -137q45 -59 108 -59z" />
<glyph unicode="&#x201d;" horiz-adv-x="827" d="M557 1433q-57 -2 -78 -28q-20 -29 -20 -55q0 -29 18 -41q17 -15 37 -17q35 0 68 -26q32 -31 34 -88q-2 -62 -47 -105q-47 -45 -108 -72q-6 -10 -2 -22t16 -21q100 31 170 103q68 71 70 176q-2 82 -47 139q-45 55 -111 57zM211 1433q-57 -2 -78 -28q-20 -29 -20 -55 q0 -29 18 -41q16 -15 37 -17q35 0 68 -26q32 -31 34 -88q-2 -62 -47 -105q-47 -45 -108 -72q-6 -10 -2 -22t16 -21q100 31 170 103q68 71 70 176q-2 82 -47 139q-46 55 -111 57z" />
<glyph unicode="&#x201e;" horiz-adv-x="786" d="M537 205q-58 -2 -78 -29q-21 -29 -21 -55q0 -29 19 -41q16 -14 37 -17q34 0 67 -26q33 -31 35 -88q-2 -62 -47 -105q-47 -45 -109 -71q-6 -11 -2 -23t17 -20q100 30 170 102q67 72 69 176q0 82 -45 139q-45 56 -112 58zM190 205q-57 -2 -77 -29q-21 -29 -21 -55 q0 -29 19 -41q16 -14 36 -17q35 0 68 -26q33 -31 35 -88q-2 -62 -47 -105q-47 -45 -109 -71q-6 -11 -2 -23t17 -20q100 30 170 102q67 72 69 176q0 82 -45 139q-45 56 -113 58z" />
<glyph unicode="&#x2020;" horiz-adv-x="983" d="M524 -260v280q0 177 23 297q18 121 49 220q-80 98 -74 358q94 -2 158 -31q61 -31 106 -33q95 2 95 91q0 83 -95 88q-45 -2 -106 -29q-64 -31 -158 -33q0 86 10 144q11 55 23 90q29 65 31 104q0 33 -21 66q-20 30 -74 32q-51 -2 -71 -32q-23 -33 -23 -66q2 -39 33 -104 q29 -68 31 -234q-94 2 -154 33q-63 27 -108 29q-47 0 -72 -25t-25 -63q0 -89 97 -91q45 2 108 33q60 29 154 31q4 -260 -74 -358q31 -99 53 -220q19 -120 19 -297v-280h65z" />
<glyph unicode="&#x2021;" horiz-adv-x="983" d="M491 1384q-49 -2 -69 -30q-23 -31 -23 -64q2 -39 33 -104q27 -66 29 -230q-88 2 -156 29q-31 12 -57 23q-29 10 -53 10q-93 -4 -91 -88q-2 -84 91 -86q51 4 112 30q60 27 154 29q4 -229 -74 -315q78 -70 74 -338q-88 2 -156 29q-31 12 -57 22q-29 10 -53 10 q-93 -4 -91 -88q-2 -84 91 -86q51 4 112 31q60 27 154 29q0 -82 -6 -140q-11 -57 -23 -98q-12 -39 -22 -65q-11 -27 -11 -52q0 -30 23 -61q20 -33 69 -35q52 2 72 35q21 31 21 61q-2 41 -29 117q-12 41 -23 98q-10 58 -10 140q94 -2 158 -29q61 -29 108 -31q91 2 91 86 t-91 88q-24 0 -51 -10q-28 -10 -59 -22q-68 -27 -156 -29q-6 268 74 338q-80 86 -74 315q94 -2 158 -29q61 -28 108 -30q91 2 91 86t-91 88q-24 0 -51 -10q-28 -11 -59 -23q-68 -27 -156 -29q0 84 10 142q11 55 23 88q12 37 22 59q7 25 7 45q0 33 -21 64q-20 28 -72 30z" />
<glyph unicode="&#x2022;" horiz-adv-x="795" d="M397 973q-121 -2 -200 -82q-82 -80 -84 -203q2 -121 84 -201q79 -82 200 -82q123 0 203 82q80 80 82 201q-2 123 -82 203t-203 82z" />
<glyph unicode="&#x2026;" horiz-adv-x="2048" d="M1024 -29q53 2 84 33t31 80q0 51 -31 86t-84 35q-49 0 -82 -33q-33 -35 -33 -88q0 -51 37 -80q33 -31 78 -33zM1706 -29q53 2 84 33t31 80q0 51 -31 86t-84 35q-49 0 -82 -33q-33 -35 -33 -88q0 -51 37 -80q33 -31 78 -33zM342 -29q53 2 84 33t31 80q0 51 -31 86t-84 35 q-49 0 -82 -33q-33 -35 -33 -88q0 -51 37 -80q33 -31 78 -33z" />
<glyph unicode="&#x2030;" horiz-adv-x="2343" d="M1554 348q0 129 -69 250q-37 57 -92 94q-58 35 -138 35q-77 0 -133 -35q-57 -37 -94 -94q-72 -121 -72 -250q0 -57 19 -121q18 -65 53 -123q37 -55 94 -94q56 -37 133 -39q80 2 138 39q55 39 92 94q69 121 69 244zM1413 348q2 -84 -25 -196q-14 -52 -45 -86 q-32 -37 -86 -37q-51 0 -82 37q-30 34 -49 86q-14 51 -20 104q-8 53 -8 92q-2 90 28 203q19 51 49 86q31 33 82 33q54 0 86 -33q31 -35 45 -88q27 -113 25 -201zM690 932q0 129 -70 250q-36 57 -92 94q-57 35 -137 35q-78 0 -133 -35q-57 -37 -94 -94q-72 -121 -72 -250 q0 -58 19 -121q18 -66 53 -123q37 -55 94 -94q55 -39 133 -39q80 0 137 39q56 39 92 94q70 121 70 244zM549 932q2 -84 -25 -197q-14 -51 -45 -86q-33 -37 -86 -37q-51 0 -82 37q-30 35 -49 86q-14 51 -20 105q-9 53 -9 92q-2 90 29 203q19 51 49 86q31 32 82 32 q53 0 86 -32q31 -35 45 -89q27 -112 25 -200zM2251 348q0 129 -70 250q-37 57 -92 94q-58 35 -137 35q-78 0 -134 -35q-57 -37 -94 -94q-71 -121 -71 -250q0 -57 18 -121q18 -65 53 -123q37 -55 94 -94q56 -37 134 -39q79 2 137 39q55 39 92 94q70 121 70 244zM2109 348 q2 -84 -24 -196q-15 -52 -45 -86q-33 -37 -86 -37q-52 0 -82 37q-31 34 -49 86q-15 51 -21 104q-8 53 -8 92q-2 90 29 203q18 51 49 86q30 33 82 33q53 0 86 -33q30 -35 45 -88q26 -113 24 -201zM1261 1300q-32 37 -67 35l-827 -1372q2 -43 61 -45z" />
<glyph unicode="&#x2039;" horiz-adv-x="477" d="M385 733q-10 25 -35 27q-117 -154 -244 -307q-28 -31 0 -64q127 -153 244 -309q27 6 35 26l-143 291q-11 23 0 49z" />
<glyph unicode="&#x203a;" horiz-adv-x="477" d="M236 446q10 -26 0 -49l-144 -291q8 -20 35 -26q117 156 244 309q28 33 0 64q-127 153 -244 307q-23 -2 -35 -27z" />
<glyph unicode="&#x2122;" horiz-adv-x="2253" d="M440 733q0 -84 -12 -121q-16 -37 -66 -39l-61 -4q-8 -8 -8 -22q0 -17 10 -23q105 4 209 4q96 0 203 -4q10 6 12 23q0 14 -10 22l-53 4q-56 7 -70 41q-14 37 -12 119v514q-2 35 6 43q8 6 39 6h92q94 0 125 -22q30 -25 39 -101q8 -6 24 -4q15 0 19 9q-2 43 4 104 q6 57 16 94l-27 4q-14 -16 -36 -22q-27 -6 -74 -6h-530q-64 0 -87 8q-20 8 -30 33h-27q-16 -84 -53 -203q4 -8 20 -12q15 -5 25 2q22 69 68 96q45 20 124 20h76q33 0 41 -6q4 -8 4 -43v-514zM1874 672q4 -54 -6 -74q-11 -21 -60 -25l-41 -4q-8 -6 -8 -20q0 -17 10 -25 q82 4 181 4q73 0 155 -4q10 8 10 25q0 14 -8 20l-43 4q-33 2 -45 23q-14 20 -16 72q-10 264 -10 528q0 55 20 82q16 24 68 29l36 4q11 8 11 24q-2 17 -13 21q-65 -4 -139 -4q-45 0 -110 4q-25 -82 -64 -166q-39 -82 -67 -131l-97 -180q-26 -54 -49 -93q-22 -41 -31 -47 q-8 11 -32 56l-39 65l-121 229q-27 52 -59 134q-15 38 -25 73q-12 35 -16 60q-86 -4 -134 -4q-69 0 -135 4q-6 -4 -6 -19q-4 -16 2 -26l31 -4q55 -5 76 -25q16 -23 16 -76q0 -121 -8 -252q-4 -98 -12 -180q-9 -82 -13 -106q-4 -54 -22 -72q-21 -19 -62 -23l-28 -4 q-6 -6 -4 -20q0 -17 6 -25q92 4 157 4q80 0 146 -4q6 8 8 25q0 14 -6 20l-39 4q-45 4 -59 31q-13 27 -15 96q0 140 6 269q4 45 7 112q4 64 6 76q10 -8 37 -55q26 -49 45 -90l120 -242q64 -119 115 -252q12 -6 27 2q20 55 71 156q52 98 68 129l117 219q22 41 49 86 q24 45 28 47q5 -8 5 -43z" />
<glyph unicode="&#x2212;" d="M907 471h-788v-100h788v100z" />
<glyph unicode="&#x2215;" horiz-adv-x="205" d="M-375 -29q4 -51 56 -53q444 688 901 1374q-25 47 -64 47q-440 -684 -893 -1368z" />
<glyph unicode="&#x2219;" horiz-adv-x="512" d="M256 303q53 0 84 33q31 31 31 80q0 51 -31 86t-84 35q-49 0 -82 -33q-33 -35 -33 -88q0 -51 37 -80q33 -33 78 -33z" />
<glyph unicode="&#x25fc;" horiz-adv-x="895" d="M0 895h895v-895h-895v895z" />
<glyph unicode="&#xf001;" horiz-adv-x="1425" d="M215 215q0 -100 -14 -127q-17 -29 -82 -37l-39 -6q-8 -8 -8 -25q0 -18 12 -26q115 6 209 6q88 0 233 -6q13 8 17 26q0 17 -13 25l-63 6q-64 2 -80 33q-18 31 -16 131v152q-2 30 6 41q6 6 33 6h110q80 0 105 -15q22 -18 30 -63l11 -39q10 -8 26 -8q17 0 25 12 q-4 80 -4 147q0 64 4 144q-8 12 -25 16q-16 0 -26 -12l-11 -39q-8 -45 -30 -61q-25 -17 -105 -17h-110q-27 0 -33 8q-8 7 -6 33v238q-2 53 12 63q14 8 57 8h80q39 0 94 -4q54 -6 80 -45q19 -22 37 -98q12 -12 29 -10q16 0 24 14q-8 152 -10 209q-51 -6 -197 -6h-284 q-49 0 -96 2q-45 0 -88 4q-13 -4 -13 -23q0 -16 8 -28l25 -6q57 -9 74 -35q12 -27 12 -129v-459zM1055 215q0 -100 -15 -127q-16 -29 -82 -37l-39 -6q-8 -8 -8 -25q0 -18 13 -26q114 6 208 6q95 0 209 -6q13 8 17 26q0 17 -13 25l-38 6q-64 8 -80 37q-19 27 -17 127v459 q-2 102 17 131q16 26 80 33l38 6q13 12 13 28q-4 19 -17 23q-114 -6 -209 -6q-94 0 -208 6q-13 -4 -13 -23q0 -16 8 -28l39 -6q66 -7 82 -33q15 -29 15 -131v-459z" />
<glyph unicode="&#xf002;" horiz-adv-x="1704" d="M215 215q0 -100 -14 -127q-17 -29 -82 -37l-39 -6q-8 -8 -8 -25q0 -18 12 -26q115 6 209 6q88 0 233 -6q13 8 17 26q0 17 -13 25l-63 6q-64 2 -80 33q-18 31 -16 131v152q-2 30 6 41q6 6 33 6h110q80 0 105 -15q22 -18 30 -63l11 -39q10 -8 26 -8q17 0 25 12 q-4 80 -4 147q0 64 4 144q-8 12 -25 16q-16 0 -26 -12l-11 -39q-8 -45 -30 -61q-25 -17 -105 -17h-110q-27 0 -33 8q-8 7 -6 33v238q-2 53 12 63q14 8 57 8h80q39 0 94 -4q54 -6 80 -45q19 -22 37 -98q12 -12 29 -10q16 0 24 14q-8 152 -10 209q-51 -6 -197 -6h-284 q-49 0 -96 2q-45 0 -88 4q-13 -4 -13 -23q0 -16 8 -28l25 -6q57 -9 74 -35q12 -27 12 -129v-459zM1055 215q0 -100 -15 -127q-16 -29 -82 -37l-39 -6q-8 -8 -8 -25q0 -18 13 -26q114 6 208 6h168q80 0 162 -2q86 0 180 -4q41 78 62 227q-4 17 -23 19q-16 2 -30 -11 q-21 -61 -45 -94q-27 -33 -58 -51q-63 -27 -158 -25q-77 0 -110 11q-35 10 -47 22q-12 17 -17 55q-6 39 -6 86v441q-2 102 19 129q16 24 78 35l26 6q12 12 12 28q-4 19 -16 23q-100 -6 -197 -6q-94 0 -208 6q-13 -4 -13 -23q0 -16 8 -28l39 -6q66 -7 82 -33q15 -29 15 -131 v-459z" />
<glyph horiz-adv-x="0" />
</font>
</defs>
</svg>
