<?xml version="1.0" standalone="no"?>
<!DOCTYPE svg PUBLIC "-//W3C//DTD SVG 1.1//EN" "http://www.w3.org/Graphics/SVG/1.1/DTD/svg11.dtd" >
<svg xmlns="http://www.w3.org/2000/svg">
<metadata></metadata>
<defs>
<font id="akzidenz_grotesk_lightregular" horiz-adv-x="1024" >
<font-face units-per-em="2048" ascent="1638" descent="-410" />
<missing-glyph horiz-adv-x="569" />
<glyph horiz-adv-x="2048" />
<glyph horiz-adv-x="2048" />
<glyph unicode="&#xd;" horiz-adv-x="569" />
<glyph unicode=" "  horiz-adv-x="569" />
<glyph unicode="&#x09;" horiz-adv-x="569" />
<glyph unicode="&#xa0;" horiz-adv-x="569" />
<glyph unicode="!" horiz-adv-x="569" d="M207 0v238h155v-238h-155zM215 674v784h139v-784l-18 -328h-103z" />
<glyph unicode="&#x22;" horiz-adv-x="645" d="M159 897v561h103v-561h-103zM385 897v561h103v-561h-103z" />
<glyph unicode="#" horiz-adv-x="1139" d="M55 477v90h246l45 326h-233v90h245l66 475h102l-65 -475h287l65 475h102l-65 -475h233v-90h-245l-45 -326h233v-90h-246l-65 -477h-103l66 477h-287l-65 -477h-103l66 477h-234zM403 567h287l45 326h-286z" />
<glyph unicode="$" horiz-adv-x="1139" d="M-10 358l149 15q44 -108 143 -187q105 -84 216 -84v615q-208 61 -299 135q-117 95 -117 260q0 184 145 287q119 84 271 84v135h123v-135q175 -19 276.5 -102t151.5 -251l-150 -10q-82 236 -278 236v-531q269 -81 354 -145q129 -97 129 -289q0 -178 -154 -301 q-143 -115 -329 -115v-198h-123v198q-166 0 -311 114q-136 108 -197 269zM221 1128q0 -114 88 -184q57 -45 189 -86v498q-104 0 -183 -53q-94 -64 -94 -175zM621 102q124 0 219 60q125 78 125 229q0 148 -162 225q-49 23 -182 66v-580z" />
<glyph unicode="%" horiz-adv-x="1821" d="M213 1100q0 151 70 258q81 125 227 125t227 -123q70 -106 70 -260q0 -156 -68 -260q-79 -123 -227 -123q-151 0 -231 123q-68 103 -68 260zM315 1100q0 -281 195 -281t195 281q0 280 -195 280t-195 -280zM457 -37l807 1555l77 -39l-806 -1553zM1014 358q0 152 69 258 q82 125 228 125t227 -123q70 -105 70 -260q0 -156 -68 -260q-80 -123 -227 -123q-151 0 -232 123q-67 104 -67 260zM1116 358q0 -280 195 -280q194 0 194 280q0 281 -194 281q-195 0 -195 -281z" />
<glyph unicode="&#x26;" horiz-adv-x="1290" d="M90 397q0 152 119 289q96 113 252 197q-63 91 -86 145q-33 77 -33 166q0 134 80 211.5t215 77.5q128 0 204.5 -69t76.5 -195q0 -121 -89 -222q-54 -62 -190 -155q61 -104 149 -234l156 -227q51 121 64 266h122q0 -205 -104 -371q87 -111 127 -139q50 -35 109 -35v-127 q-76 0 -138 31q-73 37 -174 154q-173 -185 -405 -185q-193 0 -321 114q-134 118 -134 308zM229 397q0 -131 92 -219t224 -88q191 0 334 168q-77 96 -140 186q-26 39 -211 332q-148 -92 -204 -151q-95 -100 -95 -228zM465 1194q0 -59 35 -129q10 -21 69 -117q107 65 150 107 q76 74 76 164q0 67 -45 108t-113 41q-79 0 -125.5 -47.5t-46.5 -126.5z" />
<glyph unicode="'" horiz-adv-x="569" d="M233 897v561h103v-561h-103z" />
<glyph unicode="(" horiz-adv-x="606" d="M94 590q0 312 116 559q129 277 382 416v-107q-186 -143 -278 -390q-81 -215 -81 -478q0 -594 359 -869v-106q-249 139 -380 417q-118 250 -118 558z" />
<glyph unicode=")" horiz-adv-x="606" d="M13 -283q186 143 278 390q81 215 81 478q0 594 -359 869v106q249 -139 380 -417q118 -250 118 -558q0 -312 -116 -559q-129 -277 -382 -416v107z" />
<glyph unicode="*" horiz-adv-x="569" d="M39 1237l24 98l173 -61l-7 184h111l-10 -184l176 61l24 -98l-178 -51l111 -139l-88 -56l-92 156l-95 -156l-88 56l113 143z" />
<glyph unicode="+" horiz-adv-x="1229" d="M96 467v102h467v467h103v-467h467v-102h-467v-467h-103v467h-467z" />
<glyph unicode="," horiz-adv-x="569" d="M186 -272q88 100 88 272h-67v238h155v-222q0 -176 -106 -340z" />
<glyph unicode="-" horiz-adv-x="758" d="M92 475v127h574v-127h-574z" />
<glyph unicode="." horiz-adv-x="569" d="M207 0v238h155v-238h-155z" />
<glyph unicode="/" horiz-adv-x="948" d="M27 -37l786 1532h109l-787 -1532h-108z" />
<glyph unicode="0" horiz-adv-x="1139" d="M55 729q0 376 156 576q139 178 358 178q222 0 359 -176q155 -201 155 -578q0 -375 -155 -575q-139 -179 -359 -179q-221 0 -358 177q-156 200 -156 577zM195 729q0 -358 135 -522q96 -117 239 -117q144 0 240 117q135 164 135 522t-135 522q-96 117 -240 117 q-143 0 -239 -117q-135 -164 -135 -522z" />
<glyph unicode="1" horiz-adv-x="1139" d="M297 1120v115q274 0 274 223h119v-1458h-123v1184q-107 -64 -270 -64z" />
<glyph unicode="2" horiz-adv-x="1139" d="M86 1053q0 206 138 321q129 109 339 109q232 0 366 -118q140 -124 140 -353q0 -323 -453 -674q-127 -99 -331 -223h716v-115h-911v115l311 213q221 151 357 307q172 198 172 385q0 155 -101.5 251.5t-257.5 96.5q-158 0 -257 -84q-105 -90 -105 -246q0 -141 92 -245 l-164 16q-51 111 -51 244z" />
<glyph unicode="3" horiz-adv-x="1139" d="M61 420l140 45q0 -207 135 -303q100 -72 244 -72q142 0 240 80q106 86 106 225q0 195 -133 262q-89 45 -271 45h-123q-24 0 -65 -4v121l184 -2q379 0 379 254q0 145 -88 223q-85 74 -231 74q-315 0 -349 -319l-139 36q98 398 502 398q225 0 344 -129q100 -109 100 -258 q0 -146 -79 -234q-82 -92 -226 -92q334 -31 334 -369q0 -202 -144 -318q-133 -108 -339 -108q-224 0 -359 110q-141 116 -162 335z" />
<glyph unicode="4" horiz-adv-x="1139" d="M70 365v114l637 979h135v-979h231v-114h-231v-365h-123v365h-649zM209 479h510v768z" />
<glyph unicode="5" horiz-adv-x="1139" d="M66 393l135 39q16 -154 97 -244q89 -98 239 -98q184 0 281 115q91 107 91 297q0 180 -87 282q-94 109 -271 109q-235 0 -307 -266l-119 8l43 823h770v-127h-655l-27 -485q91 162 315 162q261 0 385 -183q93 -134 93 -325q0 -190 -97 -330q-133 -195 -415 -195 q-197 0 -320 113q-119 108 -151 305z" />
<glyph unicode="6" horiz-adv-x="1139" d="M70 680q0 803 557 803q344 0 430 -326l-139 -45q-31 256 -293 256q-221 0 -320 -180q-70 -128 -96 -402q64 89 166 143t209 54q197 0 325 -109q160 -134 160 -409q0 -205 -117 -338q-133 -152 -379 -152q-503 0 -503 705zM209 508q0 -171 97 -290q105 -128 272 -128 q164 0 260 107q92 102 92 270q0 176 -78 282q-89 119 -260 119q-160 0 -270 -99q-113 -102 -113 -261z" />
<glyph unicode="7" horiz-adv-x="1139" d="M111 1006v452h938v-115q-228 -285 -367 -631q-152 -375 -152 -712h-139q39 402 156 700q110 283 358 631h-672v-325h-122z" />
<glyph unicode="8" horiz-adv-x="1139" d="M59 416q0 134 81 232q77 94 208 134q-89 17 -162 95q-86 92 -86 223q0 135 80 233q121 150 389 150q267 0 387 -148q82 -100 82 -235q0 -129 -86 -221q-74 -80 -161 -93q124 -41 204 -140q84 -103 84 -230q0 -221 -148 -336q-134 -105 -362 -105q-198 0 -338 97 q-172 119 -172 344zM199 397q0 -146 115 -231q104 -76 255 -76q155 0 257 75q114 83 114 232q0 159 -109 242q-98 76 -262 76q-163 0 -261 -76q-109 -83 -109 -242zM240 1102q0 -125 105 -203q95 -70 224 -70q169 0 260 103q70 77 70 170q0 101 -61 170q-86 96 -269 96 q-141 0 -229 -62q-100 -70 -100 -204z" />
<glyph unicode="9" horiz-adv-x="1139" d="M70 993q0 205 117 338q133 152 379 152q503 0 503 -705q0 -803 -557 -803q-344 0 -430 326l139 45q31 -256 293 -256q221 0 320 180q70 128 96 402q-64 -89 -166 -143t-209 -54q-197 0 -325 109q-160 134 -160 409zM209 991q0 -176 78 -282q89 -119 260 -119 q160 0 270 99q113 102 113 261q0 171 -97 290q-105 128 -272 128q-164 0 -260 -107q-92 -102 -92 -270z" />
<glyph unicode=":" horiz-adv-x="569" d="M207 0v238h155v-238h-155zM207 731v238h155v-238h-155z" />
<glyph unicode=";" horiz-adv-x="569" d="M186 -272q88 100 88 272h-67v238h155v-222q0 -176 -106 -340zM207 731v238h155v-238h-155z" />
<glyph unicode="&#x3c;" horiz-adv-x="1229" d="M96 463v110l1037 480v-113l-912 -422l912 -422v-112z" />
<glyph unicode="=" horiz-adv-x="1229" d="M96 268v103h1037v-103h-1037zM96 666v102h1037v-102h-1037z" />
<glyph unicode="&#x3e;" horiz-adv-x="1229" d="M96 -16l1037 479v110l-1037 480v-113l912 -422l-912 -422v-112z" />
<glyph unicode="?" horiz-adv-x="985" d="M86 1124q0 144 86 244q109 127 315 127q183 0 297.5 -110t114.5 -291q0 -164 -98 -287l-183 -178q-100 -100 -100 -203v-70h-123v123q0 119 94 209l177 168q94 90 94 238q0 120 -76 197t-197 77q-114 0 -195 -72q-83 -75 -83 -188q0 -63 14 -113q5 -15 41 -106l-153 45 q-25 74 -25 190zM379 0v238h156v-238h-156z" />
<glyph unicode="@" horiz-adv-x="1638" d="M53 735q0 322 241 544q235 216 560 216q294 0 505 -168q226 -181 226 -469q0 -200 -139 -385q-152 -203 -356 -203q-66 0 -102 38t-30 104q-150 -142 -307 -142q-131 0 -213 88q-80 85 -80 217q0 228 142 410q155 201 389 201q161 0 235 -178l56 139h116l-213 -610 q-22 -65 -22 -103q0 -61 53 -61q158 0 270 178q99 155 99 313q0 240 -197 389q-183 140 -428 140q-289 0 -493 -191q-209 -195 -209 -481q0 -288 204 -474q198 -181 488 -181q397 0 575 274h125q-99 -177 -292 -279q-184 -98 -394 -98q-353 0 -578 208q-231 214 -231 564z M498 590q0 -94 44 -152q49 -65 140 -65q141 0 256 194q100 170 100 314q0 80 -44 133q-47 57 -126 57q-155 0 -270 -176q-100 -154 -100 -305z" />
<glyph unicode="A" horiz-adv-x="1251" d="M-10 0l594 1458h112l566 -1458h-150l-164 438h-641l-174 -438h-143zM354 553h549l-270 719z" />
<glyph unicode="B" horiz-adv-x="1327" d="M133 0v1458h627q177 0 296 -80q138 -92 138 -262q0 -272 -266 -325q152 -19 237 -127q82 -103 82 -258q0 -201 -139 -308q-126 -98 -334 -98h-641zM272 127h504q142 0 232 67q100 75 100 212q0 156 -116 239q-101 72 -265 72h-455v-590zM272 844h447q336 0 336 246 q0 141 -96 197q-74 44 -228 44h-459v-487z" />
<glyph unicode="C" horiz-adv-x="1327" d="M90 729q0 389 186 590q164 176 426 176q223 0 357 -86q138 -88 223 -291l-139 -69q-52 170 -150 244.5t-276 74.5q-255 0 -382 -200q-106 -168 -106 -439q0 -639 510 -639q303 0 410 309l133 -71q-141 -365 -569 -365q-322 0 -483 229q-140 199 -140 537z" />
<glyph unicode="D" horiz-adv-x="1403" d="M164 0v1458h573q303 0 455 -244q121 -194 121 -485q0 -282 -129 -479q-164 -250 -486 -250h-534zM303 127h387q251 0 377 190q107 161 107 412q0 239 -99 401q-121 201 -356 201h-416v-1204z" />
<glyph unicode="E" horiz-adv-x="1214" d="M133 0v1458h954v-127h-815v-516h736v-127h-736v-561h858v-127h-997z" />
<glyph unicode="F" horiz-adv-x="1139" d="M133 0v1458h950v-127h-811v-487h725v-127h-725v-717h-139z" />
<glyph unicode="G" horiz-adv-x="1403" d="M90 729q0 319 160 531q178 235 498 235q389 0 550 -367l-133 -71q-102 311 -407 311q-260 0 -404 -205q-125 -178 -125 -434t115 -432q135 -207 377 -207q221 0 340 154q100 129 100 315v80h-540v127h663v-766h-123v211q-51 -125 -180 -191q-113 -57 -260 -57 q-316 0 -483 233q-148 205 -148 533z" />
<glyph unicode="H" horiz-adv-x="1479" d="M164 0v1458h139v-643h873v643h139v-1458h-139v688h-873v-688h-139z" />
<glyph unicode="I" horiz-adv-x="455" d="M158 0v1458h139v-1458h-139z" />
<glyph unicode="J" horiz-adv-x="985" d="M-16 365v36l139 25v-53q0 -136 77 -209.5t214 -73.5q274 0 274 336v1032h139v-1022q0 -473 -413 -473q-203 0 -314 99q-116 103 -116 303z" />
<glyph unicode="K" horiz-adv-x="1290" d="M133 0v1458h139v-811l793 811h195l-570 -573l619 -885h-170l-549 784l-318 -321v-463h-139z" />
<glyph unicode="L" horiz-adv-x="1139" d="M164 0v1458h139v-1331h805v-127h-944z" />
<glyph unicode="M" horiz-adv-x="1593" d="M152 0v1458h170l473 -1220l477 1220h170v-1458h-139v1192l-459 -1192h-94l-459 1192v-1192h-139z" />
<glyph unicode="N" horiz-adv-x="1442" d="M164 0v1458h137l838 -1225v1225h139v-1458h-137l-838 1225v-1225h-139z" />
<glyph unicode="O" horiz-adv-x="1442" d="M90 729q0 318 152 528q171 238 479 238q305 0 477 -238q154 -211 154 -528q0 -318 -152 -528q-171 -238 -479 -238q-305 0 -477 238q-154 211 -154 528zM229 729q0 -256 115 -432q135 -207 377 -207q241 0 375 205q116 179 116 434q0 256 -114 432q-135 207 -377 207 q-241 0 -375 -205q-117 -179 -117 -434z" />
<glyph unicode="P" horiz-adv-x="1290" d="M164 0v1458h719q197 0 297 -129q82 -106 82 -268q0 -399 -443 -399h-516v-662h-139zM303 788h463q356 0 356 273q0 106 -41 166q-71 104 -258 104h-520v-543z" />
<glyph unicode="Q" horiz-adv-x="1442" d="M90 729q0 318 152 528q171 238 479 238q305 0 477 -238q154 -211 154 -528q0 -284 -125 -485l200 -181l-94 -100l-184 180q-167 -180 -428 -180q-305 0 -477 238q-154 211 -154 528zM229 729q0 -256 115 -432q135 -207 377 -207q241 0 375 205q116 179 116 434 q0 256 -114 432q-135 207 -377 207q-241 0 -375 -205q-117 -179 -117 -434z" />
<glyph unicode="R" horiz-adv-x="1251" d="M133 0v1458h645q193 0 308 -106q118 -109 118 -299q0 -192 -119 -298q-115 -102 -309 -102l467 -653h-176l-463 647h-332v-647h-139zM272 774h433q360 0 360 279q0 278 -338 278h-455v-557z" />
<glyph unicode="S" horiz-adv-x="1251" d="M82 367l139 71q0 -348 410 -348q154 0 267 70q132 82 132 227q0 192 -225 262l-418 131q-227 105 -227 344q0 183 155 285q131 86 310 86q406 0 520 -326l-129 -69q-86 268 -391 268q-125 0 -219 -61q-107 -70 -107 -183q0 -185 225 -252l418 -122q227 -103 227 -340 q0 -228 -160 -344q-141 -103 -378 -103q-476 0 -549 404z" />
<glyph unicode="T" horiz-adv-x="1098" d="M23 1331v127h1052v-127h-457v-1331h-139v1331h-456z" />
<glyph unicode="U" horiz-adv-x="1364" d="M145 473v985h140v-981q0 -189 104 -288t293 -99q397 0 397 387v981h140v-985q0 -248 -146 -381q-140 -129 -391 -129q-249 0 -390 129q-147 135 -147 381z" />
<glyph unicode="V" horiz-adv-x="1214" d="M0 1458h150l456 -1237l465 1237h143l-546 -1458h-123z" />
<glyph unicode="W" horiz-adv-x="1782" d="M6 1458h146l337 -1212l355 1212h102l361 -1204l325 1204h144l-416 -1458h-113l-354 1176l-342 -1176h-109z" />
<glyph unicode="X" horiz-adv-x="1290" d="M0 0l551 795l-479 663h180l395 -575l400 575h174l-480 -672l549 -786h-174l-471 702l-483 -702h-162z" />
<glyph unicode="Y" horiz-adv-x="1249" d="M6 1458h168l455 -721l454 721h160l-549 -850v-608h-139v608z" />
<glyph unicode="Z" horiz-adv-x="1176" d="M49 0v90l883 1241h-836v127h1030v-90l-882 -1241h874v-127h-1069z" />
<glyph unicode="[" horiz-adv-x="606" d="M190 -385v1950h347v-103h-224v-1745h224v-102h-347z" />
<glyph unicode="\" horiz-adv-x="948" d="M27 1495h108l787 -1532h-109z" />
<glyph unicode="]" horiz-adv-x="606" d="M70 -283h223v1745h-223v103h346v-1950h-346v102z" />
<glyph unicode="^" horiz-adv-x="1229" d="M90 530l471 928h107l471 -928h-117l-408 805l-405 -805h-119z" />
<glyph unicode="_" d="M0 -154h1024v-102h-1024v102z" />
<glyph unicode="`" horiz-adv-x="379" d="M-70 1427h158l227 -284h-104z" />
<glyph unicode="a" horiz-adv-x="985" d="M68 236q0 140 112 219q74 51 240 94l301 78v98q0 180 -246 180q-244 0 -244 -237l-139 24q62 316 387 316q237 0 320 -117q45 -64 45 -191v-481q0 -86 39 -113q24 -16 102 -16v-102q-142 0 -184 20q-72 35 -72 152q-110 -185 -348 -185q-133 0 -218 62q-95 70 -95 199z M190 238q0 -76 66 -115q54 -33 135 -33q114 0 209 70q121 88 121 248v112l-354 -98q-177 -49 -177 -184z" />
<glyph unicode="b" d="M129 0v1458h123v-627q36 85 119 132q78 45 174 45q204 0 316 -169q95 -144 95 -360q0 -249 -143 -389q-117 -115 -274 -115q-213 0 -283 177l-4 -152h-123zM246 492q0 -170 59 -273q74 -129 232 -129q152 0 231 130q66 108 66 272q0 165 -69 273q-81 128 -237 128 q-282 0 -282 -401z" />
<glyph unicode="c" horiz-adv-x="948" d="M68 492q0 226 121 367q129 149 352 149q268 0 379 -244l-125 -25q-69 154 -271 154q-159 0 -251 -124q-83 -112 -83 -277q0 -189 103 -302q92 -100 219 -100q193 0 270 160l125 -31q-109 -244 -395 -244q-204 0 -329 160q-115 146 -115 357z" />
<glyph unicode="d" d="M68 479q0 -249 143 -389q117 -115 274 -115q213 0 283 177l4 -152h123v1458h-123v-627q-36 85 -119 132q-78 45 -174 45q-204 0 -316 -169q-95 -144 -95 -360zM190 492q0 165 69 273q81 128 237 128q282 0 282 -401q0 -170 -59 -273q-74 -129 -232 -129q-152 0 -231 130 q-66 108 -66 272z" />
<glyph unicode="e" d="M68 492q0 220 109 361q121 155 335 155q218 0 337 -151q107 -137 107 -361h-749v-27q0 -379 315 -379q224 0 320 209l114 -31q-120 -293 -444 -293q-213 0 -334 155q-110 142 -110 362zM207 598h610q-56 295 -305 295q-127 0 -210 -85q-79 -80 -95 -210z" />
<glyph unicode="f" horiz-adv-x="606" d="M27 881v102h215v311q0 201 241 201q68 0 109 -20v-117q-39 22 -113 22q-114 0 -114 -145v-252h215v-102h-215v-881h-123v881h-215z" />
<glyph unicode="g" horiz-adv-x="1063" d="M68 479q0 216 95 360q112 169 316 169q243 0 328 -187l4 162h123v-1026q0 -204 -66 -307q-100 -158 -366 -158q-396 0 -430 352l125 27q28 -264 305 -264q152 0 219 57q90 77 90 283v203q-108 -175 -326 -175q-156 0 -274 115q-143 139 -143 389zM190 492q0 -166 69 -274 q81 -128 237 -128q311 0 311 383q0 420 -311 420q-156 0 -237 -128q-69 -108 -69 -273z" />
<glyph unicode="h" d="M129 0v1458h123v-620q87 170 297 170q346 0 346 -342v-666h-123v629q0 134 -52 196q-57 68 -188 68q-135 0 -210 -94q-70 -86 -70 -226v-573h-123z" />
<glyph unicode="i" horiz-adv-x="381" d="M129 0v983h123v-983h-123zM129 1196v193h123v-193h-123z" />
<glyph unicode="j" horiz-adv-x="381" d="M-115 -344q58 -49 152 -49q62 0 81 49q11 28 11 104v1223h123v-1264q0 -227 -207 -227q-102 0 -160 35v129zM129 1196v193h123v-193h-123z" />
<glyph unicode="k" horiz-adv-x="985" d="M129 0v1458h123v-993l536 518h156l-399 -387l438 -596h-149l-377 512l-205 -199v-313h-123z" />
<glyph unicode="l" horiz-adv-x="381" d="M129 0v1458h123v-1458h-123z" />
<glyph unicode="m" horiz-adv-x="1556" d="M139 0v983h123v-158q80 183 277 183q254 0 282 -215q87 215 312 215q184 0 247 -134q37 -77 37 -225v-649h-123v635q0 117 -24 170q-41 88 -164 88q-133 0 -205 -111q-61 -95 -61 -235v-547h-123v618q0 128 -27 185q-42 90 -162 90q-133 0 -205 -114q-61 -97 -61 -238 v-541h-123z" />
<glyph unicode="n" d="M129 0v983h123v-143q88 168 297 168q346 0 346 -342v-666h-123v629q0 134 -52 196q-57 68 -188 68q-135 0 -210 -94q-70 -86 -70 -226v-573h-123z" />
<glyph unicode="o" d="M68 492q0 220 109 361q121 155 335 155q213 0 334 -155q110 -141 110 -361q0 -221 -109 -362q-121 -155 -335 -155q-213 0 -334 155q-110 142 -110 362zM190 492q0 -164 78 -275q87 -127 244 -127q159 0 246 126q76 110 76 276q0 163 -78 274q-87 127 -244 127t-244 -127 q-78 -111 -78 -274z" />
<glyph unicode="p" d="M129 -508v1491h123v-147q36 80 121 127q79 45 172 45q199 0 311 -155q100 -138 100 -345q0 -224 -88 -365q-105 -168 -315 -168q-229 0 -301 164v-647h-123zM246 492q0 -402 291 -402q152 0 231 130q66 108 66 272q0 160 -66 269q-80 132 -229 132q-293 0 -293 -401z" />
<glyph unicode="q" d="M68 508q0 -224 88 -365q105 -168 315 -168q229 0 301 164v-647h123v1491h-123v-147q-36 80 -121 127q-79 45 -172 45q-199 0 -311 -155q-100 -138 -100 -345zM190 492q0 160 66 269q80 132 229 132q293 0 293 -401q0 -402 -291 -402q-152 0 -231 130q-66 108 -66 272z " />
<glyph unicode="r" horiz-adv-x="606" d="M147 0v983h123v-137q60 84 113 119q66 43 145 43h13l88 -4v-107q-39 8 -82 8q-277 0 -277 -340v-565h-123z" />
<glyph unicode="s" horiz-adv-x="909" d="M51 236l119 36q39 -105 105.5 -149.5t179.5 -44.5q239 0 239 201q0 122 -149 161l-281 68q-151 63 -151 229q0 131 106 205q93 66 230 66q306 0 370 -224l-117 -28q-29 86 -88 119q-51 30 -147 30q-231 0 -231 -172q0 -102 144 -142l286 -79q151 -70 151 -238 q0 -146 -121 -228q-106 -71 -260 -71q-145 0 -236 62t-149 199z" />
<glyph unicode="t" horiz-adv-x="569" d="M16 881v102h201v420h123v-420h213v-102h-213v-650q0 -72 6 -92q13 -49 66 -49q63 0 135 49v-123q-92 -41 -162 -41q-168 0 -168 175v731h-201z" />
<glyph unicode="u" d="M129 317v666h123v-629q0 -134 52 -196q57 -68 188 -68q135 0 210 94q70 86 70 226v573h123v-983h-123v143q-88 -168 -297 -168q-346 0 -346 342z" />
<glyph unicode="v" horiz-adv-x="834" d="M4 983h121l268 -788l309 788h127l-391 -983h-96z" />
<glyph unicode="w" horiz-adv-x="1366" d="M-2 983h127l258 -772l250 772h100l246 -772l262 772h127l-336 -983h-102l-246 793l-248 -793h-102z" />
<glyph unicode="x" horiz-adv-x="872" d="M8 0l363 516l-324 467h137l256 -371l260 371h138l-328 -467l354 -516h-135l-289 420l-295 -420h-137z" />
<glyph unicode="y" horiz-adv-x="872" d="M8 -344q30 -17 60 -31q42 -18 67 -18q48 0 82 49q19 26 41 84l100 258l-338 985h115l285 -827l328 827h116l-485 -1247q-22 -58 -78 -164q-60 -80 -162 -80q-50 0 -131 37v127z" />
<glyph unicode="z" horiz-adv-x="758" d="M20 0v84l537 797h-491v102h663v-68l-547 -813h555v-102h-717z" />
<glyph unicode="{" horiz-adv-x="682" d="M170 539v102q147 0 147 322v342q0 260 181 260h102v-103h-78q-82 0 -82 -207v-327q0 -100 -32 -189q-41 -108 -115 -147q75 -41 115 -150q32 -90 32 -190v-328q0 -94 7 -126q16 -81 75 -81h78v-102h-102q-95 0 -143 87q-38 70 -38 173v342q0 127 -18 195 q-34 127 -129 127z" />
<glyph unicode="|" horiz-adv-x="455" d="M176 -438v2048h103v-2048h-103z" />
<glyph unicode="}" horiz-adv-x="682" d="M84 -283v-102h102q95 0 143 87q38 70 38 173v342q0 127 18 195q34 127 129 127v102q-147 0 -147 322v342q0 260 -181 260h-102v-103h78q82 0 82 -207v-327q0 -100 32 -189q41 -108 115 -147q-75 -41 -115 -150q-32 -90 -32 -190v-328q0 -94 -7 -126q-16 -81 -75 -81h-78z " />
<glyph unicode="~" horiz-adv-x="1229" d="M141 463q88 176 246 176q90 0 248 -69.5t196 -69.5q58 0 105 45q19 18 78 102l73 -74q-62 -89 -104 -122q-66 -54 -152 -54q-53 0 -108 21q-26 9 -102 49q-136 70 -234 70q-60 0 -104 -43q-36 -35 -68 -105z" />
<glyph unicode="&#xa1;" horiz-adv-x="569" d="M214 768v238h155v-238h-155zM222 332l18 328h103l18 -328v-784h-139v784z" />
<glyph unicode="&#xa2;" horiz-adv-x="1139" d="M143 492q0 201 95 337q103 149 294 175v225h103v-221q250 0 360 -244l-125 -25q-69 154 -235 154v-803q160 25 223 160l125 -31q-98 -221 -348 -244v-221h-103v226q-183 20 -291 176q-98 142 -98 336zM266 492q0 -144 63 -251q72 -122 203 -149v797q-132 -26 -203 -147 q-63 -106 -63 -250z" />
<glyph unicode="&#xa3;" horiz-adv-x="1139" d="M29 143q0 74 64 115q54 35 132 35q125 0 240 -53q35 65 35 159q0 70 -74 181h-283v114h189q-122 122 -162 178q-80 113 -80 238q0 199 168 297q129 76 305 76q198 0 325 -104q136 -112 136 -306l-139 -22q0 143 -94 226q-89 79 -234 79q-142 0 -227 -57 q-101 -67 -101 -201q0 -112 109 -224l176 -180h313v-114h-243q55 -101 55 -185q0 -108 -61 -198q73 -37 114 -56q87 -39 146 -39q81 0 110 66q23 50 23 170v45l139 -14q0 -394 -276 -394q-113 0 -318 111q-82 -111 -256 -111q-231 0 -231 168zM152 129q0 -51 88 -51 q119 0 166 65q-84 47 -173 47q-81 0 -81 -61z" />
<glyph unicode="&#xa4;" horiz-adv-x="1139" d="M61 287l111 116q-111 138 -111 314q0 180 113 317l-113 113l78 78l115 -113q139 113 315 113q179 0 318 -111l112 111l78 -78l-108 -119q108 -133 108 -311q0 -174 -108 -316l108 -114l-78 -78l-108 119q-137 -119 -322 -119q-186 0 -321 119l-109 -119zM164 717 q0 -169 118 -287.5t287 -118.5t287.5 118.5t118.5 287.5t-118.5 287t-287.5 118t-287 -118t-118 -287z" />
<glyph unicode="&#xa5;" horiz-adv-x="1139" d="M14 1458h158l397 -717l404 717h151l-409 -725h258v-102h-316l-18 -33v-166h334v-102h-334v-330h-139v330h-334v102h334v166l-19 33h-315v102h258z" />
<glyph unicode="&#xa6;" horiz-adv-x="455" d="M176 -182v512h103v-512h-103zM176 842v512h103v-512h-103z" />
<glyph unicode="&#xa7;" horiz-adv-x="1139" d="M106 -31l99 97q178 -160 368 -160q100 0 168 43q84 52 84 145q0 98 -213 195l-262 119q-114 51 -162 104q-61 68 -61 178q0 106 70 190q65 79 170 113q-148 91 -148 226q0 128 101 206q92 70 225 70q214 0 393 -170l-92 -92q-84 71 -137 98q-73 37 -164 37 q-73 0 -125 -32q-62 -38 -62 -107q0 -105 97 -150l372 -174q96 -44 142.5 -102.5t46.5 -155.5q0 -107 -61 -194t-162 -117q172 -82 172 -242q0 -145 -122 -234q-109 -81 -259 -81q-141 0 -256 49q-93 40 -222 141zM266 692q0 -70 68 -123q38 -30 131 -71l227 -103 q185 112 185 250q0 102 -125 160l-281 129q-205 -121 -205 -242z" />
<glyph unicode="&#xa8;" horiz-adv-x="379" d="M-41 1163v209h123v-209h-123zM297 1163v209h123v-209h-123z" />
<glyph unicode="&#xa9;" horiz-adv-x="1638" d="M53 729q0 320 223.5 543t542.5 223q322 0 544 -222t222 -544q0 -320 -223 -543t-543 -223q-319 0 -542.5 223t-223.5 543zM176 729q0 -279 181 -470q185 -193 462 -193q278 0 462 194q181 190 181 469q0 277 -182 469q-185 195 -461 195q-275 0 -461 -195 q-182 -192 -182 -469zM369 729q0 221 124 355q128 139 347 139q158 0 267 -84q114 -88 134 -242h-115q-22 103 -100 163t-184 60q-164 0 -260 -115q-90 -109 -90 -276q0 -162 94 -274q101 -119 260 -119q108 0 184.5 63.5t95.5 169.5h115q-35 -148 -138 -240 q-108 -96 -257 -96q-214 0 -347 142q-130 138 -130 354z" />
<glyph unicode="&#xaa;" horiz-adv-x="641" d="M23 1020q0 88 71 135q49 33 158 59l190 48v41q0 49 -20 69q-34 33 -139 33q-154 0 -154 -125l-90 14q39 189 248 189q123 0 184 -43.5t61 -141.5v-288q0 -46 21 -59q15 -9 65 -9v-78q-89 0 -116 13q-45 20 -53 98q-76 -111 -224 -111q-82 0 -137 36q-65 42 -65 120z M113 1022q0 -80 120 -80q71 0 136 41q73 46 73 113v88l-225 -60q-104 -27 -104 -102z" />
<glyph unicode="&#xab;" horiz-adv-x="721" d="M43 539l249 383l99 -66l-211 -317l211 -318l-99 -65zM332 539l249 383l99 -66l-211 -317l211 -318l-99 -65z" />
<glyph unicode="&#xac;" horiz-adv-x="1229" d="M96 666v102h1037v-547h-103v445h-934z" />
<glyph unicode="&#xad;" horiz-adv-x="758" d="M92 475v127h574v-127h-574z" />
<glyph unicode="&#xae;" horiz-adv-x="1638" d="M53 729q0 320 223.5 543t542.5 223q322 0 544 -222t222 -544q0 -320 -223 -543t-543 -223q-319 0 -542.5 223t-223.5 543zM176 729q0 -279 181 -470q185 -193 462 -193q278 0 462 194q181 190 181 469q0 277 -182 469q-185 195 -461 195q-275 0 -461 -195 q-182 -192 -182 -469zM541 264v934h338q130 0 206 -63q80 -67 80 -195q0 -109 -55 -178q-59 -74 -166 -82l262 -416h-127l-248 416h-188v-416h-102zM643 770h211q104 0 151 32q58 39 58 138q0 168 -209 168h-211v-338z" />
<glyph unicode="&#xaf;" horiz-adv-x="379" d="M-74 1223v90h527v-90h-527z" />
<glyph unicode="&#xb0;" horiz-adv-x="379" d="M-14 1319q0 86 58.5 145.5t143.5 59.5q87 0 146 -59.5t59 -145.5t-59.5 -144.5t-145.5 -58.5q-84 0 -143 59t-59 144zM51 1319q0 -58 40 -97.5t97 -39.5q59 0 99.5 39t40.5 98q0 58 -41 98.5t-99 40.5t-97.5 -40t-39.5 -99z" />
<glyph unicode="&#xb1;" horiz-adv-x="1229" d="M96 0v102h1037v-102h-1037zM96 559v103h467v374h103v-374h467v-103h-467v-375h-103v375h-467z" />
<glyph unicode="&#xb2;" horiz-adv-x="739" d="M63 1225q0 124 97 195q86 63 215 63q121 0 200 -51q117 -76 117 -240q0 -143 -176 -305q-127 -117 -287 -203h430v-90h-591v90q105 68 311 211q211 158 211 311q0 89 -62 140q-58 47 -149 47q-92 0 -149 -41q-64 -47 -64 -135q0 -89 57 -148l-127 10q-33 66 -33 146z" />
<glyph unicode="&#xb3;" horiz-adv-x="739" d="M41 846l102 26q0 -202 234 -202q85 0 143 37q70 44 70 124q0 177 -248 177q-39 0 -125 -7v95q27 -2 119 -2q87 0 151 28q84 38 84 115q0 156 -196 156q-193 0 -213 -170l-103 22q64 238 326 238q119 0 198 -55q91 -62 91 -177q0 -89 -54.5 -140.5t-144.5 -53.5 q110 -4 162 -64q55 -63 55 -157q0 -125 -97 -195q-87 -61 -216 -61q-139 0 -227 63q-97 69 -111 203z" />
<glyph unicode="&#xb4;" horiz-adv-x="379" d="M63 1143l228 284h158l-281 -284h-105z" />
<glyph unicode="&#xb6;" horiz-adv-x="1229" d="M135 1063q0 197 133 301q121 94 324 94h444v-1642h-102v1552h-272v-1552h-103v852q-173 0 -296 110q-128 114 -128 285z" />
<glyph unicode="&#xb7;" horiz-adv-x="569" d="M174 641q0 47 31.5 79t79.5 32q47 0 78.5 -32t31.5 -79t-31.5 -79t-78.5 -32q-48 0 -79.5 32t-31.5 79z" />
<glyph unicode="&#xb8;" horiz-adv-x="379" d="M45 -387l31 61q69 -36 133 -36q135 0 135 100q0 86 -108 86q-41 0 -89 -21l-30 27l123 170h77l-94 -119l4 -4q27 12 78 12q54 0 94 -26q60 -40 60 -121q0 -60 -45 -107q-61 -63 -187 -63q-85 0 -182 41z" />
<glyph unicode="&#xb9;" horiz-adv-x="739" d="M184 1245v90q178 0 178 133h101v-874h-103v688q-69 -37 -176 -37z" />
<glyph unicode="&#xba;" horiz-adv-x="819" d="M117 1190q0 122 85.5 207.5t207.5 85.5q121 0 206.5 -85.5t85.5 -207.5t-85.5 -207.5t-206.5 -85.5q-122 0 -207.5 85.5t-85.5 207.5zM195 1190q0 -91 62 -153t153 -62q90 0 152.5 62t62.5 153t-62.5 153t-152.5 62q-91 0 -153 -62t-62 -153z" />
<glyph unicode="&#xbb;" horiz-adv-x="721" d="M41 222l99 -65l249 383l-249 383l-99 -66l211 -317zM330 222l99 -65l249 383l-249 383l-99 -66l211 -317z" />
<glyph unicode="&#xbc;" horiz-adv-x="1708" d="M184 1245v90q178 0 178 133h101v-874h-103v688q-69 -37 -176 -37zM287 -37l903 1532h115l-905 -1532h-113zM890 209v78l414 587h110v-575h127v-90h-127v-209h-102v209h-422zM1003 299h309v436z" />
<glyph unicode="&#xbd;" horiz-adv-x="1708" d="M184 1245v90q178 0 178 133h101v-874h-103v688q-69 -37 -176 -37zM223 -37l903 1532h115l-905 -1532h-113zM911 631q0 124 97 195q86 63 215 63q121 0 200 -51q117 -76 117 -240q0 -143 -176 -305q-127 -117 -287 -203h430v-90h-591v90q105 68 311 211q211 158 211 311 q0 89 -62 140q-58 47 -149 47q-92 0 -149 -41q-64 -47 -64 -135q0 -89 57 -148l-127 10q-33 66 -33 146z" />
<glyph unicode="&#xbe;" horiz-adv-x="1708" d="M41 846l102 26q0 -202 234 -202q85 0 143 37q70 44 70 124q0 177 -248 177q-39 0 -125 -7v95q27 -2 119 -2q87 0 151 28q84 38 84 115q0 156 -196 156q-193 0 -213 -170l-103 22q64 238 326 238q119 0 198 -55q91 -62 91 -177q0 -89 -54.5 -140.5t-144.5 -53.5 q110 -4 162 -64q55 -63 55 -157q0 -125 -97 -195q-87 -61 -216 -61q-139 0 -227 63q-97 69 -111 203zM407 -37l903 1532h115l-905 -1532h-113zM976 209v78l414 587h110v-575h127v-90h-127v-209h-102v209h-422zM1089 299h309v436z" />
<glyph unicode="&#xbf;" horiz-adv-x="985" d="M86 -85q0 164 98 287l183 178q100 100 100 203v70h123v-123q0 -119 -94 -209l-177 -168q-94 -90 -94 -238q0 -120 76 -197t197 -77q114 0 195 72q83 75 83 188q0 63 -14 113q-5 15 -41 106l153 -45q25 -74 25 -190q0 -144 -86 -244q-109 -127 -315 -127 q-183 0 -297.5 110t-114.5 291zM450 771v238h156v-238h-156z" />
<glyph unicode="&#xc0;" horiz-adv-x="1251" d="M-10 0l594 1458h112l566 -1458h-150l-164 438h-641l-174 -438h-143zM354 553h549l-270 719zM368 1908h158l227 -284h-104z" />
<glyph unicode="&#xc1;" horiz-adv-x="1251" d="M-10 0l594 1458h112l566 -1458h-150l-164 438h-641l-174 -438h-143zM354 553h549l-270 719zM509 1624l228 284h158l-281 -284h-105z" />
<glyph unicode="&#xc2;" horiz-adv-x="1251" d="M-10 0l594 1458h112l566 -1458h-150l-164 438h-641l-174 -438h-143zM325 1624l230 284h137l233 -284h-133l-168 209l-170 -209h-129zM354 553h549l-270 719z" />
<glyph unicode="&#xc3;" horiz-adv-x="1251" d="M-10 0l594 1458h112l566 -1458h-150l-164 438h-641l-174 -438h-143zM305 1677q8 75 53 134q51 67 121 67q51 0 151.5 -44t147.5 -44q64 0 90 96h78q-6 -77 -47 -134q-48 -64 -121 -64q-51 0 -149 44t-150 44q-68 0 -98 -99h-76zM354 553h549l-270 719z" />
<glyph unicode="&#xc4;" horiz-adv-x="1251" d="M-10 0l594 1458h112l566 -1458h-150l-164 438h-641l-174 -438h-143zM354 553h549l-270 719zM395 1644v209h123v-209h-123zM733 1644v209h123v-209h-123z" />
<glyph unicode="&#xc5;" horiz-adv-x="1251" d="M-10 0l594 1458h112l566 -1458h-150l-164 438h-641l-174 -438h-143zM354 553h549l-270 719zM439 1831q0 86 58.5 145.5t143.5 59.5q87 0 146 -59.5t59 -145.5t-59.5 -144.5t-145.5 -58.5q-84 0 -143 59t-59 144zM504 1831q0 -58 40 -97.5t97 -39.5q59 0 99.5 39t40.5 98 q0 58 -41 98.5t-99 40.5t-97.5 -40t-39.5 -99z" />
<glyph unicode="&#xc6;" horiz-adv-x="2048" d="M-31 0l936 1458h1022v-127h-842v-516h758v-127h-758v-561h879v-127h-1018v422h-553l-262 -422h-162zM479 549h467v745z" />
<glyph unicode="&#xc7;" horiz-adv-x="1327" d="M90 729q0 389 186 590q164 176 426 176q223 0 357 -86q138 -88 223 -291l-139 -69q-52 170 -150 244.5t-276 74.5q-255 0 -382 -200q-106 -168 -106 -439q0 -639 510 -639q303 0 410 309l133 -71q-141 -363 -518 -363l-66 -84l4 -4q27 12 78 12q55 0 94 -26 q60 -40 60 -121q0 -60 -45 -107q-61 -63 -187 -63q-85 0 -182 41l31 61q69 -36 133 -36q135 0 135 100q0 86 -108 86q-41 0 -88 -21l-31 27l96 135q-311 0 -466 235q-132 200 -132 529z" />
<glyph unicode="&#xc8;" horiz-adv-x="1214" d="M133 0v1458h954v-127h-815v-516h736v-127h-736v-561h858v-127h-997zM348 1908h158l227 -284h-104z" />
<glyph unicode="&#xc9;" horiz-adv-x="1214" d="M133 0v1458h954v-127h-815v-516h736v-127h-736v-561h858v-127h-997zM466 1624l228 284h158l-281 -284h-105z" />
<glyph unicode="&#xca;" horiz-adv-x="1214" d="M133 0v1458h954v-127h-815v-516h736v-127h-736v-561h858v-127h-997zM307 1624l230 284h137l233 -284h-133l-168 209l-170 -209h-129z" />
<glyph unicode="&#xcb;" horiz-adv-x="1214" d="M133 0v1458h954v-127h-815v-516h736v-127h-736v-561h858v-127h-997zM375 1644v209h123v-209h-123zM713 1644v209h123v-209h-123z" />
<glyph unicode="&#xcc;" horiz-adv-x="455" d="M-33 1908h158l227 -284h-104zM158 0v1458h139v-1458h-139z" />
<glyph unicode="&#xcd;" horiz-adv-x="455" d="M92 1624l228 284h158l-281 -284h-105zM158 0v1458h139v-1458h-139z" />
<glyph unicode="&#xce;" horiz-adv-x="455" d="M-70 1624l230 284h137l233 -284h-133l-168 209l-170 -209h-129zM158 0v1458h139v-1458h-139z" />
<glyph unicode="&#xcf;" horiz-adv-x="455" d="M-2 1644v209h123v-209h-123zM158 0v1458h139v-1458h-139zM336 1644v209h123v-209h-123z" />
<glyph unicode="&#xd0;" horiz-adv-x="1403" d="M51 754v90h113v614h598q276 0 426 -244q125 -203 125 -485q0 -274 -131 -475q-166 -254 -484 -254h-534v754h-113zM303 127h445q211 0 327 199q99 167 99 403q0 233 -99 401q-117 201 -327 201h-445v-487h414v-90h-414v-627z" />
<glyph unicode="&#xd1;" horiz-adv-x="1442" d="M164 0v1458h137l838 -1225v1225h139v-1458h-137l-838 1225v-1225h-139zM401 1677q8 75 53 134q51 67 121 67q51 0 151.5 -44t147.5 -44q64 0 90 96h78q-6 -77 -47 -134q-48 -64 -121 -64q-51 0 -149 44t-150 44q-68 0 -98 -99h-76z" />
<glyph unicode="&#xd2;" horiz-adv-x="1442" d="M90 729q0 318 152 528q171 238 479 238q305 0 477 -238q154 -211 154 -528q0 -318 -152 -528q-171 -238 -479 -238q-305 0 -477 238q-154 211 -154 528zM229 729q0 -256 115 -432q135 -207 377 -207q241 0 375 205q116 179 116 434q0 256 -114 432q-135 207 -377 207 q-241 0 -375 -205q-117 -179 -117 -434zM462 1908h158l227 -284h-104z" />
<glyph unicode="&#xd3;" horiz-adv-x="1442" d="M90 729q0 318 152 528q171 238 479 238q305 0 477 -238q154 -211 154 -528q0 -318 -152 -528q-171 -238 -479 -238q-305 0 -477 238q-154 211 -154 528zM229 729q0 -256 115 -432q135 -207 377 -207q241 0 375 205q116 179 116 434q0 256 -114 432q-135 207 -377 207 q-241 0 -375 -205q-117 -179 -117 -434zM589 1624l228 284h158l-281 -284h-105z" />
<glyph unicode="&#xd4;" horiz-adv-x="1442" d="M90 729q0 318 152 528q171 238 479 238q305 0 477 -238q154 -211 154 -528q0 -318 -152 -528q-171 -238 -479 -238q-305 0 -477 238q-154 211 -154 528zM229 729q0 -256 115 -432q135 -207 377 -207q241 0 375 205q116 179 116 434q0 256 -114 432q-135 207 -377 207 q-241 0 -375 -205q-117 -179 -117 -434zM421 1624l230 284h137l233 -284h-133l-168 209l-170 -209h-129z" />
<glyph unicode="&#xd5;" horiz-adv-x="1442" d="M90 729q0 318 152 528q171 238 479 238q305 0 477 -238q154 -211 154 -528q0 -318 -152 -528q-171 -238 -479 -238q-305 0 -477 238q-154 211 -154 528zM229 729q0 -256 115 -432q135 -207 377 -207q241 0 375 205q116 179 116 434q0 256 -114 432q-135 207 -377 207 q-241 0 -375 -205q-117 -179 -117 -434zM401 1677q8 75 53 134q51 67 121 67q51 0 151.5 -44t147.5 -44q64 0 90 96h78q-6 -77 -47 -134q-48 -64 -121 -64q-51 0 -149 44t-150 44q-68 0 -98 -99h-76z" />
<glyph unicode="&#xd6;" horiz-adv-x="1442" d="M90 729q0 318 152 528q171 238 479 238q305 0 477 -238q154 -211 154 -528q0 -318 -152 -528q-171 -238 -479 -238q-305 0 -477 238q-154 211 -154 528zM229 729q0 -256 115 -432q135 -207 377 -207q241 0 375 205q116 179 116 434q0 256 -114 432q-135 207 -377 207 q-241 0 -375 -205q-117 -179 -117 -434zM491 1644v209h123v-209h-123zM829 1644v209h123v-209h-123z" />
<glyph unicode="&#xd7;" horiz-adv-x="1229" d="M152 129l391 389l-391 389l73 74l389 -387l390 387l73 -74l-391 -389l391 -389l-73 -74l-390 391l-389 -391z" />
<glyph unicode="&#xd8;" horiz-adv-x="1442" d="M90 729q0 318 152 528q171 238 479 238q261 0 424 -176l125 151l82 -67l-140 -168q140 -207 140 -506q0 -318 -152 -528q-171 -238 -479 -238q-256 0 -420 172l-123 -147l-84 65l139 168q-143 205 -143 508zM229 729q0 -225 97 -397l731 882q-128 154 -336 154 q-241 0 -375 -205q-117 -179 -117 -434zM389 240q128 -150 332 -150q241 0 375 205q116 179 116 434q0 229 -94 393z" />
<glyph unicode="&#xd9;" horiz-adv-x="1364" d="M145 473v985h140v-981q0 -189 104 -288t293 -99q397 0 397 387v981h140v-985q0 -248 -146 -381q-140 -129 -391 -129q-249 0 -390 129q-147 135 -147 381zM424 1908h158l227 -284h-104z" />
<glyph unicode="&#xda;" horiz-adv-x="1364" d="M145 473v985h140v-981q0 -189 104 -288t293 -99q397 0 397 387v981h140v-985q0 -248 -146 -381q-140 -129 -391 -129q-249 0 -390 129q-147 135 -147 381zM561 1624l228 284h158l-281 -284h-105z" />
<glyph unicode="&#xdb;" horiz-adv-x="1364" d="M145 473v985h140v-981q0 -189 104 -288t293 -99q397 0 397 387v981h140v-985q0 -248 -146 -381q-140 -129 -391 -129q-249 0 -390 129q-147 135 -147 381zM383 1624l230 284h137l233 -284h-133l-168 209l-170 -209h-129z" />
<glyph unicode="&#xdc;" horiz-adv-x="1364" d="M145 473v985h140v-981q0 -189 104 -288t293 -99q397 0 397 387v981h140v-985q0 -248 -146 -381q-140 -129 -391 -129q-249 0 -390 129q-147 135 -147 381zM451 1644v209h123v-209h-123zM789 1644v209h123v-209h-123z" />
<glyph unicode="&#xdd;" horiz-adv-x="1249" d="M6 1458h168l455 -721l454 721h160l-549 -850v-608h-139v608zM499 1624l228 284h158l-281 -284h-105z" />
<glyph unicode="&#xde;" horiz-adv-x="1290" d="M164 0v1458h139v-231h606q166 0 263 -118q90 -110 90 -280q0 -192 -125 -303q-109 -96 -260 -96h-574v-430h-139zM303 557h561q95 0 168 64q90 77 90 208q0 271 -237 271h-582v-543z" />
<glyph unicode="&#xdf;" horiz-adv-x="950" d="M106 0v1077q0 191 86 299q93 119 279 119q162 0 252 -89.5t90 -250.5q0 -128 -53 -200.5t-174 -112.5q315 -65 315 -467q0 -177 -77 -287q-89 -125 -259 -125q-112 0 -215 62v141q137 -88 223 -88q109 0 162 106q43 86 43 205q0 377 -405 377h-51v115h40q328 0 328 258 q0 241 -223 241q-238 0 -238 -290v-1090h-123z" />
<glyph unicode="&#xe0;" horiz-adv-x="985" d="M68 236q0 140 112 219q74 51 240 94l301 78v98q0 180 -246 180q-244 0 -244 -237l-139 24q62 316 387 316q237 0 320 -117q45 -64 45 -191v-481q0 -86 39 -113q24 -16 102 -16v-102q-142 0 -184 20q-72 35 -72 152q-110 -185 -348 -185q-133 0 -218 62q-95 70 -95 199z M190 238q0 -76 66 -115q54 -33 135 -33q114 0 209 70q121 88 121 248v112l-354 -98q-177 -49 -177 -184zM233 1427h158l227 -284h-104z" />
<glyph unicode="&#xe1;" horiz-adv-x="985" d="M68 236q0 140 112 219q74 51 240 94l301 78v98q0 180 -246 180q-244 0 -244 -237l-139 24q62 316 387 316q237 0 320 -117q45 -64 45 -191v-481q0 -86 39 -113q24 -16 102 -16v-102q-142 0 -184 20q-72 35 -72 152q-110 -185 -348 -185q-133 0 -218 62q-95 70 -95 199z M190 238q0 -76 66 -115q54 -33 135 -33q114 0 209 70q121 88 121 248v112l-354 -98q-177 -49 -177 -184zM366 1143l228 284h158l-281 -284h-105z" />
<glyph unicode="&#xe2;" horiz-adv-x="985" d="M68 236q0 140 112 219q74 51 240 94l301 78v98q0 180 -246 180q-244 0 -244 -237l-139 24q62 316 387 316q237 0 320 -117q45 -64 45 -191v-481q0 -86 39 -113q24 -16 102 -16v-102q-142 0 -184 20q-72 35 -72 152q-110 -185 -348 -185q-133 0 -218 62q-95 70 -95 199z M190 238q0 -76 66 -115q54 -33 135 -33q114 0 209 70q121 88 121 248v112l-354 -98q-177 -49 -177 -184zM192 1143l230 284h137l233 -284h-133l-168 209l-170 -209h-129z" />
<glyph unicode="&#xe3;" horiz-adv-x="985" d="M68 236q0 140 112 219q74 51 240 94l301 78v98q0 180 -246 180q-244 0 -244 -237l-139 24q62 316 387 316q237 0 320 -117q45 -64 45 -191v-481q0 -86 39 -113q24 -16 102 -16v-102q-142 0 -184 20q-72 35 -72 152q-110 -185 -348 -185q-133 0 -218 62q-95 70 -95 199z M172 1165q8 75 53 134q51 67 121 67q51 0 151.5 -44t147.5 -44q64 0 90 96h78q-6 -77 -47 -134q-48 -64 -121 -64q-51 0 -149 44t-150 44q-68 0 -98 -99h-76zM190 238q0 -76 66 -115q54 -33 135 -33q114 0 209 70q121 88 121 248v112l-354 -98q-177 -49 -177 -184z" />
<glyph unicode="&#xe4;" horiz-adv-x="985" d="M68 236q0 140 112 219q74 51 240 94l301 78v98q0 180 -246 180q-244 0 -244 -237l-139 24q62 316 387 316q237 0 320 -117q45 -64 45 -191v-481q0 -86 39 -113q24 -16 102 -16v-102q-142 0 -184 20q-72 35 -72 152q-110 -185 -348 -185q-133 0 -218 62q-95 70 -95 199z M190 238q0 -76 66 -115q54 -33 135 -33q114 0 209 70q121 88 121 248v112l-354 -98q-177 -49 -177 -184zM262 1163v209h123v-209h-123zM600 1163v209h123v-209h-123z" />
<glyph unicode="&#xe5;" horiz-adv-x="985" d="M68 236q0 140 112 219q74 51 240 94l301 78v98q0 180 -246 180q-244 0 -244 -237l-139 24q62 316 387 316q237 0 320 -117q45 -64 45 -191v-481q0 -86 39 -113q24 -16 102 -16v-102q-142 0 -184 20q-72 35 -72 152q-110 -185 -348 -185q-133 0 -218 62q-95 70 -95 199z M190 238q0 -76 66 -115q54 -33 135 -33q114 0 209 70q121 88 121 248v112l-354 -98q-177 -49 -177 -184zM289 1319q0 86 58.5 145.5t143.5 59.5q87 0 146 -59.5t59 -145.5t-59.5 -144.5t-145.5 -58.5q-84 0 -143 59t-59 144zM354 1319q0 -58 40 -97.5t97 -39.5q59 0 99.5 39 t40.5 98q0 58 -41 98.5t-99 40.5t-97.5 -40t-39.5 -99z" />
<glyph unicode="&#xe6;" horiz-adv-x="1669" d="M68 236q0 139 112 217q85 58 240 96l319 78v98q0 180 -256 180q-252 0 -252 -237l-139 24q62 316 387 316q136 0 209 -29q94 -37 150 -129q119 158 336 158q218 0 336 -151q108 -137 108 -361h-756v-27q0 -379 316 -379q231 0 325 209l115 -31q-121 -293 -434 -293 q-127 0 -230 55q-115 60 -161 169q-137 -224 -412 -224q-133 0 -218 62q-95 70 -95 199zM190 238q0 -71 58 -112q52 -36 125 -36q146 0 250 80q116 90 116 240v110l-372 -98q-177 -47 -177 -184zM862 598h617q-25 135 -78 201q-76 94 -227 94q-129 0 -214 -84 q-81 -81 -98 -211z" />
<glyph unicode="&#xe7;" horiz-adv-x="948" d="M68 492q0 226 121 367q129 149 352 149q268 0 379 -244l-125 -25q-69 154 -271 154q-159 0 -251 -124q-83 -112 -83 -277q0 -189 103 -302q92 -100 219 -100q193 0 270 160l125 -31q-93 -214 -334 -239l-77 -99l4 -4q26 12 78 12q54 0 94 -26q59 -40 59 -121 q0 -60 -45 -107q-61 -63 -186 -63q-86 0 -183 41l31 61q69 -36 133 -36q135 0 135 100q0 86 -108 86q-40 0 -88 -21l-31 27l107 147q-199 0 -319 163q-109 146 -109 352z" />
<glyph unicode="&#xe8;" d="M68 492q0 220 109 361q121 155 335 155q218 0 337 -151q107 -137 107 -361h-749v-27q0 -379 315 -379q224 0 320 209l114 -31q-120 -293 -444 -293q-213 0 -334 155q-110 142 -110 362zM207 598h610q-56 295 -305 295q-127 0 -210 -85q-79 -80 -95 -210zM254 1427h158 l227 -284h-104z" />
<glyph unicode="&#xe9;" d="M68 492q0 220 109 361q121 155 335 155q218 0 337 -151q107 -137 107 -361h-749v-27q0 -379 315 -379q224 0 320 209l114 -31q-120 -293 -444 -293q-213 0 -334 155q-110 142 -110 362zM207 598h610q-56 295 -305 295q-127 0 -210 -85q-79 -80 -95 -210zM415 1143 l228 284h158l-281 -284h-105z" />
<glyph unicode="&#xea;" d="M68 492q0 220 109 361q121 155 335 155q218 0 337 -151q107 -137 107 -361h-749v-27q0 -379 315 -379q224 0 320 209l114 -31q-120 -293 -444 -293q-213 0 -334 155q-110 142 -110 362zM207 598h610q-56 295 -305 295q-127 0 -210 -85q-79 -80 -95 -210zM213 1143 l230 284h137l233 -284h-133l-168 209l-170 -209h-129z" />
<glyph unicode="&#xeb;" d="M68 492q0 220 109 361q121 155 335 155q218 0 337 -151q107 -137 107 -361h-749v-27q0 -379 315 -379q224 0 320 209l114 -31q-120 -293 -444 -293q-213 0 -334 155q-110 142 -110 362zM207 598h610q-56 295 -305 295q-127 0 -210 -85q-79 -80 -95 -210zM283 1163v209 h123v-209h-123zM621 1163v209h123v-209h-123z" />
<glyph unicode="&#xec;" horiz-adv-x="381" d="M-68 1427h158l227 -284h-104zM129 0v983h123v-983h-123z" />
<glyph unicode="&#xed;" horiz-adv-x="381" d="M63 1143l228 284h158l-281 -284h-105zM129 0v983h123v-983h-123z" />
<glyph unicode="&#xee;" horiz-adv-x="381" d="M-111 1143l230 284h137l233 -284h-133l-168 209l-170 -209h-129zM129 0v983h123v-983h-123z" />
<glyph unicode="&#xef;" horiz-adv-x="381" d="M-41 1163v209h123v-209h-123zM129 0v983h123v-983h-123zM297 1163v209h123v-209h-123z" />
<glyph unicode="&#xf0;" d="M68 492q0 220 109 361q121 155 335 155q79 0 137 -29q40 -20 103 -72q-57 103 -144 199q-72 80 -186 174l-174 -119l-60 58l166 110q-35 31 -59 47q-43 29 -64 43l76 76q67 -38 146 -98l165 110l60 -53l-162 -111q213 -177 318 -355q122 -210 122 -458q0 -245 -97 -388 q-114 -167 -347 -167q-213 0 -334 155q-110 142 -110 362zM190 492q0 -177 72 -281q82 -121 250 -121q322 0 322 402q0 401 -322 401t-322 -401z" />
<glyph unicode="&#xf1;" d="M129 0v983h123v-143q88 168 297 168q346 0 346 -342v-666h-123v629q0 134 -52 196q-57 68 -188 68q-135 0 -210 -94q-70 -86 -70 -226v-573h-123zM193 1165q8 75 53 134q51 67 121 67q51 0 151.5 -44t147.5 -44q64 0 90 96h78q-6 -77 -47 -134q-48 -64 -121 -64 q-51 0 -149 44t-150 44q-68 0 -98 -99h-76z" />
<glyph unicode="&#xf2;" d="M68 492q0 220 109 361q121 155 335 155q213 0 334 -155q110 -141 110 -361q0 -221 -109 -362q-121 -155 -335 -155q-213 0 -334 155q-110 142 -110 362zM190 492q0 -164 78 -275q87 -127 244 -127q159 0 246 126q76 110 76 276q0 163 -78 274q-87 127 -244 127t-244 -127 q-78 -111 -78 -274zM254 1427h158l227 -284h-104z" />
<glyph unicode="&#xf3;" d="M68 492q0 220 109 361q121 155 335 155q213 0 334 -155q110 -141 110 -361q0 -221 -109 -362q-121 -155 -335 -155q-213 0 -334 155q-110 142 -110 362zM190 492q0 -164 78 -275q87 -127 244 -127q159 0 246 126q76 110 76 276q0 163 -78 274q-87 127 -244 127t-244 -127 q-78 -111 -78 -274zM387 1143l228 284h158l-281 -284h-105z" />
<glyph unicode="&#xf4;" d="M68 492q0 220 109 361q121 155 335 155q213 0 334 -155q110 -141 110 -361q0 -221 -109 -362q-121 -155 -335 -155q-213 0 -334 155q-110 142 -110 362zM190 492q0 -164 78 -275q87 -127 244 -127q159 0 246 126q76 110 76 276q0 163 -78 274q-87 127 -244 127t-244 -127 q-78 -111 -78 -274zM213 1143l230 284h137l233 -284h-133l-168 209l-170 -209h-129z" />
<glyph unicode="&#xf5;" d="M68 492q0 220 109 361q121 155 335 155q213 0 334 -155q110 -141 110 -361q0 -221 -109 -362q-121 -155 -335 -155q-213 0 -334 155q-110 142 -110 362zM190 492q0 -164 78 -275q87 -127 244 -127q159 0 246 126q76 110 76 276q0 163 -78 274q-87 127 -244 127t-244 -127 q-78 -111 -78 -274zM193 1165q8 75 53 134q51 67 121 67q51 0 151.5 -44t147.5 -44q64 0 90 96h78q-6 -77 -47 -134q-48 -64 -121 -64q-51 0 -149 44t-150 44q-68 0 -98 -99h-76z" />
<glyph unicode="&#xf6;" d="M68 492q0 220 109 361q121 155 335 155q213 0 334 -155q110 -141 110 -361q0 -221 -109 -362q-121 -155 -335 -155q-213 0 -334 155q-110 142 -110 362zM190 492q0 -164 78 -275q87 -127 244 -127q159 0 246 126q76 110 76 276q0 163 -78 274q-87 127 -244 127t-244 -127 q-78 -111 -78 -274zM283 1163v209h123v-209h-123zM621 1163v209h123v-209h-123z" />
<glyph unicode="&#xf7;" horiz-adv-x="1229" d="M96 467v102h1037v-102h-1037zM500 94q0 48 33.5 81.5t80.5 33.5q48 0 81.5 -33.5t33.5 -81.5q0 -44 -34 -79t-79 -35q-48 0 -82 33t-34 81zM500 942q0 48 33.5 81.5t80.5 33.5q48 0 81.5 -33.5t33.5 -81.5q0 -44 -34 -79.5t-79 -35.5q-48 0 -82 33.5t-34 81.5z" />
<glyph unicode="&#xf8;" d="M68 492q0 220 109 361q121 155 335 155q121 0 221 -56l51 90l66 -41l-55 -94q161 -148 161 -415q0 -221 -109 -362q-121 -155 -335 -155q-123 0 -219 60l-51 -90l-68 37l57 98q-163 133 -163 412zM190 492q0 -190 103 -306l379 660q-70 47 -160 47q-157 0 -244 -127 q-78 -111 -78 -274zM352 137q68 -47 160 -47q159 0 246 126q76 110 76 276q0 198 -103 305z" />
<glyph unicode="&#xf9;" d="M129 317v666h123v-629q0 -134 52 -196q57 -68 188 -68q135 0 210 94q70 86 70 226v573h123v-983h-123v143q-88 -168 -297 -168q-346 0 -346 342zM254 1427h158l227 -284h-104z" />
<glyph unicode="&#xfa;" d="M129 317v666h123v-629q0 -134 52 -196q57 -68 188 -68q135 0 210 94q70 86 70 226v573h123v-983h-123v143q-88 -168 -297 -168q-346 0 -346 342zM387 1143l228 284h158l-281 -284h-105z" />
<glyph unicode="&#xfb;" d="M129 317v666h123v-629q0 -134 52 -196q57 -68 188 -68q135 0 210 94q70 86 70 226v573h123v-983h-123v143q-88 -168 -297 -168q-346 0 -346 342zM213 1143l230 284h137l233 -284h-133l-168 209l-170 -209h-129z" />
<glyph unicode="&#xfc;" d="M129 317v666h123v-629q0 -134 52 -196q57 -68 188 -68q135 0 210 94q70 86 70 226v573h123v-983h-123v143q-88 -168 -297 -168q-346 0 -346 342zM283 1163v209h123v-209h-123zM621 1163v209h123v-209h-123z" />
<glyph unicode="&#xfd;" horiz-adv-x="872" d="M8 -344q30 -17 60 -31q42 -18 67 -18q48 0 82 49q19 26 41 84l100 258l-338 985h115l285 -827l328 827h116l-485 -1247q-22 -58 -78 -164q-60 -80 -162 -80q-50 0 -131 37v127zM311 1143l228 284h158l-281 -284h-105z" />
<glyph unicode="&#xfe;" d="M129 -508v1966h123v-635q35 85 118 136q80 49 175 49q204 0 316 -168q95 -145 95 -361q0 -249 -143 -389q-117 -115 -274 -115q-213 0 -283 177l-4 -660h-123zM246 492q0 -402 282 -402q156 0 237 128q69 108 69 274q0 165 -69 273q-81 128 -237 128q-282 0 -282 -401z " />
<glyph unicode="&#xff;" horiz-adv-x="872" d="M8 -344q30 -17 60 -31q42 -18 67 -18q48 0 82 49q19 26 41 84l100 258l-338 985h115l285 -827l328 827h116l-485 -1247q-22 -58 -78 -164q-60 -80 -162 -80q-50 0 -131 37v127zM207 1163v209h123v-209h-123zM545 1163v209h123v-209h-123z" />
<glyph unicode="&#x152;" horiz-adv-x="2163" d="M90 729q0 347 181 552q189 214 532 214q124 0 313 -37h948v-127h-854v-516h770v-127h-770v-561h901v-127h-1009l-125 -25q-1 0 -75 -8q-38 -4 -77 -4q-350 0 -545 209q-190 204 -190 557zM229 729q0 -298 154 -465q159 -174 455 -174q123 0 233 33v1212q-159 33 -233 33 q-296 0 -455 -173q-154 -168 -154 -466z" />
<glyph unicode="&#x153;" horiz-adv-x="1821" d="M68 492q0 220 109 361q121 155 335 155q268 0 385 -230q132 230 395 230q218 0 337 -151q108 -137 108 -361h-764v-27q0 -379 315 -379q240 0 334 209l115 -31q-121 -293 -434 -293q-296 0 -406 230q-95 -230 -385 -230q-213 0 -334 155q-110 142 -110 362zM190 492 q0 -169 79 -278q90 -124 251 -124q160 0 250 125q80 110 80 277q0 168 -79 277q-89 124 -251 124q-159 0 -249 -125q-81 -110 -81 -276zM973 598h624q-28 152 -99 221q-76 74 -224 74q-125 0 -208 -87q-77 -80 -93 -208z" />
<glyph unicode="&#x178;" horiz-adv-x="1249" d="M6 1458h168l455 -721l454 721h160l-549 -850v-608h-139v608zM395 1644v209h123v-209h-123zM733 1644v209h123v-209h-123z" />
<glyph unicode="&#x2c6;" horiz-adv-x="379" d="M-111 1143l230 284h137l233 -284h-133l-168 209l-170 -209h-129z" />
<glyph unicode="&#x2dc;" horiz-adv-x="379" d="M-131 1165q8 75 53 134q51 67 121 67q51 0 151.5 -44t147.5 -44q64 0 90 96h78q-6 -77 -47 -134q-48 -64 -121 -64q-51 0 -149 44t-150 44q-68 0 -98 -99h-76z" />
<glyph unicode="&#x2000;" horiz-adv-x="1018" />
<glyph unicode="&#x2001;" horiz-adv-x="2036" />
<glyph unicode="&#x2002;" horiz-adv-x="1018" />
<glyph unicode="&#x2003;" horiz-adv-x="2036" />
<glyph unicode="&#x2004;" horiz-adv-x="678" />
<glyph unicode="&#x2005;" horiz-adv-x="509" />
<glyph unicode="&#x2006;" horiz-adv-x="339" />
<glyph unicode="&#x2007;" horiz-adv-x="339" />
<glyph unicode="&#x2008;" horiz-adv-x="254" />
<glyph unicode="&#x2009;" horiz-adv-x="407" />
<glyph unicode="&#x200a;" horiz-adv-x="113" />
<glyph unicode="&#x2010;" horiz-adv-x="758" d="M92 475v127h574v-127h-574z" />
<glyph unicode="&#x2011;" horiz-adv-x="758" d="M92 475v127h574v-127h-574z" />
<glyph unicode="&#x2012;" horiz-adv-x="758" d="M92 475v127h574v-127h-574z" />
<glyph unicode="&#x2013;" d="M0 481v115h1024v-115h-1024z" />
<glyph unicode="&#x2014;" horiz-adv-x="2048" d="M266 481v115h1516v-115h-1516z" />
<glyph unicode="&#x2018;" horiz-adv-x="569" d="M196 897v222q0 210 107 340l69 -52q-88 -100 -88 -272h68v-238h-156z" />
<glyph unicode="&#x2019;" horiz-adv-x="569" d="M197 949q88 100 88 272h-68v238h156v-222q0 -210 -107 -340z" />
<glyph unicode="&#x201a;" horiz-adv-x="569" d="M197 -272q88 100 88 272h-68v238h156v-222q0 -210 -107 -340z" />
<glyph unicode="&#x201c;" horiz-adv-x="645" d="M108 897v222q0 210 107 340l69 -52q-88 -100 -88 -272h68v-238h-156zM358 897v222q0 210 107 340l69 -52q-88 -100 -88 -272h68v-238h-156z" />
<glyph unicode="&#x201d;" horiz-adv-x="645" d="M111 949q88 100 88 272h-68v238h156v-222q0 -210 -107 -340zM361 949q88 100 88 272h-68v238h156v-222q0 -210 -107 -340z" />
<glyph unicode="&#x201e;" horiz-adv-x="645" d="M111 -272q88 100 88 272h-68v238h156v-222q0 -210 -107 -340zM361 -272q88 100 88 272h-68v238h156v-222q0 -210 -107 -340z" />
<glyph unicode="&#x2022;" d="M147 729q0 153 106 259t259 106t259 -106t106 -259q0 -152 -106 -258t-259 -106t-259 106t-106 258z" />
<glyph unicode="&#x2026;" horiz-adv-x="2048" d="M264 0v238h156v-238h-156zM946 0v238h156v-238h-156zM1628 0v238h156v-238h-156z" />
<glyph unicode="&#x202f;" horiz-adv-x="407" />
<glyph unicode="&#x2039;" horiz-adv-x="569" d="M111 539l249 383l99 -66l-211 -317l211 -318l-99 -65z" />
<glyph unicode="&#x203a;" horiz-adv-x="569" d="M111 222l99 -65l249 383l-249 383l-99 -66l211 -317z" />
<glyph unicode="&#x205f;" horiz-adv-x="509" />
<glyph unicode="&#x20ac;" horiz-adv-x="1139" d="M31 510l39 102h90q-4 39 -4 76q0 31 2 62h-127l37 102h96q36 274 176 440q160 191 420 191q254 0 381 -158l-47 -125q-140 166 -336 166q-202 0 -326 -162q-106 -138 -131 -352h690l-37 -102h-661q-2 -9 0 -58q1 -39 4 -80h618l-38 -102h-566q35 -179 145 -293 q121 -125 296 -125q110 0 196 47q68 37 160 129v-157q-158 -136 -360 -136q-237 0 -386 154q-133 137 -184 381h-147z" />
<glyph unicode="&#x2122;" horiz-adv-x="2028" d="M147 1368v90h656v-90h-277v-754h-102v754h-277zM954 614v844h174l273 -684l264 684h174v-844h-102v754l-310 -754h-61l-310 754v-754h-102z" />
<glyph unicode="&#x25fc;" horiz-adv-x="985" d="M0 0v985h985v-985h-985z" />
</font>
</defs>
</svg>
