<?xml version="1.0" standalone="no"?>
<!DOCTYPE svg PUBLIC "-//W3C//DTD SVG 1.1//EN" "http://www.w3.org/Graphics/SVG/1.1/DTD/svg11.dtd" >
<svg xmlns="http://www.w3.org/2000/svg">
<metadata>
This is a custom SVG webfont generated by Font Squirrel.
Copyright   : Copyright c 2010 Vernon Adams vernnewtypographycouk Available under the terms of the SIL OFL v11 from httpscriptssilorgOFL
Foundry     : Vernon Adams
</metadata>
<defs>
<font id="GruppoRegular" horiz-adv-x="677" >
<font-face units-per-em="2048" ascent="1638" descent="-410" />
<missing-glyph horiz-adv-x="375" />
<glyph unicode=" "  horiz-adv-x="375" />
<glyph unicode="&#x09;" horiz-adv-x="375" />
<glyph unicode="&#xa0;" horiz-adv-x="375" />
<glyph unicode="!" horiz-adv-x="330" d="M108 46q0 26 16 42.5t42 16.5q25 0 42.5 -16.5t17.5 -42.5q0 -25 -17.5 -40.5t-42.5 -15.5q-26 0 -42 15.5t-16 40.5zM108 1061v4q0 25 17.5 35t38.5 10q22 0 39.5 -11.5t17.5 -35.5l-32 -813q-1 -14 -8 -21.5t-17 -7.5q-9 0 -16 7.5t-8 21.5l-14 342l-8 230l-6 140 l-3 72q-1 23 -1 27z" />
<glyph unicode="&#x22;" horiz-adv-x="403" d="M74 1099q0 18 14.5 27t34.5 9t34 -9t14 -27l-1 -9l-2 -22l-4 -30l-4 -34l-11 -94q-1 -11 -9 -16t-17 -5t-17.5 5t-8.5 16l-12 94l-4 34l-3 30l-3 22zM230 1099q0 18 14.5 27t34.5 9t34 -9t14 -27l-1 -9l-2 -22l-4 -30l-4 -34l-11 -94q-1 -11 -9 -16t-17 -5t-17.5 5 t-8.5 16l-12 94l-4 34l-3 30l-3 22z" />
<glyph unicode="#" horiz-adv-x="758" d="M62 385q0 12 4.5 19t12.5 10.5t18.5 4t21.5 0.5h477q24 0 42 -5.5t18 -29.5q0 -21 -18.5 -26t-40.5 -5h-477q-24 0 -41 6t-17 26zM101 683q0 24 17 29t40 5h477q24 0 42 -5.5t18 -30.5q0 -20 -18.5 -25.5t-40.5 -5.5h-477q-24 0 -41 6t-17 27zM142 29q0 13 3 28l163 997 q4 25 12 42.5t33 17.5q14 0 18.5 -8.5t4.5 -22.5q0 -6 -0.5 -13t-1.5 -14l-163 -998q-4 -24 -12.5 -41t-28.5 -17q-17 0 -22.5 8t-5.5 21zM381 29q0 13 3 28l163 997q4 25 12.5 42.5t32.5 17.5q14 0 19 -9.5t5 -23.5q0 -6 -0.5 -12t-1.5 -13l-164 -998q-4 -24 -12.5 -41 t-28.5 -17q-17 0 -22.5 8t-5.5 21z" />
<glyph unicode="$" horiz-adv-x="1447" d="M73 815q0 64 24 113t66 84.5t99.5 59t125 37.5t141.5 20t150 6q92 0 182.5 -8.5t169.5 -22.5t142 -32t101 -36q8 -4 12 -11.5t4 -15.5q0 -14 -9.5 -26t-26.5 -12q-9 0 -17 4q-53 22 -117.5 39.5t-136.5 29.5t-148.5 18.5t-151.5 6.5q-104 0 -199 -12t-167.5 -40.5 t-115.5 -76t-43 -119.5q0 -55 34.5 -89.5t93.5 -55.5t138 -31.5t167.5 -16.5t182.5 -10.5t182.5 -15t167.5 -29t138 -51.5t93.5 -84.5t34.5 -126.5q0 -64 -23 -113.5t-64 -86t-97.5 -62t-122.5 -41t-140.5 -22t-150.5 -6.5q-107 0 -213 11t-198 27.5t-162.5 35.5t-106.5 36 q-14 7 -20.5 17.5t-6.5 21.5q0 12 6.5 20.5t19.5 8.5q6 0 14 -3q39 -16 112 -35t165.5 -35.5t197 -27.5t207.5 -11q100 0 190 13t158.5 44t109 82t40.5 126q0 63 -34.5 103.5t-93.5 65t-138 37t-167.5 19t-182.5 10t-182.5 11.5t-167.5 23t-138 44t-93.5 75t-34.5 116z M514 -71v1301q0 13 0.5 25t4 21t11 14.5t21.5 5.5q13 0 20 -6t10.5 -15.5t4 -22t0.5 -25.5v-1290q0 -15 -0.5 -27.5t-4 -22t-10.5 -15t-20 -5.5q-14 0 -21.5 5t-11 14t-4 20t-0.5 23zM849 -71v1301q0 13 0.5 25t4 21t11 14.5t21.5 5.5q13 0 20 -6t10.5 -15.5t4 -22 t0.5 -25.5v-1290q0 -15 -0.5 -27.5t-4 -22t-10.5 -15t-20 -5.5q-14 0 -21.5 5t-11 14t-4 20t-0.5 23z" />
<glyph unicode="%" horiz-adv-x="1268" d="M60 803q0 49 20 93t54 77t80 52.5t98 19.5t98 -19.5t80 -52.5t54 -77t20 -93t-20 -93t-54 -77t-80 -52t-98 -19t-98 19t-80 52t-54 77t-20 93zM128 801q0 -36 14.5 -68t40 -56t58.5 -38t71 -14q37 0 70.5 14t58 38t39 56t14.5 68t-14.5 68.5t-39 56.5t-58 38t-70.5 14 q-38 0 -71 -14t-58.5 -38t-40 -56.5t-14.5 -68.5zM339 -20q0 11 3.5 21.5t8.5 23.5l410 1093q7 23 16.5 40.5t32.5 17.5q19 0 26 -9.5t7 -21.5q0 -11 -2.5 -23t-7.5 -24l-412 -1094l-19 -40q-8 -17 -26 -17q-20 0 -28.5 11t-8.5 22zM707 347q0 49 20 93t54.5 77t81 52.5 t98.5 19.5t98 -19.5t80 -52.5t54 -77t20 -93t-20 -93t-54 -77t-80 -52t-98 -19t-98.5 19t-81 52t-54.5 77t-20 93zM777 345q0 -36 14 -68t39 -56t58.5 -38t72.5 -14q37 0 70.5 14t58 38t39 56t14.5 68t-14.5 68.5t-39 56.5t-58 38t-70.5 14q-39 0 -72.5 -14t-58.5 -38 t-39 -56.5t-14 -68.5z" />
<glyph unicode="&#x26;" horiz-adv-x="1164" d="M58 327q0 53 11.5 96.5t30 77.5t42 60t48.5 45q58 44 132 65q-40 20 -71 53q-26 28 -48 73.5t-22 111.5q0 55 23.5 99t62 74t88 46t102.5 16q75 0 123.5 -11.5t77 -26t39.5 -28.5t11 -20q0 -11 -7 -21t-19 -10q-8 0 -12 3l-9 5q-11 6 -28 14.5t-40.5 16.5t-54 13.5 t-67.5 5.5q-48 0 -88.5 -13t-69.5 -37t-45.5 -57t-16.5 -73q0 -32 9.5 -60.5t24.5 -55t34 -50t39 -44.5h317v160q0 16 12.5 23.5t27.5 7.5t27.5 -7.5t12.5 -23.5v-160h161q27 0 34 -7.5t7 -21.5q0 -11 -7 -20.5t-34 -9.5h-161v-357q0 -73 15 -118t40.5 -70t60 -33.5 t73.5 -8.5q33 0 62 11.5t52.5 26t40 26t24.5 11.5q10 0 16 -7t6 -17q0 -13 -18.5 -31.5t-48.5 -36t-69 -30t-79 -12.5q-60 0 -109.5 17.5t-84.5 59.5q-69 -42 -146.5 -63.5t-155.5 -21.5q-74 0 -142 20.5t-120 63t-83 107.5t-31 154zM134 331q0 -77 25 -130.5t67 -87.5 t96.5 -49.5t113.5 -15.5q71 0 140.5 20t125.5 55q-13 30 -20 69t-7 87v357h-311q-53 -17 -95.5 -42t-72.5 -61.5t-46 -86t-16 -115.5z" />
<glyph unicode="'" horiz-adv-x="246" d="M74 1099q0 18 14.5 27t34.5 9t34 -9t14 -27l-1 -9l-2 -22l-4 -30l-4 -34l-11 -94q-1 -11 -9 -16t-17 -5t-17.5 5t-8.5 16l-12 94l-4 34l-3 30l-3 22z" />
<glyph unicode="(" horiz-adv-x="444" d="M70 551q0 91 10 181t31.5 171t54.5 150t78.5 120t104.5 79.5t132 28.5q16 0 24.5 -10t8.5 -22t-8.5 -22t-24.5 -10q-91 0 -154.5 -57t-103 -150.5t-57.5 -213t-18 -244.5t18 -244.5t57.5 -213t103 -150.5t154.5 -57q16 0 24.5 -10t8.5 -22t-8.5 -22t-24.5 -10 q-73 0 -132 28.5t-104.5 79t-78.5 119.5t-54.5 149.5t-31.5 170t-10 181.5z" />
<glyph unicode=")" horiz-adv-x="444" d="M-70 -145q0 12 8 22t25 10q91 0 154.5 57t103 150.5t57.5 213t18 244.5t-18 244.5t-57.5 213t-103 150.5t-154.5 57q-17 0 -25 10t-8 22t8 22t25 10q73 0 132 -28.5t104.5 -79.5t78.5 -120t54.5 -150t31.5 -171t10 -181t-10 -181t-31.5 -170.5t-54.5 -149.5t-78.5 -119.5 t-104.5 -79t-132 -28.5q-17 0 -25 10t-8 22z" />
<glyph unicode="*" horiz-adv-x="868" d="M65 669q-1 27 14 32.5t40 5.5l262 -8l-141 235q-13 23 -15.5 37.5t20.5 28.5q21 12 32.5 2t24.5 -33l129 -236l111 246q11 22 21.5 33.5t34.5 -0.5q23 -10 20.5 -25.5t-13.5 -37.5l-125 -250l266 6q26 0 41 -4.5t15 -31.5q0 -13 -3.5 -20t-11 -10.5t-17 -4t-21.5 -0.5 l-264 7l142 -235q12 -22 15.5 -37t-17.5 -28q-23 -13 -35 -3t-25 33l-129 235l-111 -244q-11 -23 -21 -34.5t-33 -0.5q-25 11 -22.5 26.5t13.5 37.5l125 250l-266 -6q-13 0 -23 0.5t-17.5 3.5t-11.5 10t-4 20z" />
<glyph unicode="+" horiz-adv-x="797" d="M71 483q0 11 8.5 19.5t27.5 8.5h261v231q0 17 9 25t21 8q11 0 20.5 -8t9.5 -25v-231h262q19 0 27.5 -8.5t8.5 -19.5q0 -10 -8.5 -18t-27.5 -8h-262v-233q0 -17 -9.5 -24.5t-20.5 -7.5q-12 0 -21 7.5t-9 24.5v233h-261q-19 0 -27.5 8t-8.5 18z" />
<glyph unicode="," horiz-adv-x="323" d="M85 -38q25 0 34 1t9 6q0 4 -4.5 10t-10 15t-10 22t-4.5 30q0 29 19 44.5t42 15.5q25 0 46 -18.5t21 -56.5q0 -21 -9 -43t-26.5 -40.5t-44 -30t-62.5 -11.5v56z" />
<glyph unicode="-" d="M95 481q0 9 6.5 16t20.5 7h432q14 0 20.5 -7t6.5 -16q0 -8 -6.5 -15t-20.5 -7h-432q-14 0 -20.5 7t-6.5 15z" />
<glyph unicode="." horiz-adv-x="312" d="M97 46q0 26 16 42.5t42 16.5q25 0 42.5 -16.5t17.5 -42.5q0 -25 -17.5 -40.5t-42.5 -15.5q-26 0 -42 15.5t-16 40.5z" />
<glyph unicode="/" horiz-adv-x="602" d="M49 -20q0 11 3.5 21.5t8.5 23.5l410 1093q7 23 16.5 40.5t32.5 17.5q19 0 26 -9.5t7 -21.5q0 -11 -2.5 -23t-7.5 -24l-412 -1094l-19 -40q-8 -17 -26 -17q-20 0 -28.5 11t-8.5 22z" />
<glyph unicode="0" horiz-adv-x="1060" d="M92 557q0 130 17.5 237t65.5 182.5t133.5 117t221.5 41.5t221.5 -41.5t133.5 -117t65.5 -182.5t17.5 -237q0 -131 -17.5 -237.5t-65.5 -182t-133.5 -117t-221.5 -41.5t-221.5 41.5t-133.5 117t-65.5 182t-17.5 237.5zM168 557q0 -131 16 -227t57 -159.5t111 -94.5 t178 -31q109 0 179.5 31t111 94.5t56 159.5t15.5 227q0 130 -15.5 226.5t-56 160t-111 94.5t-179.5 31q-108 0 -178 -31t-111 -94.5t-57 -160t-16 -226.5z" />
<glyph unicode="1" horiz-adv-x="452" d="M24 1073q0 15 6.5 23.5t16 12.5t20 4.5t18.5 0.5h193q15 0 22 -6.5t10 -16.5t3 -23v-24v-974v-26q0 -12 -3 -22t-10 -16t-20 -6q-15 0 -22.5 6t-11.5 16t-4.5 22.5t-0.5 25.5v974h-154h-21q-11 0 -20.5 2.5t-15.5 8.5t-6 18z" />
<glyph unicode="2" horiz-adv-x="925" d="M80 70q0 88 30 152t79.5 111.5t113 82.5t129.5 66l128 62q64 30 113.5 68.5t79.5 89t30 121.5q0 65 -23.5 111t-67 75t-105.5 42.5t-140 13.5q-54 0 -106 -8t-94 -17q-48 -11 -92 -25q-13 -5 -26 -5q-17 0 -26.5 7.5t-9.5 18.5t10.5 22.5t33.5 20.5q46 15 97 27 q44 11 99.5 19.5t113.5 8.5q110 0 188 -22t127.5 -63t72 -98.5t22.5 -127.5q0 -86 -30.5 -146t-80 -104t-112.5 -76t-129.5 -61t-129.5 -59.5t-112.5 -72t-80 -98t-30.5 -136.5h600q23 0 34 -11t11 -25t-11 -25t-34 -11h-633q-29 0 -34 16.5t-5 55.5z" />
<glyph unicode="3" horiz-adv-x="946" d="M91 77q0 11 9.5 18.5t26.5 7.5q13 0 26 -5q44 -14 92 -25q42 -10 94 -17.5t106 -7.5q103 0 170.5 19.5t107 54.5t55 83.5t15.5 107.5q0 50 -16.5 96.5t-57.5 82t-111 57t-177 21.5h-142q-18 0 -26.5 10t-8.5 22t8.5 22t26.5 10h142q96 0 159.5 19t101.5 49.5t53.5 69.5 t15.5 79q0 38 -11.5 76.5t-44.5 69t-93 49.5t-157 19q-55 0 -109 -7.5t-97 -16.5t-69.5 -16.5t-26.5 -8.5q-13 -5 -26 -5q-17 0 -26.5 7.5t-9.5 18.5t10.5 22.5t33.5 20.5q46 15 97 27q44 11 99.5 19.5t113.5 8.5q120 0 195 -25t118 -65.5t58.5 -91.5t15.5 -103 q0 -34 -12 -74t-42.5 -75.5t-82 -62t-130.5 -34.5q80 -11 136 -36.5t91 -64t51 -88t16 -108.5q0 -69 -20.5 -129t-68.5 -104.5t-127.5 -69.5t-197.5 -25q-58 0 -113.5 8t-99.5 19q-51 12 -97 28q-23 9 -33.5 20.5t-10.5 22.5z" />
<glyph unicode="4" horiz-adv-x="1058" d="M100 418v629q0 12 0.5 24t4.5 21.5t11.5 15.5t22.5 6q13 0 20 -6.5t10 -16t3.5 -21.5t0.5 -23v-629h508v626q0 13 0.5 25.5t3.5 22.5t10.5 16t22.5 6q13 0 20 -6t10.5 -16t4 -22.5t0.5 -25.5v-626h219q16 0 29.5 -0.5t23 -3.5t14.5 -10.5t5 -22.5q0 -16 -13.5 -23 t-34.5 -9.5t-47 -1.5t-51 1h-145v-278q0 -13 -0.5 -25.5t-4 -22.5t-10.5 -16t-20 -6q-15 0 -22.5 6t-10.5 16t-3.5 22.5t-0.5 25.5v278h-508q-27 0 -42 6t-22 16t-8 22.5t-1 25.5z" />
<glyph unicode="5" horiz-adv-x="869" d="M85 58q0 11 9.5 18.5t26.5 7.5q13 0 26 -5q44 -14 92 -25q42 -10 94 -17.5t106 -7.5q82 0 138 21.5t90 61t48.5 94.5t14.5 122q0 55 -14.5 94.5t-48 65t-89.5 37.5t-139 12h-250q-15 0 -31 1t-28 7t-19 20.5t-4 41.5l40 417q1 12 2.5 24.5t8 22.5t21 16.5t41.5 6.5h438 q20 0 30 -11t10 -23.5t-10 -23.5t-30 -11h-438l-40 -418h259q82 0 149.5 -14.5t115.5 -47.5t74 -87t26 -134q0 -102 -26 -171.5t-74 -112.5t-115.5 -61.5t-149.5 -18.5q-58 0 -113.5 8t-99.5 19q-51 12 -97 28q-23 9 -33.5 20.5t-10.5 22.5z" />
<glyph unicode="6" horiz-adv-x="1023" d="M948.005 298.05q0 -60.9961 -22.499 -118.493q-22.499 -57.4961 -73.9951 -101.493q-51.4971 -43.9971 -134.992 -70.9961q-83.4951 -26.998 -204.487 -26.998q-115.993 0 -195.988 29.498t-129.492 97.4941t-71.4951 178.489q-21.999 110.493 -21.999 271.483 q0 156.99 19.499 266.483t69.9951 178.489q50.4971 68.9961 137.992 100.494q87.4941 31.498 224.486 31.498q57.9961 0 113.493 -8q55.4961 -7.99902 99.4932 -18.999q50.9971 -11.999 96.9941 -27.998q22.999 -8.99902 33.498 -20.499q10.5 -11.499 10.5 -22.498 t-9.5 -18.499q-9.49902 -7.5 -26.498 -7.5q-12.999 0 -25.998 5q-43.998 13.999 -91.9951 24.999q-41.9971 9.99902 -93.9941 17.499q-51.9971 7.49902 -105.993 7.49902q-89.9951 0 -159.49 -13.999q-69.4961 -13.999 -117.493 -63.4961t-72.9951 -146.491 q-24.999 -96.9941 -24.999 -261.984q26.999 13 71.9961 23.999q38.9971 8.99902 101.493 16.499q62.4961 7.49902 155.491 7.49902q110.993 0 194.987 -14.499q83.9951 -14.499 140.492 -50.9961q56.4961 -36.498 84.9941 -100.494q28.499 -63.9961 28.499 -162.99z M872.009 306.049q0 84.9951 -22.998 134.492q-22.999 49.4971 -69.4961 75.4951q-46.4971 25.999 -116.493 33.498q-69.9951 7.5 -163.989 7.5q-77.9951 0 -138.492 -4.5q-60.4961 -4.5 -103.493 -10.499q-48.9971 -7 -86.9951 -15.999q0 -135.992 17.999 -227.986 t58.9961 -146.991q40.998 -54.9961 106.994 -78.4951q65.9961 -23.498 161.99 -23.498q104.993 0 173.989 21.998q68.9951 21.999 109.493 57.9971q40.4971 35.9971 56.4961 81.9941q15.999 45.998 15.999 94.9941z" />
<glyph unicode="7" horiz-adv-x="707" d="M36 1079q0 13 9.5 24t28.5 11h555q31 0 42.5 -15.5t11.5 -35.5q0 -21 -8 -39l-424 -967q-8 -18 -19.5 -26t-22.5 -8q-14 0 -23.5 10t-9.5 27q0 11 4 22l419 962h-525q-19 0 -28.5 10.5t-9.5 24.5z" />
<glyph unicode="8" horiz-adv-x="1030" d="M87 307q0 59 14.5 108t47.5 86.5t86.5 63.5t130.5 39q-75 10 -124 37t-77.5 62t-39.5 74t-11 73q0 52 18 103t63 91.5t122.5 65.5t197.5 25t197.5 -25t122.5 -65.5t63 -91.5t18 -103q0 -34 -11 -73t-39.5 -74t-77.5 -62t-124 -37q77 -13 130.5 -39t86.5 -63.5t47.5 -86.5 t14.5 -108q0 -69 -22.5 -129t-73 -104.5t-132.5 -69.5t-200 -25q-119 0 -200.5 25t-132 69.5t-73 104.5t-22.5 129zM153 313q0 -58 18 -107t60 -85t111.5 -56t172.5 -20t172.5 20t111.5 56t60 85t18 107q0 50 -16.5 96t-57.5 81t-111 56t-177 21t-177 -21t-111 -56 t-57.5 -81t-16.5 -96zM185 851q0 -40 15.5 -78.5t53.5 -68.5t101.5 -48.5t159.5 -18.5t159.5 18.5t101.5 48.5t53.5 68.5t15.5 78.5q0 39 -14 77.5t-51 70t-101 51t-164 19.5t-164 -19.5t-101 -51t-51 -70t-14 -77.5z" />
<glyph unicode="9" horiz-adv-x="1023" d="M74 816q0 61 22.5 118.5t74 101.5t135 71t204.5 27q116 0 196 -29.5t129.5 -97.5t71.5 -178.5t22 -271.5q0 -157 -19.5 -266.5t-70 -178.5t-138 -100.5t-224.5 -31.5q-58 0 -113.5 8t-99.5 19q-51 12 -97 28q-23 9 -33.5 20.5t-10.5 22.5t9.5 18.5t26.5 7.5q13 0 26 -5 q44 -14 92 -25q42 -10 94 -17.5t106 -7.5q90 0 159.5 14t117.5 63.5t73 146.5t25 262q-27 -13 -72 -24q-39 -9 -101.5 -16.5t-155.5 -7.5q-111 0 -195 14.5t-140.5 51t-85 100.5t-28.5 163zM150 808q0 -85 23 -134.5t69.5 -75.5t116.5 -33.5t164 -7.5q78 0 138.5 4.5 t103.5 10.5q49 7 87 16q0 136 -18 228t-59 147t-107 78.5t-162 23.5q-105 0 -174 -22t-109.5 -58t-56.5 -82t-16 -95z" />
<glyph unicode=":" horiz-adv-x="393" d="M137 555q0 26 16 42.5t42 16.5q25 0 42.5 -16.5t17.5 -42.5q0 -25 -17.5 -40.5t-42.5 -15.5q-26 0 -42 15.5t-16 40.5zM137 198q0 26 16 42.5t42 16.5q25 0 42.5 -16.5t17.5 -42.5q0 -25 -17.5 -40.5t-42.5 -15.5q-26 0 -42 15.5t-16 40.5z" />
<glyph unicode=";" horiz-adv-x="379" d="M127 555q0 26 16 42.5t42 16.5q25 0 42.5 -16.5t17.5 -42.5q0 -25 -17.5 -40.5t-42.5 -15.5q-26 0 -42 15.5t-16 40.5zM125 121q25 0 34 1t9 6q0 4 -4.5 10t-10 15t-10 22t-4.5 30q0 29 19 44.5t42 15.5q25 0 46 -18.5t21 -56.5q0 -21 -9 -43t-26.5 -40.5t-44 -30 t-62.5 -11.5v56z" />
<glyph unicode="&#x3c;" horiz-adv-x="775" d="M65 335q0 22 13.5 32t37.5 21l504 234l10 4q5 1 10 1q15 0 24.5 -11t9.5 -25q0 -22 -21 -32l-487 -224l487 -223q11 -5 16 -14t5 -19q0 -13 -9.5 -24t-24.5 -11q-10 0 -20 5l-504 234q-24 11 -37.5 21t-13.5 31z" />
<glyph unicode="=" horiz-adv-x="906" d="M125 499q0 11 5.5 20t18.5 9h605q13 0 19 -9t6 -20t-6 -20t-19 -9h-605q-13 0 -18.5 9t-5.5 20zM127 638q0 11 5.5 20t18.5 9h605q13 0 19 -9t6 -20t-6 -20t-19 -9h-605q-13 0 -18.5 9t-5.5 20z" />
<glyph unicode="&#x3e;" horiz-adv-x="773" d="M708.004 335q0 22 -13.499 32t-37.498 21l-503.969 234l-10 4q-4.99902 1 -9.99902 1q-14.999 0 -24.498 -11q-9.5 -11 -9.5 -25q0 -22 20.999 -32l486.97 -224l-486.97 -223q-10.999 -5 -15.999 -14t-5 -19q0 -13 9.5 -24q9.49902 -11 24.498 -11q9.99902 0 19.999 5 l503.969 234q23.999 11 37.498 21t13.499 31z" />
<glyph unicode="?" horiz-adv-x="888" d="M60 1037q0 11 10.5 22.5t33.5 20.5q46 15 97 27q44 11 99.5 19.5t113.5 8.5q118 0 197.5 -25t127.5 -69.5t68.5 -104.5t20.5 -129q0 -38 -5.5 -76.5t-24 -74.5t-54 -67t-94.5 -54.5t-146 -38t-209 -16.5v-216q0 -29 -4 -49.5t-29 -20.5q-15 0 -22.5 5.5t-11.5 15t-4.5 22 t-0.5 25.5v250q0 12 8.5 22t26.5 10q108 0 187.5 10t135.5 27.5t91.5 41.5t55 52.5t27 60.5t7.5 65q0 58 -15.5 107t-55 84t-107 54.5t-170.5 19.5q-54 0 -106 -8t-94 -17q-48 -11 -92 -25q-13 -5 -26 -5q-17 0 -26.5 7.5t-9.5 18.5zM203 46q0 26 16 42.5t42 16.5 q25 0 42.5 -16.5t17.5 -42.5q0 -25 -17.5 -40.5t-42.5 -15.5q-26 0 -42 15.5t-16 40.5z" />
<glyph unicode="@" horiz-adv-x="1334" d="M73 457q0 127 44 232.5t127.5 181.5t204 118t274.5 42q267 0 406 -117.5t139 -340.5q0 -104 -14.5 -188.5t-43.5 -144t-72 -92t-100 -32.5q-55 0 -86 33.5t-31 103.5q-29 -35 -70 -61q-35 -23 -89.5 -41.5t-127.5 -18.5q-85 0 -144 24t-95.5 64.5t-53 93.5t-16.5 110 q0 103 36.5 175t94 117t128.5 65t140 20q60 0 102.5 -11t70.5 -25q33 -16 53 -35q5 25 12 38t23 13q17 0 27.5 -13.5t10.5 -49.5q0 -6 -0.5 -22.5t-3 -58t-7.5 -114.5t-14 -192l-2 -31q-2 -18 -2 -38q0 -16 2 -31.5t7 -27.5t15 -19.5t25 -7.5q34 0 61.5 27t47 78t30 125 t10.5 169q0 195 -118.5 296t-350.5 101q-135 0 -241.5 -37.5t-180 -105t-112.5 -162.5t-39 -210q0 -121 30.5 -217t98.5 -162.5t177 -102t267 -35.5q64 0 121 10t100 22q50 14 93 33q5 2 9 3t8 1q12 0 18 -7t6 -17q0 -9 -5.5 -18.5t-17.5 -14.5q-43 -20 -96 -36 q-45 -14 -105.5 -24.5t-132.5 -10.5q-170 0 -292.5 39t-201.5 113t-116.5 181t-37.5 243zM404 433q0 -118 56.5 -176.5t178.5 -58.5q67 0 120 19t89.5 42.5t55.5 42.5l19 19l22 365q-32 13 -67 24q-30 9 -69 17t-79 8q-60 0 -118 -18t-104.5 -55t-75 -94t-28.5 -135z" />
<glyph unicode="A" horiz-adv-x="1275" d="M20 12q0 13 6 25l15 26l548 1002q11 19 20 33t21 16q13 0 20 -2.5t15 -13.5l21 -33l549 -1002q8 -14 14 -27t6 -24t-9 -20.5t-26 -9.5t-28.5 14t-22.5 33l-172 319h-717l-36 -70l-40 -80l-43 -79q-22 -39 -41.5 -69.5t-35.5 -49t-27 -18.5q-19 0 -28 11t-9 19zM301 397 h669l-331 617z" />
<glyph unicode="B" horiz-adv-x="1315" d="M129 35v1042q0 18 11 27.5t28 9.5h458q72 0 142 -1.5t132.5 -10t115 -25.5t91 -48t60 -78t21.5 -115q0 -64 -19.5 -107t-48.5 -69.5t-63 -40.5t-63 -19.5t-48.5 -5.5t-18.5 0q61 -6 118 -21t102 -45.5t72 -79.5t28 -122q0 -102 -39 -165.5t-107.5 -99t-161.5 -48.5 t-200 -13h-576q-17 0 -25.5 10t-8.5 25zM214 66h563q135 0 212.5 22t115.5 58t47.5 83t9.5 97q0 69 -33.5 115t-95 73t-149.5 38.5t-197 11.5h-473v-498zM214 619h473q108 0 186.5 8.5t129.5 32.5t75.5 66.5t24.5 109.5q0 51 -17 90.5t-65 66.5t-134 41t-224 14h-449v-429z " />
<glyph unicode="C" horiz-adv-x="1420" d="M70 557q0 156 47.5 265.5t141.5 179t234.5 101.5t326.5 32q129 0 252 -23.5t248 -75.5q21 -8 27 -22q3 -8 3 -15q0 -5 -2 -11q-4 -12 -17.5 -17.5t-31.5 2.5q-115 48 -239 72t-240 24q-178 0 -304 -29.5t-206.5 -92t-117.5 -159t-37 -231.5t37 -231.5t117.5 -159 t206.5 -92t304 -29.5q116 0 240 24t239 72q18 7 31 1q14 -4 18 -16q2 -5 2 -11q0 -7 -3 -15q-6 -14 -27 -22q-125 -52 -248 -75.5t-252 -23.5q-186 0 -326.5 32t-234.5 101.5t-141.5 179t-47.5 265.5z" />
<glyph unicode="D" horiz-adv-x="1592" d="M129 35v1042q0 15 0.5 22.5t4.5 10.5t12.5 3.5t23.5 0.5h686q163 0 286.5 -28t206.5 -93.5t125 -171.5t42 -262q0 -160 -42 -267t-125 -172t-206.5 -92.5t-286.5 -27.5h-688q-15 0 -22.5 0.5t-11.5 4t-4.5 10.5t-0.5 20zM214 66h642q163 0 273 28t177 87.5t96 153 t29 224.5q0 129 -29 221.5t-96 152t-177 87.5t-273 28h-642v-982z" />
<glyph unicode="E" horiz-adv-x="1258" d="M129 35v1042q0 15 0.5 22.5t3.5 10.5t10.5 3.5t22.5 0.5h913h28q13 0 23.5 -3t16.5 -10t6 -22q0 -12 -6 -18.5t-16.5 -9.5t-23.5 -3h-28h-865v-447h838h28q13 0 23.5 -2t16.5 -8.5t6 -18.5q0 -15 -6 -21.5t-16.5 -9t-23.5 -2t-28 0.5h-838v-474h867h28q13 0 23.5 -3 t16.5 -9.5t6 -18.5q0 -15 -6 -22t-16.5 -10t-23.5 -3h-28h-913q-15 0 -22.5 0.5t-11.5 4t-4.5 10.5t-0.5 20z" />
<glyph unicode="F" horiz-adv-x="1223" d="M129 68v1009q0 15 0.5 22.5t3.5 10.5t10.5 3.5t22.5 0.5h978q13 0 24.5 -0.5t20 -4t13.5 -10.5t5 -20q0 -23 -17 -27t-46 -4h-930v-454h787q29 0 47.5 -4t18.5 -27q0 -13 -5.5 -20t-14.5 -10.5t-21 -4t-25 -0.5h-787v-458q0 -29 -8.5 -49.5t-32.5 -20.5q-15 0 -23.5 5.5 t-13 15t-6 22t-1.5 25.5z" />
<glyph unicode="G" horiz-adv-x="1534" d="M70 557q0 156 47.5 265.5t141.5 179t234.5 101.5t326.5 32q129 0 252 -23.5t248 -75.5q21 -9 27 -22.5t1.5 -25t-18 -17.5t-31.5 2q-115 48 -239 72t-240 24q-178 0 -304 -29.5t-206.5 -92t-117.5 -159t-37 -231.5t37 -231.5t117.5 -159t206.5 -92t304 -29.5 q148 0 288 20t276 53v418h-510q-12 0 -24.5 0.5t-23 4t-17 10.5t-6.5 20t6.5 20t16.5 10.5t22.5 4t25.5 0.5h510q42 0 57 -16t15 -54v-418q0 -31 -23 -47.5t-49 -21.5q-148 -29 -287 -49.5t-277 -20.5q-186 0 -326.5 32t-234.5 101.5t-141.5 179t-47.5 265.5z" />
<glyph unicode="H" horiz-adv-x="1303" d="M128 70v974q0 13 1.5 25.5t7 22.5t15 16t24.5 6q22 0 29.5 -22.5t7.5 -47.5v-452h877v452q0 13 1 25.5t5.5 22.5t12.5 16t23 6t23.5 -6t13 -16t5.5 -22.5t1 -25.5v-974q0 -13 -1 -25.5t-5.5 -22.5t-12.5 -16t-23 -6t-23.5 6t-13 16t-5.5 22.5t-1 25.5v463h-877v-463 q0 -25 -8.5 -47.5t-30.5 -22.5q-15 0 -24.5 6t-14 16t-6 22.5t-1.5 25.5z" />
<glyph unicode="I" horiz-adv-x="1092" d="M74 35q0 12 6.5 18.5t17 9.5t23.5 3h26h357v982h-357h-26q-13 0 -23.5 3t-17 9.5t-6.5 18.5q0 15 7 22t17.5 10t23.5 3h25h799h28q13 0 22.5 -3t15.5 -10t6 -20t-6 -20t-15.5 -10t-22.5 -3h-28h-357v-982h357h28q13 0 22.5 -3t15.5 -10t6 -20t-6 -20t-15.5 -10t-22.5 -3 h-28h-799h-25q-13 0 -23.5 3t-17.5 10t-7 22z" />
<glyph unicode="J" horiz-adv-x="1040" d="M28 238q0 20 10 29.5t24 9.5q13 0 25.5 -9.5t17.5 -27.5q16 -69 56.5 -107t94 -57t115.5 -23t121 -4q106 0 173.5 35.5t105.5 104.5t52.5 170.5t14.5 234.5v450q0 29 8 49.5t37 20.5q13 0 21 -6.5t12 -16.5t5.5 -22.5t1.5 -24.5v-450q0 -156 -20.5 -271.5t-70 -191.5 t-132.5 -113.5t-208 -37.5q-85 0 -160.5 10t-135.5 36t-102.5 71.5t-61.5 116.5q-4 12 -4 24z" />
<glyph unicode="K" horiz-adv-x="1126" d="M129 68v974q0 29 8.5 50.5t37.5 21.5q24 0 32 -22t8 -48v-520l799 560q11 8 21.5 11.5t18.5 3.5q16 0 24.5 -9t8.5 -23q0 -22 -22 -38l-580 -408l583 -532q20 -19 20 -40q0 -15 -10 -26t-25 -11q-17 0 -33 15l-598 553l-207 -136v-374q0 -29 -9 -49.5t-33 -20.5 q-15 0 -23.5 5.5t-13 15t-6 22t-1.5 25.5z" />
<glyph unicode="L" horiz-adv-x="1146" d="M129 37v1007q0 13 2 25.5t7 22.5t14 16t24 6q12 0 19.5 -6.5t11.5 -16.5t5.5 -22.5t1.5 -24.5v-978h859q20 0 30.5 -10.5t10.5 -22.5q0 -13 -10.5 -23t-30.5 -10h-903q-15 0 -23.5 1t-12.5 4.5t-4.5 11t-0.5 20.5z" />
<glyph unicode="M" horiz-adv-x="1708" d="M129 70v986q0 23 12.5 38.5t31.5 15.5q14 0 30 -10t31 -33l620 -928l620 928q15 23 31 33t30 10q19 0 31.5 -15.5t12.5 -38.5v-986q0 -29 -7 -49.5t-36 -20.5q-25 0 -33.5 20.5t-8.5 49.5v884l-591 -868q-23 -34 -49 -34t-49 34l-591 868v-884q0 -29 -8.5 -49.5 t-33.5 -20.5q-29 0 -36 20.5t-7 49.5z" />
<glyph unicode="N" horiz-adv-x="1470" d="M129 70v979q0 30 11 46t30 16q25 0 58 -30l1028 -953v910q0 15 1 28.5t5.5 24t13 17t23.5 6.5q26 0 34 -22.5t8 -53.5v-974q0 -64 -34 -64q-23 0 -57 31l-1036 955v-916q0 -29 -8.5 -49.5t-32.5 -20.5q-29 0 -36.5 20.5t-7.5 49.5z" />
<glyph unicode="O" horiz-adv-x="1609" d="M70 557q0 146 43.5 254.5t133.5 180.5t228.5 107.5t328.5 35.5t328.5 -35.5t229 -107.5t134 -180.5t43.5 -254.5t-43.5 -254.5t-134 -180.5t-229 -107.5t-328.5 -35.5t-328.5 35.5t-228.5 107.5t-133.5 180.5t-43.5 254.5zM155 557q0 -140 40 -237t120.5 -158.5 t202.5 -89t286 -27.5t286 27.5t203 89t121 158.5t40 237q0 139 -40 236.5t-121 159t-203 89t-286 27.5t-286 -27.5t-202.5 -89t-120.5 -159t-40 -236.5z" />
<glyph unicode="P" horiz-adv-x="1172" d="M128 76v1001q0 15 2.5 22.5t8.5 10.5t15.5 3.5t24.5 0.5h332q91 0 171.5 -5t148.5 -20.5t122 -42.5t91.5 -71.5t57.5 -107.5t20 -150t-19.5 -149t-57 -104t-91 -66.5t-121.5 -36.5q-68 -13 -149 -15q-37 -1 -76 -1q-47 0 -97 2l-298 8v-279q0 -29 -7.5 -52.5t-31.5 -23.5 q-29 0 -37.5 22.5t-8.5 53.5zM213 410h298q136 0 235.5 8.5t164 40t95.5 92.5t31 166q0 104 -31.5 169t-96 101t-163.5 48.5t-235 12.5h-298v-638z" />
<glyph unicode="Q" horiz-adv-x="1611" d="M70 557q0 146 43.5 254.5t133.5 180.5t228.5 107.5t328.5 35.5t328.5 -35.5t229 -107.5t134 -180.5t43.5 -254.5t-43.5 -254.5t-134 -180.5t-229 -107.5t-328.5 -35.5t-328.5 35.5t-228.5 107.5t-133.5 180.5t-43.5 254.5zM155 557q0 -140 40 -237t120.5 -158.5 t202.5 -89t286 -27.5t286 27.5t203 89t121 158.5t40 237q0 139 -40 236.5t-121 159t-203 89t-286 27.5t-286 -27.5t-202.5 -89t-120.5 -159t-40 -236.5zM893 136q-1 7 -1 12.5t1 11.5q2 10 8 17t21 10q4 1 7 1q7 0 13 -4q8 -4 13 -12.5t8 -20.5t5 -25l47 -228q6 -29 6 -49.5 t-24 -25.5q-6 -1 -12 -1q-7 0 -11 2q-9 4 -15 12.5t-8.5 20.5t-5.5 24l-47 228q-3 15 -5 27z" />
<glyph unicode="R" horiz-adv-x="1174" d="M128 76v1001q0 15 0.5 22.5t3.5 10.5t10.5 3.5t22.5 0.5h290q92 0 176 -2t156.5 -13t131.5 -32.5t101 -61.5t65 -100t23 -147q0 -65 -18 -114t-48.5 -85t-72 -60t-88.5 -39t-97.5 -22.5t-98.5 -9.5l368 -344q17 -16 17.5 -33t-10.5 -27t-30.5 -8t-41.5 23l-401 383 l-374 9v-355q0 -15 -1.5 -28.5t-5.5 -24t-11.5 -17t-19.5 -6.5q-29 0 -38 22.5t-9 53.5zM213 488h375q87 0 166 8.5t138.5 37t95 82t35.5 142.5q0 103 -37.5 161.5t-109.5 87t-178 35t-243 6.5h-242v-560z" />
<glyph unicode="S" horiz-adv-x="1448" d="M80 815q0 64 24 113t66 84.5t99.5 59t125 37.5t141.5 20t150 6q92 0 182.5 -8.5t169.5 -22.5t142 -32t101 -36q8 -4 12 -11.5t4 -15.5q0 -14 -9.5 -26t-26.5 -12q-9 0 -17 4q-53 22 -117.5 39.5t-136.5 29.5t-148.5 18.5t-151.5 6.5q-104 0 -199 -12t-167.5 -40.5 t-115.5 -76t-43 -119.5q0 -55 34.5 -89.5t93.5 -55.5t138 -31.5t167.5 -16.5t182.5 -10t182.5 -15t167.5 -29.5t138 -51.5t93.5 -84.5t34.5 -126.5q0 -64 -23 -113.5t-64 -86t-97.5 -62t-122.5 -41t-140.5 -22t-150.5 -6.5q-107 0 -213 11t-198 27.5t-162.5 35.5t-106.5 36 q-14 7 -20.5 17.5t-6.5 21.5q0 12 6.5 20.5t19.5 8.5q6 0 14 -3q39 -16 112 -35t165.5 -35.5t197 -27.5t207.5 -11q100 0 190 13t158.5 44t109 82t40.5 126q0 63 -34.5 103.5t-93.5 65t-138 37t-167.5 19t-182.5 10t-182.5 11.5t-167.5 23t-138 44t-93.5 75t-34.5 116z" />
<glyph unicode="T" horiz-adv-x="1359" d="M26 1077q0 15 7 22.5t17.5 10.5t24 3.5t25.5 0.5h1161q15 0 28 -0.5t22.5 -3.5t15.5 -10.5t6 -22.5q0 -12 -6 -18.5t-15.5 -8.5t-22.5 -2h-28h-537v-974q0 -15 -1 -28t-5.5 -23.5t-12.5 -16.5t-23 -6q-26 0 -34.5 22.5t-8.5 51.5v974h-539h-26q-14 0 -24.5 2t-17 8.5 t-6.5 18.5z" />
<glyph unicode="U" horiz-adv-x="1538" d="M116 560v484q0 13 1.5 25.5t6.5 22.5t13.5 16t23.5 6q25 0 32.5 -22t7.5 -48v-484q0 -131 27.5 -227.5t93 -160.5t174.5 -95.5t273 -31.5q163 0 272.5 31.5t175 95.5t93 160.5t27.5 227.5v484q0 26 8 48t33 22q15 0 23.5 -6t13 -16t6 -22.5t1.5 -25.5v-484 q0 -156 -40.5 -266.5t-122.5 -180.5t-204.5 -102t-285.5 -32q-164 0 -286 32t-204 102t-122.5 180.5t-40.5 266.5z" />
<glyph unicode="V" horiz-adv-x="1357" d="M23 1085q0 8 8 20.5t25 12.5q17 -2 28.5 -16t22.5 -33l572 -971l571 971q11 19 23 33t26 16q19 0 27 -12t8 -23t-6.5 -23.5t-14.5 -25.5l-583 -991q-11 -19 -25 -27q-13 -8 -26 -8h-2q-14 0 -27.5 9.5t-22.5 25.5l-585 991q-8 14 -13.5 26.5t-5.5 24.5z" />
<glyph unicode="W" horiz-adv-x="1653" d="M32 1083q0 11 8 22t28 11q19 0 28.5 -17.5t17.5 -37.5l331 -938l334 938q8 20 17.5 37.5t27.5 17.5q12 0 19.5 -4t12.5 -12q6 -7 10 -17l9 -22l332 -938l334 938q8 20 18 37.5t27 17.5q20 0 27.5 -11t7.5 -22t-3.5 -23t-8.5 -26l-353 -983q-11 -23 -20 -38t-29 -15 t-29.5 15t-17.5 38l-334 932l-332 -932q-8 -23 -19 -38t-30 -15q-20 0 -29.5 15t-17.5 38l-352 983l-10 26q-4 12 -4 23z" />
<glyph unicode="X" horiz-adv-x="1214" d="M24 38q4 18 24 38l507 481l-498 495q-17 16 -17 34q-2 17 8 27q9 10 25 10q1 -1 2 -1q17 0 36 -19l496 -497l496 497q19 19 36 19q1 0 2 1q17 0 25 -10q10 -10 8.5 -27.5t-17.5 -33.5l-498 -495l507 -481q20 -20 24 -38q1 -5 0 -9q0 -12 -6 -19q-8 -8 -22 -8h-6 q-18 2 -40 23l-509 483l-509 -483q-23 -21 -41 -23h-6q-14 0 -21 8q-6 7 -6 19q-1 4 0 9z" />
<glyph unicode="Y" horiz-adv-x="1107" d="M32 1108q9 8 22 8q4 0 8 -1q18 -3 35 -24l457 -556l457 556q17 21 35 23q3 1 7 1q13 0 21 -7q12 -9 12 -27q1 0 1 -1q0 -18 -18 -38l-472 -571v-408q0 -29 -7.5 -49t-32.5 -20q-29 0 -37 20.5t-8 46.5v412l-474 569q-18 20 -18 38q0 19 12 28z" />
<glyph unicode="Z" horiz-adv-x="1357" d="M59 33q0 17 7.5 29t24.5 26l1084 960h-1043q-23 0 -34 10t-11 23q0 12 11 22.5t34 10.5h1088q35 0 58.5 -5t23.5 -30q0 -14 -11 -27.5t-22 -25.5l-1085 -960h1040q23 0 35 -10.5t12 -22.5q0 -13 -12 -23t-35 -10h-1092q-35 0 -54 4t-19 29z" />
<glyph unicode="[" horiz-adv-x="391" d="M115 -139v1392q0 15 0.5 27.5t4.5 22t12.5 15t23.5 5.5h105q15 0 27.5 -0.5t22.5 -3.5t15.5 -10t5.5 -19q0 -15 -5.5 -22.5t-15.5 -10.5t-22.5 -3.5t-27.5 -0.5h-74v-1392q34 0 60.5 1t45.5 -1t29 -9.5t10 -25.5q0 -23 -21 -29t-50 -6h-107q-15 0 -23 5.5t-11.5 15t-4 22 t-0.5 27.5z" />
<glyph unicode="\" horiz-adv-x="644" d="M47 1141q0 11 8.5 22t28.5 11q9 0 15.5 -5t11 -13t9 -18t9.5 -20l453 -1102q8 -17 11 -29t3 -20q0 -11 -8 -20.5t-27 -9.5q-18 0 -28.5 16.5t-18.5 36.5l-452 1102q-8 17 -11.5 29t-3.5 20z" />
<glyph unicode="]" horiz-adv-x="390" d="M58 -174q0 16 10.5 23.5t29.5 10t46 2t60 -0.5v1392h-74q-13 0 -26 0.5t-23 3.5t-16.5 10.5t-6.5 22.5q0 12 6.5 19t16.5 10t23 3.5t26 0.5h104q15 0 23.5 -5.5t12.5 -15t4.5 -22t0.5 -27.5v-1392q0 -15 -0.5 -27.5t-4 -22t-11.5 -15t-23 -5.5h-106q-13 0 -26 1t-23 5 t-16.5 10.5t-6.5 18.5z" />
<glyph unicode="^" horiz-adv-x="619" d="M39 987q0 13 9 25l22 26q8 11 26 34l40 51l48 57q26 29 50 53t44 39.5t32 15.5q11 0 20.5 -5t17.5 -11l17 -17l186 -217q13 -12 21 -24t8 -25q0 -8 -8 -21.5t-25 -13.5q-12 0 -24 13l-29 30l-182 207l-140 -155l-22 -27q-13 -16 -27 -31t-27.5 -26t-23.5 -11 q-14 0 -23.5 12.5t-9.5 20.5z" />
<glyph unicode="_" horiz-adv-x="1511" d="M123 228q0 17 8.5 30.5t28.5 13.5h1190q20 0 29 -13.5t9 -30.5t-9 -30.5t-29 -13.5h-1190q-20 0 -28.5 13.5t-8.5 30.5z" />
<glyph unicode="`" horiz-adv-x="376" d="M12 316q0 11 6 22t15 19.5t20.5 14t22.5 5.5q14 0 25 -11l252 -276q8 -8 8 -18q0 -11 -8 -18.5t-19 -7.5q-9 0 -15 5l-292 237q-15 12 -15 28z" />
<glyph unicode="a" horiz-adv-x="1057" d="M58 224q0 73 30.5 121.5t84.5 78t126.5 41.5t156.5 12q64 0 127.5 -4.5t120 -13t104 -21t79.5 -29.5q0 102 -28.5 164t-76.5 96.5t-110 46t-129 11.5q-95 0 -166 -12t-122 -29t-83.5 -35t-50.5 -30q-8 -5 -17 -1t-15 13t-6 19.5t10 17.5q9 9 39 28t84.5 38.5t135.5 34.5 t192 15q80 0 156.5 -15.5t136 -61.5t95.5 -130t36 -221v-288q0 -12 -1 -24t-5.5 -22.5t-12.5 -17t-22 -6.5q-23 0 -31.5 21t-8.5 53v69q-34 -44 -90 -77q-48 -29 -127 -52.5t-194 -23.5q-87 0 -163.5 13t-133 41t-89 72.5t-32.5 107.5zM138 224q0 -48 24.5 -81t68.5 -54 t104.5 -30.5t132.5 -9.5q109 0 187.5 20t130.5 44q61 28 101 65v201q-74 10 -148 19q-64 8 -137.5 14t-137.5 6q-77 0 -137.5 -9t-102.5 -31t-64 -59.5t-22 -94.5z" />
<glyph unicode="b" horiz-adv-x="1136" d="M101 73v992q0 32 13.5 40.5t28.5 8.5t26.5 -8.5t11.5 -40.5v-478q11 43 39.5 74t67 53t84 36t91.5 22t89.5 11t78.5 3q90 0 170.5 -18.5t141 -63.5t96 -120t35.5 -188q0 -112 -29.5 -189.5t-86 -125.5t-139 -69.5t-188.5 -21.5q-100 0 -182.5 16.5t-142.5 36.5 q-70 24 -125 54v-24q0 -15 -1 -28t-5 -23t-12 -16t-23 -6t-22.5 6t-11.5 16t-4.5 23t-0.5 28zM181 140q67 -26 141 -46q63 -17 143.5 -31t165.5 -14q96 0 164.5 20t113 62.5t65 108t20.5 156.5q0 94 -28.5 158t-77.5 102t-115.5 54.5t-141.5 16.5q-60 -1 -131 -9.5 t-136 -30.5t-115 -61t-68 -102v-384z" />
<glyph unicode="c" horiz-adv-x="1007" d="M62 385q0 116 34 193t99 123.5t159.5 65.5t215.5 19q88 0 182.5 -17.5t181.5 -62.5q11 -6 16 -14.5t5 -16.5q0 -11 -7.5 -18.5t-20.5 -7.5q-11 0 -21 5q-24 12 -62 24.5t-83 23.5t-94.5 18t-97.5 7h1q-115 0 -196 -19t-132.5 -60.5t-75.5 -106.5t-24 -156 q0 -92 26.5 -156t80 -104t133.5 -58t187 -18q48 0 97.5 7t94.5 18t83 23.5t62 24.5q10 5 21 5q13 0 20.5 -7.5t7.5 -18.5q0 -8 -5 -16.5t-16 -14.5q-87 -45 -181.5 -62.5t-182.5 -17.5q-114 0 -207.5 18t-160 63t-103.5 121t-37 193z" />
<glyph unicode="d" horiz-adv-x="1137" d="M63 380q0 112 29.5 189.5t86 125.5t139 69.5t188.5 21.5q129 0 215.5 -20t138.5 -44q61 -28 96 -63v384q0 13 0.5 26t4.5 23t11.5 16t22.5 6t23 -5.5t12 -14.5t5 -21.5t1 -27.5v-991q0 -32 -12.5 -43t-26.5 -11q-17 0 -29 10t-12 42v139q-11 -43 -39.5 -74.5t-67 -53.5 t-84 -36t-91.5 -22.5t-89.5 -11.5t-78.5 -3q-90 0 -170.5 18.5t-141 63.5t-96 120t-35.5 188zM143 380q0 -95 28.5 -158.5t77.5 -101.5t115.5 -54.5t141.5 -16.5q60 1 131 9.5t136 30.5t115 61t68 102v360q-39 31 -101 57q-53 22 -139 40t-210 18q-96 0 -164.5 -20 t-113 -62.5t-65 -108t-20.5 -156.5z" />
<glyph unicode="e" horiz-adv-x="1021" d="M62 385q0 116 37 193t101.5 123.5t152 65.5t188.5 19q208 0 311.5 -79.5t103.5 -227.5q0 -13 -4 -30.5t-10.5 -33t-14.5 -26t-15 -10.5h-274l-496 10q2 -93 25 -157.5t66 -105t107 -59t149 -18.5q95 0 166 12t122 29t83.5 35t50.5 30q8 5 17 1t15 -13t6 -19.5t-10 -17.5 q-9 -9 -39 -28t-84.5 -38.5t-135.5 -34.5t-192 -15q-116 0 -197 29t-132 81t-74 125t-23 160zM143 431h754v54q0 50 -18.5 94t-60.5 77t-110 52t-167 19q-93 0 -165 -16t-122.5 -51.5t-78.5 -91.5t-32 -137z" />
<glyph unicode="f" horiz-adv-x="645" d="M22 751q0 9 7 16.5t21 7.5h89v41q0 81 16.5 136.5t47 89t73.5 48.5t97 15q30 0 57 -1.5t54.5 -6t58 -12t66.5 -19.5q9 -3 15.5 -6.5t10.5 -9.5q5 -8 5 -15q0 -10 -11 -18q-5 -5 -15.5 -6.5t-23.5 3.5q-54 19 -104.5 26t-98.5 7q-39 0 -70.5 -8.5t-53.5 -33.5t-33.5 -70.5 t-11.5 -118.5v-41h385q15 0 22.5 -7.5t7.5 -16.5t-7.5 -16.5t-22.5 -7.5h-385v-678q0 -32 -11.5 -40.5t-28.5 -8.5q-14 0 -27 8.5t-13 40.5v678h-88q-14 0 -21 7.5t-7 16.5z" />
<glyph unicode="g" horiz-adv-x="1123" d="M63 383q0 117 37 194.5t105 124t163.5 65.5t212.5 19q64 0 113.5 -8.5t86.5 -22t63 -30.5t44 -35q40 -41 54 -96q0 22 -2 51.5t-0.5 56.5t9 45.5t25.5 18.5q15 0 24 -6.5t14.5 -16.5t7.5 -22.5t2 -24.5v-719q0 -158 -119.5 -237.5t-339.5 -79.5q-93 0 -160 12t-115 29 q-26 9 -49 19.5t-43 21.5q-11 3 -20 12q-8 6 -14.5 14t-6.5 19q0 19 13.5 27t19.5 8q8 0 19.5 -4.5t25.5 -14.5q32 -22 80 -36q42 -14 102.5 -25.5t147.5 -11.5q82 0 151.5 14.5t120 44.5t79 76.5t28.5 111.5v119q-43 -30 -92 -50.5t-100.5 -32.5t-104 -17.5t-101.5 -5.5 q-114 0 -203 17.5t-151 61.5t-94.5 120.5t-32.5 193.5zM143 383q0 -92 21 -156t68.5 -103.5t125 -57t190.5 -17.5q52 0 104.5 6t103 18t98 31t88.5 46v374q-14 54 -54 97q-18 18 -43.5 35t-62 30.5t-84.5 22t-109 8.5q-119 0 -203.5 -17.5t-138.5 -57t-79 -103.5t-25 -156z " />
<glyph unicode="h" horiz-adv-x="1085" d="M101 72v972q0 12 1 24.5t5.5 22.5t13 16.5t22.5 6.5q12 0 19.5 -6t11.5 -16t5.5 -22.5t1.5 -25.5v-450q11 40 37.5 70t62 51.5t78.5 35t86.5 21.5t85 11t75.5 3q108 0 182 -18.5t119.5 -61.5t65.5 -113.5t20 -174.5v-346q0 -13 -1.5 -26t-5.5 -23t-11.5 -16.5t-19.5 -6.5 q-15 0 -23 6.5t-12.5 16.5t-5.5 23t-1 26v346q0 78 -12 136t-45.5 96.5t-93.5 57.5t-156 19q-58 0 -125 -9.5t-127.5 -33t-107.5 -62.5t-65 -98v-452q0 -13 -1.5 -26t-5.5 -23t-11.5 -16.5t-19.5 -6.5q-14 0 -22.5 6.5t-13 16.5t-5.5 23t-1 26z" />
<glyph unicode="i" horiz-adv-x="311" d="M102 916q0 23 15 38.5t38 15.5t39 -15.5t16 -38.5t-16 -37t-39 -14t-38 14t-15 37zM115 63v642q0 15 1 27.5t5 22t12 15t22 5.5q25 0 32.5 -21t7.5 -47v-644q0 -13 -1 -24.5t-4.5 -20t-11.5 -13.5t-23 -5q-14 0 -22 4.5t-12 12.5t-5 19.5t-1 26.5z" />
<glyph unicode="j" horiz-adv-x="314" d="M-162 -231q0 13 5.5 20t14.5 10t21 3.5t25 0.5q83 0 126.5 26t63 67.5t21.5 93.5t2 104v611q0 26 7.5 43.5t33.5 17.5q15 0 22.5 -4.5t11.5 -13t4.5 -19.5t0.5 -24v-611q0 -35 -1.5 -75t-10 -80t-26.5 -77t-50.5 -65.5t-82.5 -45.5t-122 -17q-13 0 -25 0.5t-21 4 t-14.5 10.5t-5.5 20zM111 916q0 23 15 38.5t38 15.5t39 -15.5t16 -38.5t-16 -37t-39 -14t-38 14t-15 37z" />
<glyph unicode="k" horiz-adv-x="935" d="M101 44v1026q0 20 14.5 30t27.5 10q14 0 26 -10t12 -30v-660l666 304q6 3 13 3q13 0 21.5 -10t8.5 -21q0 -7 -4 -13.5t-13 -10.5l-415 -192l415 -409q13 -13 13 -29q0 -13 -9 -21.5t-23 -8.5q-8 0 -17 3.5t-17 12.5l-423 428l-216 -98v-304q0 -23 -13 -33.5t-27 -10.5 q-13 0 -26.5 10.5t-13.5 33.5z" />
<glyph unicode="l" horiz-adv-x="345" d="M132 68v974q0 15 1 28t5.5 22.5t13 15.5t23.5 6q12 0 19.5 -6t11.5 -16t5 -22.5t1 -25.5v-974q0 -29 -7 -49.5t-32 -20.5q-15 0 -23 5.5t-12 15t-5 22t-1 25.5z" />
<glyph unicode="m" horiz-adv-x="1518" d="M101 52v663q0 16 4.5 25.5t11 15t14 7t14.5 1.5q17 0 26 -8.5t9 -40.5v-121q16 45 50.5 81t82 60.5t106.5 37.5t124 13q76 0 123 -21.5t74 -52.5t38.5 -64t16.5 -56q17 31 43.5 65.5t67.5 63t98 47t135 18.5q147 0 216.5 -71t69.5 -226v-437q0 -18 -4 -28t-9.5 -15.5 t-12.5 -7t-13 -1.5q-7 0 -14.5 1t-13.5 6t-9.5 15.5t-3.5 29.5v437q0 69 -15.5 115t-42.5 73.5t-63 38.5t-77 11q-68 0 -120 -13.5t-92.5 -38.5t-72 -61.5t-58.5 -81.5v-480q0 -18 -3.5 -28t-9.5 -15.5t-12.5 -7t-12.5 -1.5q-7 0 -14.5 1t-13.5 6t-10 15.5t-4 29.5v480 q0 91 -42.5 143t-136.5 52q-71 0 -132 -16t-108.5 -43t-79.5 -63t-44 -77v-476q0 -35 -11.5 -43.5t-23.5 -8.5q-7 0 -15 1t-14.5 6t-11 15.5t-4.5 29.5z" />
<glyph unicode="n" horiz-adv-x="1083" d="M100 72v622q0 12 1.5 24.5t6 22.5t13 16.5t22.5 6.5q12 0 19.5 -6t11.5 -16t5 -22.5t1 -25.5v-100q28 64 78.5 102.5t109.5 58t120.5 25.5t112.5 6q108 0 182.5 -18.5t121 -61.5t67 -113.5t20.5 -174.5v-346q0 -13 -2 -26t-6.5 -23t-12.5 -16.5t-20 -6.5q-15 0 -22.5 6.5 t-11.5 16.5t-4.5 23t-0.5 26v346q0 78 -12.5 136t-47 96.5t-95 57.5t-156.5 19q-58 0 -124.5 -9.5t-126.5 -33t-106 -62.5t-64 -98v-452q0 -13 -1 -26t-5 -23t-11.5 -16.5t-19.5 -6.5q-14 0 -22.5 6.5t-13 16.5t-6 23t-1.5 26z" />
<glyph unicode="o" horiz-adv-x="1116" d="M61 385q0 106 29.5 181.5t91 124.5t155 72t221.5 23t221.5 -23t155 -72t91 -124.5t29.5 -181.5q0 -92 -26 -165t-84.5 -124t-153.5 -78.5t-233 -27.5t-233 27.5t-153.5 78.5t-84.5 124t-26 165zM141 385q0 -41 5.5 -81.5t22 -78t45 -69.5t75 -56t112.5 -37.5t157 -13.5 t157 13.5t112.5 37.5t75 56t45 69.5t22 78t5.5 81.5q0 93 -24 158t-75 106t-130 59.5t-188 18.5t-188 -18.5t-130 -59.5t-75 -106t-24 -158z" />
<glyph unicode="p" horiz-adv-x="1137" d="M102 -261v976q0 32 11.5 40.5t25.5 8.5q17 0 27.5 -8.5t10.5 -40.5v-130q12 43 40.5 74.5t67 53.5t85 36t93 22.5t90.5 11.5t79 3q90 0 170.5 -18.5t141 -63.5t96 -120t35.5 -188q0 -112 -29.5 -189.5t-86 -125.5t-139 -69.5t-188.5 -21.5q-100 0 -182.5 16.5 t-142.5 36.5q-70 24 -125 54l-2 -364q0 -13 -0.5 -25.5t-4.5 -22.5t-11.5 -16t-22.5 -6t-22.5 6.5t-11.5 17t-4.5 24t-0.5 28.5zM182 140q67 -26 141 -46q63 -17 143.5 -31t165.5 -14q96 0 164.5 20t113 62.5t65 108t20.5 156.5q0 94 -28.5 158t-77.5 102t-115.5 54.5 t-141.5 16.5q-60 -1 -131 -9.5t-136 -30.5t-115 -61t-68 -102v-384z" />
<glyph unicode="q" horiz-adv-x="1136" d="M62 396q0 113 35.5 188t96 120t141 63.5t170.5 18.5q35 0 78.5 -3t89.5 -11.5t91.5 -22.5t84 -36t66.5 -53.5t40 -74.5v139q0 32 12 42t29 10q14 0 26.5 -11t12.5 -43v-991q0 -15 -1 -27.5t-5 -21.5t-12 -14.5t-23 -5.5t-22.5 6t-11.5 16t-4.5 23t-0.5 26v384 q-35 -36 -96 -64q-52 -24 -138.5 -43.5t-215.5 -19.5q-106 0 -188.5 21.5t-139 69.5t-86 125.5t-29.5 189.5zM142 396q0 -91 20.5 -156.5t65 -108t113 -62.5t164.5 -20q125 0 210 17.5t139 39.5q62 26 101 58v360q-18 63 -68 102t-115 61t-136 30.5t-131 9.5 q-75 0 -141.5 -16.5t-115.5 -54.5t-77.5 -102t-28.5 -158z" />
<glyph unicode="r" horiz-adv-x="781" d="M100 70v626q0 13 2 25.5t7 22.5t14.5 16t23.5 6q18 0 25.5 -18.5t9 -45.5t0 -56.5t-1.5 -51.5q18 61 63.5 99t101.5 58.5t114.5 27.5t103.5 7q38 0 65.5 -2.5t47.5 -6t35 -7.5l29 -8q14 -4 18 -16q3 -7 3 -14q1 -5 -1 -10q-4 -12 -15.5 -20t-29.5 -3q-39 11 -75 17t-77 6 q-68 0 -129.5 -11.5t-112 -35t-87 -60t-54.5 -85.5v-460q0 -26 -7 -48t-32 -22q-14 0 -22.5 6t-12.5 16t-5 22.5t-1 25.5z" />
<glyph unicode="s" horiz-adv-x="1062" d="M59 557q0 69 37.5 113t98.5 70t138 36t157 10q128 0 243.5 -22t210.5 -72q10 -5 13.5 -12.5t4.5 -15.5q0 -13 -8 -23t-18 -10q-6 0 -8 2q-85 43 -194 68.5t-240 25.5q-68 0 -132 -8.5t-113.5 -28t-79.5 -52t-30 -81.5q0 -50 37.5 -77t99.5 -40q62 -12 140 -16l160 -5 q82 -3 160 -10.5t139.5 -29t99 -62t37.5 -108.5q0 -61 -38 -103t-101 -67.5t-145.5 -37t-170.5 -11.5q-54 0 -116.5 2.5t-124.5 12t-120 29t-101 53.5q-14 10 -14 26q0 13 7.5 22.5t18.5 9.5q7 0 12 -4q42 -29 90.5 -47t102.5 -28t113 -13.5t122 -3.5q75 0 144.5 7.5t123 26 t85.5 49t32 77.5q0 53 -37.5 82t-99 42.5t-140 17t-160 6t-160 9t-140 27t-99 59t-37.5 105.5z" />
<glyph unicode="t" horiz-adv-x="680" d="M28 751q0 9 7 16.5t21 7.5h88v281q0 32 13 40.5t27 8.5q17 0 28.5 -8.5t11.5 -40.5v-281h385q15 0 22.5 -7.5t7.5 -16.5t-7.5 -16.5t-22.5 -7.5h-385v-448q0 -73 15 -118t40.5 -70t60 -33.5t73.5 -8.5q48 0 94 17t106 49q12 6 23 6q13 0 20.5 -7.5t7.5 -18.5 q0 -20 -22 -32q-42 -23 -74.5 -37t-60 -22t-53 -11t-55.5 -3q-54 0 -100.5 15t-81 48.5t-54 89t-19.5 136.5v448h-88q-14 0 -21 7.5t-7 16.5z" />
<glyph unicode="u" horiz-adv-x="1064" d="M92 348v346q0 13 1.5 26t5.5 23t12 16.5t21 6.5q15 0 23 -6.5t11.5 -16.5t4.5 -23t1 -26v-346q0 -84 14 -141t49.5 -92t97 -50.5t157.5 -15.5q87 0 158.5 20t124.5 44q62 28 111 65v516q0 13 1 26t4.5 23t11 16.5t20.5 6.5q15 0 23.5 -6.5t13 -16.5t5.5 -23t1 -26v-624 q0 -13 -1.5 -25.5t-5.5 -22.5t-11.5 -16t-19.5 -6q-15 0 -23.5 6t-13 16t-5.5 22.5t-1 25.5l1 71q-37 -43 -93 -76q-48 -29 -122.5 -52t-178.5 -23q-107 0 -182.5 20.5t-123.5 64t-70 111t-22 162.5z" />
<glyph unicode="v" horiz-adv-x="940" d="M19 750q3 18 17 25q7 4 16 4q8 0 16 -3q18 -6 29 -28l373 -675l373 675q11 22 29 28q8 3 16 3t16 -4q14 -7 17 -25q1 -4 1 -8q0 -15 -11 -34l-390 -679q-6 -11 -18.5 -25t-32.5 -14t-32.5 14t-18.5 25l-390 679q-11 19 -11 34q0 4 1 8z" />
<glyph unicode="w" horiz-adv-x="1204" d="M30 731q0 21 12.5 33.5t28.5 12.5q13 0 25 -9t20 -31l212 -647l212 635q9 28 26 41t35 13q19 0 36.5 -14t26.5 -40l212 -635l212 647q8 22 20 31t25 9q16 0 28.5 -12.5t12.5 -33.5q0 -11 -4 -22l-236 -660q-9 -26 -25 -40t-33 -14q-16 0 -30.5 12.5t-24.5 41.5l-219 638 l-219 -638q-10 -29 -24.5 -41.5t-30.5 -12.5q-17 0 -33 14t-25 40l-236 660q-4 11 -4 22z" />
<glyph unicode="x" horiz-adv-x="914" d="M33 743q1 15 9 23q10 10 27 9.5t37 -18.5l351 -321l351 321q19 18 37 18q17 1 27 -9q9 -9 9 -23v-3q-1 -16 -19 -33l-351 -320l347 -317q19 -18 21.5 -35.5t-6.5 -27.5t-25 -10l-2 1q-18 1 -38 19l-351 320l-351 -320q-20 -19 -38 -19q-1 0 -2 -1q-16 0 -25 10t-7 27.5 t22 35.5l347 317l-351 320q-19 17 -19 36z" />
<glyph unicode="y" horiz-adv-x="1071" d="M92 387v307q0 13 1 26t5 23t12 16.5t21 6.5q15 0 23 -6.5t12 -16.5t5 -23t1 -26v-307q0 -98 12.5 -163t46.5 -104t94.5 -55t155.5 -16q57 0 122 8t123.5 29t103 58t61.5 96v454q0 13 1.5 26t5.5 23t11.5 16.5t19.5 6.5q15 0 23 -6.5t12.5 -16.5t5.5 -23t1 -26v-491 q0 -154 -24.5 -257t-77.5 -165.5t-136 -88.5t-201 -26q-84 0 -141.5 9t-97 22.5t-65.5 30.5t-45 32q-5 4 -7 10t-1.5 12t2.5 11t4 8q5 6 17.5 10t24.5 -5q19 -14 44.5 -28.5t62 -26t85.5 -19t117 -7.5q103 0 172 22.5t110.5 74t59 137t17.5 211.5q-11 -41 -36 -70t-59 -49 t-75 -32t-83 -18.5t-82.5 -8.5t-74.5 -2q-108 0 -182 19.5t-120 66t-66.5 122.5t-20.5 189z" />
<glyph unicode="z" horiz-adv-x="971" d="M45 33q0 16 10 26l369 322l369 321h-654q-15 0 -28 0.5t-23 3.5t-16 10t-6 19q0 15 5.5 22.5t15.5 10.5t22.5 3.5t27.5 0.5h709q15 0 28 -0.5t23.5 -3.5t16.5 -10.5t6 -22.5t-13 -24l-737 -641h666q15 0 28 -0.5t23 -3.5t16 -10.5t6 -22.5q0 -12 -6.5 -19t-16.5 -10 t-22.5 -3.5t-25.5 -0.5h-721q-15 0 -28 0.5t-22.5 3.5t-15.5 10t-6 19z" />
<glyph unicode="{" horiz-adv-x="605" d="M9 750q0 12 8 22t25 10q66 0 107 19.5t65.5 53t35 78t15 94.5t7 102.5t9.5 102.5t23 94.5t48 78t83.5 53t130.5 19.5q17 0 25 -10.5t8 -22.5q0 -13 -8 -22t-25 -9h-17q-67 0 -106.5 -27.5t-60.5 -72.5t-28.5 -103t-12.5 -119t-11.5 -120t-25.5 -106.5t-54.5 -78.5 t-98.5 -36q63 -5 98.5 -36.5t54.5 -79t25.5 -106.5t11.5 -120t12.5 -119t28.5 -103t60.5 -72.5t106.5 -27.5q5 0 9.5 0.5t9.5 0.5q16 0 23.5 -10t7.5 -21q0 -13 -8 -23t-25 -10q-79 0 -130.5 19.5t-83.5 53t-48 78t-23 94.5t-9.5 102.5t-7 102.5t-15 94.5t-35 78t-65.5 53 t-107 19.5q-17 0 -25 10t-8 22z" />
<glyph unicode="|" horiz-adv-x="304" d="M116 -66v1291q0 15 0.5 27.5t3.5 22.5t10.5 15.5t22.5 5.5q13 0 20 -6t10.5 -15.5t4 -22t0.5 -25.5v-1290q0 -15 -0.5 -27.5t-4 -22t-10.5 -15t-20 -5.5q-15 0 -22.5 5.5t-10.5 15t-3.5 21.5t-0.5 25z" />
<glyph unicode="}" horiz-adv-x="605" d="M7 56q0 11 7.5 21t23.5 10q5 0 9.5 -0.5t9.5 -0.5q67 0 106.5 27.5t60.5 72.5t28.5 103t12.5 119t11.5 120t25.5 106.5t54.5 79t98.5 36.5q-63 5 -98.5 36t-54.5 78.5t-25.5 106.5t-11.5 120t-12.5 119t-28.5 103t-60.5 72.5t-106.5 27.5h-17q-17 0 -25 9t-8 22 q0 12 8 22.5t25 10.5q79 0 130.5 -19.5t83.5 -53t48 -78t23 -94.5t9.5 -102.5t7 -102.5t15 -94.5t35 -78t65.5 -53t107 -19.5q17 0 25 -10t8 -22t-8 -22t-25 -10q-66 0 -107 -19.5t-65.5 -53t-35 -78t-15 -94.5t-7 -102.5t-9.5 -102.5t-23 -94.5t-48 -78t-83.5 -53 t-130.5 -19.5q-17 0 -25 10t-8 23z" />
<glyph unicode="~" horiz-adv-x="969" d="M89 440q0 78 23.5 125.5t57 74t71 35.5t65.5 9q45 0 79.5 -15.5t63 -38.5t53 -50.5t50 -50.5t53.5 -38.5t63 -15.5q28 0 54.5 7.5t47 26.5t32.5 52.5t12 85.5h73q0 -78 -24 -126t-58 -74.5t-71.5 -35t-65.5 -8.5q-45 0 -79.5 15.5t-63 38.5t-53 50.5t-50 50.5t-53.5 38.5 t-63 15.5q-28 0 -54 -7t-46.5 -26.5t-33 -53t-12.5 -85.5h-71z" />
<glyph unicode="&#xa2;" horiz-adv-x="1044" d="M62 385q0 107 29 180.5t84.5 120.5t136.5 70t185 28v95q0 15 0.5 27.5t3.5 22.5t10.5 15.5t22.5 5.5q13 0 20 -6t10.5 -15.5t4 -22t0.5 -25.5v-95h1q88 0 182.5 -17.5t181.5 -62.5q11 -6 16 -14.5t5 -16.5q0 -11 -7.5 -18.5t-20.5 -7.5q-11 0 -21 5q-24 12 -61.5 24.5 t-82.5 23.5t-94.5 18t-97.5 7h-1v-678q48 0 97.5 7t94.5 18t83 23.5t62 24.5q10 5 21 5q13 0 20.5 -7.5t7.5 -18.5q0 -8 -5 -16.5t-16 -14.5q-87 -45 -181.5 -62.5t-182.5 -17.5h-1v-53q0 -15 -0.5 -27.5t-4 -22t-10.5 -15t-20 -5.5q-15 0 -22.5 5.5t-10.5 15t-3.5 21.5 t-0.5 25v58q-99 5 -179 26.5t-137 67.5t-88 119t-31 180zM142 385q0 -84 22 -144.5t66.5 -101t111 -61.5t155.5 -27v674q-95 -6 -162.5 -28.5t-110 -64t-62.5 -102.5t-20 -145z" />
<glyph unicode="&#xa3;" horiz-adv-x="987" d="M61 99q0 19 9 37.5t27.5 32.5t47 23t67.5 9q59 0 108.5 -9.5t96 -24t91.5 -31.5t95.5 -31.5t108.5 -24t130 -9.5q32 0 51 -6t19 -29q0 -27 -19 -31.5t-49 -4.5q-83 0 -147.5 10t-117.5 25.5t-98 33.5l-87 33q-43 16 -87 26t-95 10q-42 0 -59.5 -12t-17.5 -26t16.5 -25.5 t57.5 -11.5q48 0 79 7.5t50 25t26.5 46t7.5 70.5q0 10 -2 28l-3 43q-2 24 -5 51l-6 53q-7 62 -16 134h-206q-23 0 -33.5 11t-10.5 24q0 14 10.5 25t33.5 11h200l-4 67q-2 28 -2.5 57.5t-0.5 49.5q0 103 20 175.5t55 119t84 68t108 21.5q32 0 66 -3.5t70 -14t73 -29t75 -48.5 q18 -15 18 -35q0 -13 -7.5 -22t-20.5 -9q-6 0 -13 2.5t-15 9.5q-32 27 -64 43.5t-62.5 25.5t-59 12t-53.5 3q-45 0 -83 -16.5t-65 -53.5t-42 -95t-15 -142q0 -21 1.5 -52.5t3.5 -61.5q2 -35 5 -72h297q15 0 27.5 -0.5t22 -4t15 -10.5t5.5 -20q0 -26 -19.5 -31t-50.5 -5h-291 l15 -135l6 -52q3 -27 5 -49l4 -39q1 -16 1 -23q0 -68 -19 -111t-51 -68.5t-73.5 -35t-87.5 -9.5q-39 0 -67.5 8.5t-47 22.5t-27.5 32t-9 37z" />
<glyph unicode="&#xa5;" horiz-adv-x="975" d="M56.5 1073.5q1.5 18.5 12.5 26.5t27 4.5t30 -23.5l361 -538l361 538q14 21 30 24.5t26.5 -5t11.5 -27t-14 -41.5l-372 -561v-408q0 -29 -7.5 -49t-32.5 -20q-29 0 -37 20.5t-8 46.5v412l-374 559q-16 23 -14.5 41.5zM164 270q0 11 5.5 20t18.5 9h605q13 0 19 -9t6 -20 t-6 -20t-19 -9h-605q-13 0 -18.5 9t-5.5 20zM166 409q0 11 5.5 20t18.5 9h605q13 0 19 -9t6 -20t-6 -20t-19 -9h-605q-13 0 -18.5 9t-5.5 20z" />
<glyph unicode="&#xa8;" horiz-adv-x="723" d="M27 116q0 26 16 42.5t42 16.5q25 0 42.5 -16.5t17.5 -42.5q0 -25 -17.5 -40.5t-42.5 -15.5q-26 0 -42 15.5t-16 40.5zM466 116q0 26 16 42.5t42 16.5q25 0 42.5 -16.5t17.5 -42.5q0 -25 -17.5 -40.5t-42.5 -15.5q-26 0 -42 15.5t-16 40.5z" />
<glyph unicode="&#xa9;" horiz-adv-x="1181" d="M75 556q0 115 44.5 202t117 145t165 87.5t188.5 29.5q97 0 189.5 -29.5t165 -87.5t117 -145t44.5 -202t-44.5 -202t-117 -145t-165 -87.5t-189.5 -29.5q-96 0 -188.5 29.5t-165 87.5t-117 145t-44.5 202zM148 556q0 -100 38.5 -175.5t101 -126t142.5 -76t164 -25.5 t164 25.5t142.5 76t101 126t38.5 175.5t-38.5 175.5t-101 126t-142.5 76t-164 25.5t-164 -25.5t-142.5 -76t-101 -126t-38.5 -175.5zM248 556q0 83 28 142.5t74 98t106 56.5t125 18q64 0 127.5 -16.5t118.5 -48.5q14 -8 14 -24q0 -12 -8.5 -22t-19.5 -10q-8 0 -13 4 q-45 27 -101 42t-113 15q-52 0 -100.5 -14t-86 -44.5t-60.5 -79t-23 -117.5t23 -117.5t60.5 -79t86 -44.5t100.5 -14q57 0 113 15t101 42q5 4 13 4q11 0 19.5 -10t8.5 -22q0 -16 -14 -24q-55 -32 -118.5 -48.5t-127.5 -16.5q-65 0 -125 18t-106 56t-74 98t-28 143z" />
<glyph unicode="&#xab;" horiz-adv-x="646" d="M563.005 72q0 13 -11.999 25l-237.985 237l237.985 237q10.999 11 10.999 25t-11.499 24.5t-26.498 10.5q-15 0 -26.999 -12l-240.985 -252q-16.999 -19 -16.999 -32q0 -17 16.999 -34l240.985 -252q11.999 -12 26.999 -12q14.999 0 26.998 10.5t11.999 24.5zM364.018 72 q0 13 -12 25l-237.985 237l237.985 237q11 11 11 25t-11.5 24.5q-11.499 10.5 -26.498 10.5t-26.998 -12l-240.985 -252q-16.999 -19 -16.999 -32q0 -17 16.999 -34l240.985 -252q11.999 -12 26.998 -12t26.998 10.5q12 10.5 12 24.5z" />
<glyph unicode="&#xad;" d="M95 481q0 9 6.5 16t20.5 7h432q14 0 20.5 -7t6.5 -16q0 -8 -6.5 -15t-20.5 -7h-432q-14 0 -20.5 7t-6.5 15z" />
<glyph unicode="&#xae;" horiz-adv-x="1181" d="M75 556q0 115 44.5 202t117 145t165 87.5t188.5 29.5q97 0 189.5 -29.5t165 -87.5t117 -145t44.5 -202t-44.5 -202t-117 -145t-165 -87.5t-189.5 -29.5q-96 0 -188.5 29.5t-165 87.5t-117 145t-44.5 202zM148 556q0 -100 38.5 -175.5t101 -126t142.5 -76t164 -25.5 t164 25.5t142.5 76t101 126t38.5 175.5t-38.5 175.5t-101 126t-142.5 76t-164 25.5t-164 -25.5t-142.5 -76t-101 -126t-38.5 -175.5zM363 290v540q0 16 8 25.5t25 9.5h131q75 0 140.5 -3t113.5 -20.5t75.5 -56.5t27.5 -111q0 -53 -22 -87.5t-54 -54.5t-68.5 -28.5 t-65.5 -8.5l163 -191q10 -9 8.5 -21.5t-9 -21.5t-19.5 -11.5t-24 9.5l-192 234l-171 4v-207q0 -19 -10.5 -28.5t-23 -9.5t-23 9.5t-10.5 28.5zM430 542h171q42 0 81 2t69.5 14.5t49 39t18.5 76.5q0 55 -19.5 84t-57 41.5t-92 14t-123.5 1.5h-97v-273z" />
<glyph unicode="&#xb0;" horiz-adv-x="367" d="M66 997q0 24 9 44.5t25 36t37.5 24t46.5 8.5q24 0 45.5 -8.5t37 -24t25 -36t9.5 -44.5t-9.5 -44.5t-25 -35.5t-37 -23.5t-45.5 -8.5t-45 8.5t-37.5 23.5t-26 35.5t-9.5 44.5zM117 997q0 -26 19.5 -45.5t47.5 -19.5t48 19.5t20 45.5q0 27 -20 45.5t-48 18.5t-47.5 -18.5 t-19.5 -45.5z" />
<glyph unicode="&#xb4;" horiz-adv-x="376" d="M15 72q0 10 8 18l252 276q11 11 25 11q11 0 22.5 -5.5t20.5 -14t15 -19.5t6 -22q0 -16 -15 -28l-292 -237q-6 -5 -15 -5q-11 0 -19 7.5t-8 18.5z" />
<glyph unicode="&#xb8;" horiz-adv-x="266" d="M11 -291q0 13 10 27l189 274q13 19 26 19q8 0 13 -6.5t5 -15.5q0 -8 -4 -15l-166 -290q-8 -14 -18 -20t-21 -6q-14 0 -24 9.5t-10 23.5z" />
<glyph unicode="&#xbb;" horiz-adv-x="647" d="M82 72q0 13 12 25l238 237l-238 237q-11 11 -11 25t11.5 24.5t26.5 10.5t27 -12l241 -252q17 -19 17 -32q0 -17 -17 -34l-241 -252q-12 -12 -27 -12t-27 10.5t-12 24.5zM281 72q0 13 12 25l238 237l-238 237q-11 11 -11 25t11.5 24.5t26.5 10.5t27 -12l241 -252 q17 -19 17 -32q0 -17 -17 -34l-241 -252q-12 -12 -27 -12t-27 10.5t-12 24.5z" />
<glyph unicode="&#x2c6;" horiz-adv-x="482" d="M35 79l153 235q24 38 53 38q27 0 53 -38l153 -235h-76l-130 218l-130 -218h-76z" />
<glyph unicode="&#x2da;" horiz-adv-x="375" d="M-118 234q0 24 9 44.5t25 36t37.5 24t46.5 8.5q24 0 45.5 -8.5t37 -24t25 -36t9.5 -44.5t-9.5 -44.5t-25 -35.5t-37 -23.5t-45.5 -8.5t-45 8.5t-37.5 23.5t-26 35.5t-9.5 44.5zM-67 234q0 -26 19.5 -45.5t47.5 -19.5t48 19.5t20 45.5q0 27 -20 45.5t-48 18.5t-47.5 -18.5 t-19.5 -45.5z" />
<glyph unicode="&#x2dc;" horiz-adv-x="796" d="M226 96q0 35 23.5 58t66.5 23q46 0 86.5 -13t75.5 -29l65 -29q30 -13 55 -13q17 0 24 9.5t7 23.5q0 11 -3.5 24.5t-7.5 21.5h74q15 -27 15 -55q0 -36 -23 -58.5t-66 -22.5q-50 0 -90.5 13t-74.5 29l-63 29q-28 13 -54 13q-17 0 -24 -9.5t-7 -23.5q0 -11 3 -24.5t8 -21.5 h-74q-16 26 -16 55z" />
<glyph unicode="&#x2000;" horiz-adv-x="738" />
<glyph unicode="&#x2001;" horiz-adv-x="1477" />
<glyph unicode="&#x2002;" horiz-adv-x="738" />
<glyph unicode="&#x2003;" horiz-adv-x="1477" />
<glyph unicode="&#x2004;" horiz-adv-x="492" />
<glyph unicode="&#x2005;" horiz-adv-x="369" />
<glyph unicode="&#x2006;" horiz-adv-x="246" />
<glyph unicode="&#x2007;" horiz-adv-x="246" />
<glyph unicode="&#x2008;" horiz-adv-x="184" />
<glyph unicode="&#x2009;" horiz-adv-x="295" />
<glyph unicode="&#x200a;" horiz-adv-x="82" />
<glyph unicode="&#x2010;" d="M95 481q0 9 6.5 16t20.5 7h432q14 0 20.5 -7t6.5 -16q0 -8 -6.5 -15t-20.5 -7h-432q-14 0 -20.5 7t-6.5 15z" />
<glyph unicode="&#x2011;" d="M95 481q0 9 6.5 16t20.5 7h432q14 0 20.5 -7t6.5 -16q0 -8 -6.5 -15t-20.5 -7h-432q-14 0 -20.5 7t-6.5 15z" />
<glyph unicode="&#x2012;" d="M95 481q0 9 6.5 16t20.5 7h432q14 0 20.5 -7t6.5 -16q0 -8 -6.5 -15t-20.5 -7h-432q-14 0 -20.5 7t-6.5 15z" />
<glyph unicode="&#x2013;" d="M96 551q0 9 6.5 16t20.5 7h432q14 0 20.5 -7t6.5 -16q0 -8 -6.5 -15t-20.5 -7h-432q-14 0 -20.5 7t-6.5 15z" />
<glyph unicode="&#x2014;" horiz-adv-x="1435" d="M85 228q0 17 8.5 30.5t28.5 13.5h1190q20 0 29 -13.5t9 -30.5t-9 -30.5t-29 -13.5h-1190q-20 0 -28.5 13.5t-8.5 30.5z" />
<glyph unicode="&#x2018;" horiz-adv-x="311" d="M72 985q0 32 9 59.5t26.5 47.5t42 31t56.5 11q17 0 35 -3v-51h-10q-26 0 -35 -7.5t-9 -18.5q0 -9 4.5 -20t10.5 -22l12 -20l8 -16q6 -18 6 -32q0 -32 -22 -51t-51 -19q-15 0 -30 6t-26.5 19.5t-19 34.5t-7.5 51z" />
<glyph unicode="&#x2019;" horiz-adv-x="316" d="M246.004 1023.06q0 -31.998 -8.99902 -59.4971q-8.99902 -27.498 -26.498 -47.4971q-17.499 -19.998 -41.998 -30.998q-24.498 -10.999 -56.4961 -10.999q-16.999 0 -34.998 3v50.9971h9.99902q25.999 0 34.998 7.49902q9 7.5 9 18.499q0 8.99902 -4.5 19.999 q-4.5 10.999 -10.499 21.998l-12 19.999l-7.99902 15.999q-6 17.999 -6 31.998q0 31.998 21.999 50.9971t50.9971 18.999q14.999 0 29.998 -6t26.498 -19.499t18.999 -34.498q7.49902 -20.998 7.49902 -50.9961z" />
<glyph unicode="&#x201a;" horiz-adv-x="289" d="M96 203q0 18 14.5 27t34.5 9t34 -9t14 -27l-1 -9l-2 -22l-4 -30l-4 -34l-11 -94q-1 -11 -9 -16t-17 -5t-17.5 5t-8.5 16l-12 94l-4 34l-3 30l-3 22z" />
<glyph unicode="&#x201c;" horiz-adv-x="512" d="M72 985q0 32 9 59.5t26.5 47.5t42 31t56.5 11q17 0 35 -3v-51h-10q-26 0 -35 -7.5t-9 -18.5q0 -9 4.5 -20t10.5 -22l12 -20l8 -16q6 -18 6 -32q0 -32 -22 -51t-51 -19q-15 0 -30 6t-26.5 19.5t-19 34.5t-7.5 51zM274 985q0 32 9 59.5t26.5 47.5t42 31t56.5 11q17 0 35 -3 v-51h-10q-26 0 -35 -7.5t-9 -18.5q0 -9 4.5 -20t10.5 -22l12 -20l8 -16q6 -18 6 -32q0 -32 -22 -51t-51 -19q-15 0 -30 6t-26.5 19.5t-19 34.5t-7.5 51z" />
<glyph unicode="&#x201d;" horiz-adv-x="524" d="M246.004 1023.06q0 -31.998 -8.99902 -59.4971q-8.99902 -27.498 -26.498 -47.4971q-17.499 -19.998 -41.998 -30.998q-24.498 -10.999 -56.4961 -10.999q-16.999 0 -34.998 3v50.9971h9.99902q25.999 0 34.998 7.49902q9 7.5 9 18.499q0 8.99902 -4.5 19.999 q-4.5 10.999 -10.499 21.998l-12 19.999l-7.99902 15.999q-6 17.999 -6 31.998q0 31.998 21.999 50.9971t50.9971 18.999q14.999 0 29.998 -6t26.498 -19.499t18.999 -34.498q7.49902 -20.998 7.49902 -50.9961zM454.004 1023.06q0 -31.998 -8.99902 -59.4971 q-8.99902 -27.498 -26.498 -47.4971q-17.499 -19.998 -41.998 -30.998q-24.498 -10.999 -56.4961 -10.999q-16.999 0 -34.998 3v50.9971h9.99902q25.999 0 34.998 7.49902q9 7.5 9 18.499q0 8.99902 -4.5 19.999q-4.5 10.999 -10.499 21.998l-12 19.999l-7.99902 15.999 q-6 17.999 -6 31.998q0 31.998 21.999 50.9971t50.9971 18.999q14.999 0 29.998 -6t26.498 -19.499t18.999 -34.498q7.49902 -20.998 7.49902 -50.9961z" />
<glyph unicode="&#x201e;" horiz-adv-x="445" d="M96 191q0 18 14.5 27t34.5 9t34 -9t14 -27l-1 -9l-2 -22l-4 -30l-4 -34l-11 -94q-1 -11 -9 -16t-17 -5t-17.5 5t-8.5 16l-12 94l-4 34l-3 30l-3 22zM252 191q0 18 14.5 27t34.5 9t34 -9t14 -27l-1 -9l-2 -22l-4 -30l-4 -34l-11 -94q-1 -11 -9 -16t-17 -5t-17.5 5t-8.5 16 l-12 94l-4 34l-3 30l-3 22z" />
<glyph unicode="&#x2022;" horiz-adv-x="851" d="M74 403q0 70 27.5 131.5t75 107.5t111.5 72.5t137 26.5q72 0 136 -26.5t112 -72.5t76 -107.5t28 -131.5t-28 -131t-76 -106.5t-112 -71.5t-136 -26t-136 26.5t-112 72t-75.5 106.5t-27.5 130z" />
<glyph unicode="&#x2026;" horiz-adv-x="777" d="M97 46q0 26 16 42.5t42 16.5q25 0 42.5 -16.5t17.5 -42.5q0 -25 -17.5 -40.5t-42.5 -15.5q-26 0 -42 15.5t-16 40.5zM331 46q0 26 16 42.5t42 16.5q25 0 42.5 -16.5t17.5 -42.5q0 -25 -17.5 -40.5t-42.5 -15.5q-26 0 -42 15.5t-16 40.5zM561 46q0 26 16 42.5t42 16.5 q25 0 42.5 -16.5t17.5 -42.5q0 -25 -17.5 -40.5t-42.5 -15.5q-26 0 -42 15.5t-16 40.5z" />
<glyph unicode="&#x202f;" horiz-adv-x="295" />
<glyph unicode="&#x2039;" horiz-adv-x="448" d="M42 335q0 13 17 32l241 252q12 12 27 12t26.5 -10.5t11.5 -24.5t-11 -25l-238 -237l238 -237q12 -12 12 -25q0 -14 -12 -24.5t-27 -10.5t-27 12l-241 252q-17 17 -17 34z" />
<glyph unicode="&#x203a;" horiz-adv-x="448" d="M82 72q0 13 12 25l238 237l-238 237q-11 11 -11 25t11.5 24.5t26.5 10.5t27 -12l241 -252q17 -19 17 -32q0 -17 -17 -34l-241 -252q-12 -12 -27 -12t-27 10.5t-12 24.5z" />
<glyph unicode="&#x205f;" horiz-adv-x="369" />
<glyph unicode="&#x20ac;" horiz-adv-x="1133" d="M59 499q0 11 5.5 20t18.5 9h605q13 0 19 -9t6 -20t-6 -20t-19 -9h-605q-13 0 -18.5 9t-5.5 20zM61 638q0 11 5.5 20t18.5 9h605q13 0 19 -9t6 -20t-6 -20t-19 -9h-605q-13 0 -18.5 9t-5.5 20zM188 557q0 130 17.5 237t65.5 182.5t133.5 117t221.5 41.5q105 0 179 -24.5 t124 -71t78.5 -113t41.5 -149.5l-75 -1q-12 75 -37 130t-66.5 91t-101.5 54t-143 18q-108 0 -178 -31t-111 -94.5t-57 -160t-16 -226.5q0 -131 16 -227t57 -159.5t111 -94.5t178 -31q78 0 135.5 15.5t98.5 47.5t67 80t40 113h76q-15 -75 -45.5 -134.5t-80 -101.5t-121 -64 t-170.5 -22q-136 0 -221.5 41.5t-133.5 117t-65.5 182t-17.5 237.5z" />
<glyph unicode="&#x2122;" horiz-adv-x="1135" d="M56 1076q0 13 9 23.5t28 10.5h441q20 0 29 -10.5t9 -23.5q0 -11 -8.5 -21t-25.5 -10h-191v-462q0 -25 -4 -36.5t-29 -11.5q-13 0 -20 3t-10 9t-3.5 15t-0.5 21v462h-190q-17 0 -25.5 10t-8.5 21zM615 564v16v479q0 7 2 16t6.5 16.5t12.5 13t19 5.5q8 0 15.5 -1.5t15.5 -8 t17 -21t20 -40.5l95 -230l95 230q11 26 20 40.5t17 21t15.5 8t15.5 1.5q11 0 19 -5.5t12.5 -13t6.5 -16.5t2 -16v-479v-16q0 -8 -2.5 -14.5t-9.5 -10.5t-21 -4q-23 0 -28.5 13.5t-5.5 31.5v404l-58 -136q-21 -49 -33.5 -74.5t-21.5 -32.5t-23 -7t-23 7t-22 32.5t-33 74.5 l-58 136v-404q0 -18 -5.5 -31.5t-28.5 -13.5q-14 0 -21 4t-9.5 10.5t-2.5 14.5z" />
<glyph unicode="&#xe000;" horiz-adv-x="775" d="M0 775h775v-775h-775v775z" />
<glyph horiz-adv-x="357" d="M61 171q0 24 9 44.5t25 36t37.5 24t46.5 8.5q24 0 45.5 -8.5t37 -24t25 -36t9.5 -44.5t-9.5 -44.5t-25 -35.5t-37 -23.5t-45.5 -8.5t-45 8.5t-37.5 23.5t-26 35.5t-9.5 44.5zM112 171q0 -26 19.5 -45.5t47.5 -19.5t48 19.5t20 45.5q0 27 -20 45.5t-48 18.5t-47.5 -18.5 t-19.5 -45.5z" />
</font>
</defs>
</svg>
