<?xml version="1.0" encoding="UTF-8" standalone="no"?>
<svg
   xmlns:svg="http://www.w3.org/2000/svg"
   xmlns="http://www.w3.org/2000/svg"
   width="146.3"
   height="208.6"
   id="svg7058"
   version="1.1">
  <g
     id="layer1"
     transform="translate(-97.8,-336.9)">
    <path
       id="path5628"
       d="m 205.0,337.4 c -8.2,9.8 -18.9,17.1 -29.2,24.6 -7.5,0.2 -16.7,6.9 -23.0,1.3 -4.6,-4.6 -6.8,-4.4 -5.9,1.9 -0.0,3.9 -0.1,7.8 -0.2,11.7 -5.9,4.1 -12.1,-2.4 -18.0,-4.0 -5.2,-2.3 -10.5,-4.6 -15.8,-6.9 6.1,13.2 8.2,27.7 12.1,41.7 -2.0,2.6 -4.0,5.2 -6.0,7.8 9.5,4.2 -4.7,13.2 -6.0,19.5 -5.4,9.0 -10.4,18.3 -14.2,28.2 6.3,-5.4 10.4,-0.6 6.9,5.8 -2.0,14.6 -2.2,29.3 -3.0,44.0 3.2,-1.0 9.1,-13.0 7.8,-3.5 -0.1,3.2 0.2,16.5 2.3,13.8 0.8,-14.5 2.0,-29.3 6.1,-43.4 -3.4,3.8 -6.8,7.6 -10.3,11.4 1.1,-17.3 4.8,-34.5 11.4,-50.6 -10.4,2.8 2.1,-10.3 2.8,-14.6 2.3,-5.9 10.2,-14.5 10.9,-17.6 -6.7,-1.8 -3.9,-11.1 -5.6,-16.7 -0.4,-3.4 -0.9,-6.9 -1.3,-10.4 9.2,-4.9 10.6,12.6 13.5,11.8 4.5,-8.1 11.2,-15.7 19.0,-20.6 9.5,-4.2 20.5,-5.9 28.2,-13.7 5.0,-4.7 11.5,-7.7 17.3,-11.6 7.7,3.9 7.3,13.5 9.6,20.6 2.2,-6.3 -1.7,-14.8 -4.3,-21.2 -1.5,-3.0 -3.2,-6.0 -4.9,-9.0 z M 149.7,367.0 c 7.6,1.7 -2.2,11.2 0,0 z"
       style="fill:#4d4d4d;fill-opacity:1;stroke:#1c1c1c;stroke-width:1px;stroke-linecap:butt;stroke-linejoin:miter;stroke-opacity:0.7" />
    <path
       id="path5630"
       d="m 132.9,404.5 c -0.4,-6.6 -0.9,-13.3 -1.4,-19.9 2.1,5.4 4.2,10.9 6.4,16.4 -2.4,-1.1 -4.1,1.7 -4.9,3.5 z"
       style="fill:#4d4d4d;fill-opacity:1;stroke:#1c1c1c;stroke-width:1px;stroke-linecap:butt;stroke-linejoin:miter;stroke-opacity:0.7" />
    <path
       id="path5632"
       d="m 179.7,396.7 c 7.6,-8.9 13.6,-19.5 22.8,-27.1 3.9,0.9 10.8,-2.7 2.8,-3.5 -9.4,3.4 -22.5,10.3 -25.9,20.4 -0.4,3.4 -0.7,6.9 0.1,10.3 z"
       style="fill:#4d4d4d;fill-opacity:1;stroke:#1c1c1c;stroke-width:1px;stroke-linecap:butt;stroke-linejoin:miter;stroke-opacity:0.7" />
    <path
       id="path5634"
       d="m 123.3,471.2 c 8.4,-18.1 16.8,-36.3 25.3,-54.5 -0.3,5.2 0.6,17.9 4.3,17.9 1.7,-2.1 3.3,-6.4 5.2,-7.2 2.2,2.2 4.5,4.5 6.7,6.7 -0.5,-5.4 9.1,-14.2 10.9,-11.1 -2.2,8.8 -5.0,21.4 -7.8,27.7 -3.0,-1.9 -6.0,-3.9 -9.1,-5.8 -7.6,6.6 -9.2,17.3 -12.8,26.3 -1.0,-5.8 -0.2,-22.2 -9.1,-16.9 -6.0,4.2 -8.7,11.6 -13.6,16.9 z"
       style="fill:#4d4d4d;fill-opacity:1;stroke:#1c1c1c;stroke-width:1px;stroke-linecap:butt;stroke-linejoin:miter;stroke-opacity:0.7" />
    <path
       id="path5636"
       d="m 149.7,394.2 c 2.2,12.4 5.5,-5.0 9.5,-6.2 3.3,10.6 9.2,-12.2 6.8,0.7 -0.7,4.4 -1.4,8.9 -2.1,13.3 -4.4,-8.7 -9.7,1.3 -12.9,5.6 -2.6,4.5 -3.0,2.9 -2.2,-1.4 0.3,-4.0 0.6,-8.0 1.0,-12.0 z"
       style="fill:#4d4d4d;fill-opacity:1;stroke:#1c1c1c;stroke-width:1px;stroke-linecap:butt;stroke-linejoin:miter;stroke-opacity:0.7" />
    <path
       id="path5638"
       d="m 183.9,428.8 c -15.4,34.0 -38.8,64.0 -51.5,99.3 -0.8,5.3 -3.2,12.1 -0.4,16.9 10.1,-40.5 41.2,-72.0 51.3,-112.5 l 0.3,-1.8 0.2,-1.9 0,0 z"
       style="fill:#4d4d4d;fill-opacity:1;stroke:#1c1c1c;stroke-width:1px;stroke-linecap:butt;stroke-linejoin:miter;stroke-opacity:0.7" />
    <path
       id="path5640"
       d="m 173.6,529.7 c -3.0,-7.8 -11.2,-15.0 -8.9,-23.6 0.8,-9.0 -2.3,-20.0 5.3,-27.0 6.2,-9.1 9.9,-19.7 13.1,-30.3 -2.2,6.7 4.0,22.5 0.9,23.9 -5.6,-8.8 -9.4,4.9 -7.2,10.1 -0.3,4.0 1.7,15.5 -0.9,15.4 -1.3,-4.8 -1.7,-13.4 -6.6,-5.6 -4.2,9.3 0.0,19.8 1.9,29.3 0.7,2.6 1.4,5.2 2.2,7.8 z"
       style="fill:#4d4d4d;fill-opacity:1;stroke:#1c1c1c;stroke-width:1px;stroke-linecap:butt;stroke-linejoin:miter;stroke-opacity:0.7" />
    <path
       id="path5642"
       d="m 196.8,408.4 c 3.0,-13.1 10.5,-24.5 16.0,-36.7 -2.9,10.8 -5.9,21.6 -8.9,32.4 0.6,11.5 2.0,23.0 1.7,34.6 -2.4,-1.5 -9.0,-5.3 -7.8,0.7 -1.9,-3.3 -0.6,-12.4 3.6,-6.3 0.9,-7.9 2.4,-20.9 -3.5,-25.5 l -1.1,0.7 0,0 z"
       style="fill:#4d4d4d;fill-opacity:1;stroke:#1c1c1c;stroke-width:1px;stroke-linecap:butt;stroke-linejoin:miter;stroke-opacity:0.7" />
    <path
       id="path5644"
       d="m 228.5,511.9 c -4.0,-8.1 -16.0,-18.2 -14.2,-25.5 13.3,2.0 20.5,14.8 29.4,23.4 -5.0,-19.6 -23.8,-30.5 -38.8,-42.0 -12.2,-10.2 -11.4,-27.4 -10.0,-41.8 0.4,-4.8 1.8,-17.2 -2.2,-6.5 -2.9,9.5 -4.5,19.7 -4.9,29.6 1.1,11.8 8.3,21.9 14.4,31.7 7.7,11.1 16.9,21.2 26.4,30.9 z"
       style="fill:#4d4d4d;fill-opacity:1;stroke:#1c1c1c;stroke-width:1px;stroke-linecap:butt;stroke-linejoin:miter;stroke-opacity:0.7" />
    <path
       id="path5646"
       d="m 170.4,379.9 c -1.3,-4.4 11.4,-9.8 1.7,-8.0 -6.3,-1.4 -1.5,5.3 -1.7,8.0 z"
       style="fill:#4d4d4d;fill-opacity:1;stroke:#1c1c1c;stroke-width:1px;stroke-linecap:butt;stroke-linejoin:miter;stroke-opacity:0.7" />
    <path
       id="path5648"
       d="m 159.0,374.2 c -2.8,3.9 -5.7,7.8 -8.5,11.7 5.4,-0.4 21.2,-8.8 9.7,-11.5 l -1.2,-0.2 z m 1.0,3.5 c 7.5,-1.0 -8.0,7.4 0,0 z"
       style="fill:#4d4d4d;fill-opacity:1;stroke:#1c1c1c;stroke-width:1px;stroke-linecap:butt;stroke-linejoin:miter;stroke-opacity:0.7" />
  </g>
</svg>
